G04*
G04 #@! TF.GenerationSoftware,Altium Limited,Altium Designer,24.5.2 (23)*
G04*
G04 Layer_Physical_Order=2*
G04 Layer_Color=16711680*
%FSLAX44Y44*%
%MOMM*%
G71*
G04*
G04 #@! TF.SameCoordinates,3DF9ACDB-7C99-40C3-A0CA-608631173261*
G04*
G04*
G04 #@! TF.FilePolarity,Positive*
G04*
G01*
G75*
%ADD14C,0.2540*%
%ADD19C,1.3500*%
%ADD20R,1.3500X1.3500*%
%ADD21C,1.3000*%
%ADD22R,1.3000X1.3000*%
%ADD23C,1.4500*%
%ADD24R,1.4500X1.4500*%
%ADD25C,1.5500*%
%ADD26R,1.5500X1.5500*%
%ADD27C,2.0000*%
%ADD28R,2.0000X2.0000*%
%ADD29R,1.3000X1.3000*%
%ADD32R,1.3500X1.3500*%
%ADD33C,1.2500*%
%ADD34R,1.2500X1.2500*%
%ADD37R,1.5500X1.5500*%
%ADD38C,0.7620*%
%ADD39C,1.0160*%
%ADD41C,2.4000*%
G04:AMPARAMS|DCode=42|XSize=2.4mm|YSize=2.4mm|CornerRadius=0.6mm|HoleSize=0mm|Usage=FLASHONLY|Rotation=180.000|XOffset=0mm|YOffset=0mm|HoleType=Round|Shape=RoundedRectangle|*
%AMROUNDEDRECTD42*
21,1,2.4000,1.2000,0,0,180.0*
21,1,1.2000,2.4000,0,0,180.0*
1,1,1.2000,-0.6000,0.6000*
1,1,1.2000,0.6000,0.6000*
1,1,1.2000,0.6000,-0.6000*
1,1,1.2000,-0.6000,-0.6000*
%
%ADD42ROUNDEDRECTD42*%
%ADD43R,1.5300X1.5300*%
%ADD44C,1.5300*%
%ADD45C,1.5000*%
%ADD46R,1.5000X1.5000*%
%ADD47C,3.0000*%
%ADD48C,1.9304*%
G36*
X2042160Y1332305D02*
X435610D01*
X435610Y1332305D01*
Y1336040D01*
X2042160D01*
Y1332305D01*
D02*
G37*
G36*
X2039545Y88975D02*
X439495D01*
Y1324535D01*
X2039545D01*
Y88975D01*
D02*
G37*
G36*
X2042160Y76200D02*
X435610D01*
Y81205D01*
X435610Y81205D01*
X2042160D01*
Y76200D01*
D02*
G37*
%LPC*%
G36*
X1684664Y1268030D02*
X1680836D01*
X1677138Y1267039D01*
X1673822Y1265125D01*
X1671115Y1262418D01*
X1669201Y1259102D01*
X1668210Y1255404D01*
Y1251576D01*
X1669201Y1247878D01*
X1671115Y1244562D01*
X1673822Y1241855D01*
X1677138Y1239941D01*
X1680836Y1238950D01*
X1684664D01*
X1688362Y1239941D01*
X1691678Y1241855D01*
X1694385Y1244562D01*
X1696299Y1247878D01*
X1697290Y1251576D01*
Y1255404D01*
X1696299Y1259102D01*
X1694385Y1262418D01*
X1691678Y1265125D01*
X1688362Y1267039D01*
X1684664Y1268030D01*
D02*
G37*
G36*
X1633864D02*
X1630036D01*
X1626338Y1267039D01*
X1623022Y1265125D01*
X1620315Y1262418D01*
X1618401Y1259102D01*
X1617410Y1255404D01*
Y1251576D01*
X1618401Y1247878D01*
X1620315Y1244562D01*
X1623022Y1241855D01*
X1626338Y1239941D01*
X1630036Y1238950D01*
X1633864D01*
X1637562Y1239941D01*
X1640878Y1241855D01*
X1643585Y1244562D01*
X1645499Y1247878D01*
X1646490Y1251576D01*
Y1255404D01*
X1645499Y1259102D01*
X1643585Y1262418D01*
X1640878Y1265125D01*
X1637562Y1267039D01*
X1633864Y1268030D01*
D02*
G37*
G36*
X1583064D02*
X1579236D01*
X1575538Y1267039D01*
X1572222Y1265125D01*
X1569515Y1262418D01*
X1567601Y1259102D01*
X1566610Y1255404D01*
Y1251576D01*
X1567601Y1247878D01*
X1569515Y1244562D01*
X1572222Y1241855D01*
X1575538Y1239941D01*
X1579236Y1238950D01*
X1583064D01*
X1586762Y1239941D01*
X1590078Y1241855D01*
X1592785Y1244562D01*
X1594699Y1247878D01*
X1595690Y1251576D01*
Y1255404D01*
X1594699Y1259102D01*
X1592785Y1262418D01*
X1590078Y1265125D01*
X1586762Y1267039D01*
X1583064Y1268030D01*
D02*
G37*
G36*
X1536350Y1268104D02*
X1524350D01*
X1522121Y1267810D01*
X1520043Y1266950D01*
X1518259Y1265581D01*
X1516890Y1263797D01*
X1516030Y1261719D01*
X1515736Y1259490D01*
Y1247490D01*
X1516030Y1245261D01*
X1516890Y1243183D01*
X1518259Y1241399D01*
X1520043Y1240030D01*
X1522121Y1239170D01*
X1524350Y1238876D01*
X1536350D01*
X1538579Y1239170D01*
X1540657Y1240030D01*
X1542441Y1241399D01*
X1543810Y1243183D01*
X1544670Y1245261D01*
X1544964Y1247490D01*
Y1259490D01*
X1544670Y1261719D01*
X1543810Y1263797D01*
X1542441Y1265581D01*
X1540657Y1266950D01*
X1538579Y1267810D01*
X1536350Y1268104D01*
D02*
G37*
G36*
X1911994Y1266760D02*
X1908166D01*
X1904468Y1265769D01*
X1901152Y1263855D01*
X1898445Y1261148D01*
X1896531Y1257832D01*
X1895540Y1254134D01*
Y1250306D01*
X1896531Y1246608D01*
X1898445Y1243292D01*
X1901152Y1240585D01*
X1904468Y1238671D01*
X1908166Y1237680D01*
X1911994D01*
X1915692Y1238671D01*
X1919008Y1240585D01*
X1921715Y1243292D01*
X1923629Y1246608D01*
X1924620Y1250306D01*
Y1254134D01*
X1923629Y1257832D01*
X1921715Y1261148D01*
X1919008Y1263855D01*
X1915692Y1265769D01*
X1911994Y1266760D01*
D02*
G37*
G36*
X1861194D02*
X1857366D01*
X1853668Y1265769D01*
X1850352Y1263855D01*
X1847645Y1261148D01*
X1845731Y1257832D01*
X1844740Y1254134D01*
Y1250306D01*
X1845731Y1246608D01*
X1847645Y1243292D01*
X1850352Y1240585D01*
X1853668Y1238671D01*
X1857366Y1237680D01*
X1861194D01*
X1864892Y1238671D01*
X1868208Y1240585D01*
X1870915Y1243292D01*
X1872829Y1246608D01*
X1873820Y1250306D01*
Y1254134D01*
X1872829Y1257832D01*
X1870915Y1261148D01*
X1868208Y1263855D01*
X1864892Y1265769D01*
X1861194Y1266760D01*
D02*
G37*
G36*
X1810394D02*
X1806566D01*
X1802868Y1265769D01*
X1799552Y1263855D01*
X1796845Y1261148D01*
X1794931Y1257832D01*
X1793940Y1254134D01*
Y1250306D01*
X1794931Y1246608D01*
X1796845Y1243292D01*
X1799552Y1240585D01*
X1802868Y1238671D01*
X1806566Y1237680D01*
X1810394D01*
X1814092Y1238671D01*
X1817408Y1240585D01*
X1820115Y1243292D01*
X1822029Y1246608D01*
X1823020Y1250306D01*
Y1254134D01*
X1822029Y1257832D01*
X1820115Y1261148D01*
X1817408Y1263855D01*
X1814092Y1265769D01*
X1810394Y1266760D01*
D02*
G37*
G36*
X1763680Y1266834D02*
X1751680D01*
X1749451Y1266540D01*
X1747373Y1265680D01*
X1745589Y1264311D01*
X1744220Y1262527D01*
X1743360Y1260449D01*
X1743066Y1258220D01*
Y1246220D01*
X1743360Y1243991D01*
X1744220Y1241913D01*
X1745589Y1240129D01*
X1747373Y1238760D01*
X1749451Y1237900D01*
X1751680Y1237606D01*
X1763680D01*
X1765909Y1237900D01*
X1767987Y1238760D01*
X1769771Y1240129D01*
X1771140Y1241913D01*
X1772000Y1243991D01*
X1772294Y1246220D01*
Y1258220D01*
X1772000Y1260449D01*
X1771140Y1262527D01*
X1769771Y1264311D01*
X1767987Y1265680D01*
X1765909Y1266540D01*
X1763680Y1266834D01*
D02*
G37*
G36*
X596087Y1232930D02*
X592632D01*
X589244Y1232256D01*
X586052Y1230934D01*
X583179Y1229014D01*
X580736Y1226571D01*
X578816Y1223698D01*
X577494Y1220506D01*
X576820Y1217117D01*
Y1213662D01*
X577494Y1210274D01*
X578816Y1207082D01*
X580736Y1204209D01*
X583179Y1201766D01*
X586052Y1199846D01*
X589244Y1198524D01*
X592632Y1197850D01*
X596087D01*
X599476Y1198524D01*
X602668Y1199846D01*
X605541Y1201766D01*
X607984Y1204209D01*
X609904Y1207082D01*
X611226Y1210274D01*
X611900Y1213662D01*
Y1217117D01*
X611226Y1220506D01*
X609904Y1223698D01*
X607984Y1226571D01*
X605541Y1229014D01*
X602668Y1230934D01*
X599476Y1232256D01*
X596087Y1232930D01*
D02*
G37*
G36*
X1646301Y1131490D02*
X1642999D01*
X1639810Y1130635D01*
X1636950Y1128984D01*
X1634615Y1126649D01*
X1632965Y1123790D01*
X1632110Y1120601D01*
Y1117299D01*
X1632965Y1114109D01*
X1634615Y1111250D01*
X1636950Y1108915D01*
X1639810Y1107264D01*
X1642999Y1106410D01*
X1646301D01*
X1649490Y1107264D01*
X1652350Y1108915D01*
X1654684Y1111250D01*
X1656335Y1114109D01*
X1657190Y1117299D01*
Y1120601D01*
X1656335Y1123790D01*
X1654684Y1126649D01*
X1652350Y1128984D01*
X1649490Y1130635D01*
X1646301Y1131490D01*
D02*
G37*
G36*
X1526301D02*
X1522999D01*
X1519810Y1130635D01*
X1516951Y1128984D01*
X1514616Y1126649D01*
X1512965Y1123790D01*
X1512110Y1120601D01*
Y1117299D01*
X1512965Y1114109D01*
X1514616Y1111250D01*
X1516951Y1108915D01*
X1519810Y1107264D01*
X1522999Y1106410D01*
X1526301D01*
X1529491Y1107264D01*
X1532350Y1108915D01*
X1534685Y1111250D01*
X1536336Y1114109D01*
X1537190Y1117299D01*
Y1120601D01*
X1536336Y1123790D01*
X1534685Y1126649D01*
X1532350Y1128984D01*
X1529491Y1130635D01*
X1526301Y1131490D01*
D02*
G37*
G36*
X1984431Y1130530D02*
X1981129D01*
X1977940Y1129676D01*
X1975080Y1128025D01*
X1972745Y1125690D01*
X1971095Y1122830D01*
X1970240Y1119641D01*
Y1116339D01*
X1971095Y1113150D01*
X1972745Y1110290D01*
X1975080Y1107956D01*
X1977940Y1106305D01*
X1981129Y1105450D01*
X1984431D01*
X1987620Y1106305D01*
X1990480Y1107956D01*
X1992814Y1110290D01*
X1994465Y1113150D01*
X1995320Y1116339D01*
Y1119641D01*
X1994465Y1122830D01*
X1992814Y1125690D01*
X1990480Y1128025D01*
X1987620Y1129676D01*
X1984431Y1130530D01*
D02*
G37*
G36*
X1864431D02*
X1861129D01*
X1857940Y1129676D01*
X1855080Y1128025D01*
X1852746Y1125690D01*
X1851095Y1122830D01*
X1850240Y1119641D01*
Y1116339D01*
X1851095Y1113150D01*
X1852746Y1110290D01*
X1855080Y1107956D01*
X1857940Y1106305D01*
X1861129Y1105450D01*
X1864431D01*
X1867620Y1106305D01*
X1870480Y1107956D01*
X1872815Y1110290D01*
X1874465Y1113150D01*
X1875320Y1116339D01*
Y1119641D01*
X1874465Y1122830D01*
X1872815Y1125690D01*
X1870480Y1128025D01*
X1867620Y1129676D01*
X1864431Y1130530D01*
D02*
G37*
G36*
X1815521D02*
X1812219D01*
X1809030Y1129676D01*
X1806170Y1128025D01*
X1803835Y1125690D01*
X1802184Y1122830D01*
X1801330Y1119641D01*
Y1116339D01*
X1802184Y1113150D01*
X1803835Y1110290D01*
X1806170Y1107956D01*
X1809030Y1106305D01*
X1812219Y1105450D01*
X1815521D01*
X1818710Y1106305D01*
X1821570Y1107956D01*
X1823904Y1110290D01*
X1825555Y1113150D01*
X1826410Y1116339D01*
Y1119641D01*
X1825555Y1122830D01*
X1823904Y1125690D01*
X1821570Y1128025D01*
X1818710Y1129676D01*
X1815521Y1130530D01*
D02*
G37*
G36*
X1695521D02*
X1692219D01*
X1689030Y1129676D01*
X1686170Y1128025D01*
X1683836Y1125690D01*
X1682185Y1122830D01*
X1681330Y1119641D01*
Y1116339D01*
X1682185Y1113150D01*
X1683836Y1110290D01*
X1686170Y1107956D01*
X1689030Y1106305D01*
X1692219Y1105450D01*
X1695521D01*
X1698710Y1106305D01*
X1701570Y1107956D01*
X1703905Y1110290D01*
X1705556Y1113150D01*
X1706410Y1116339D01*
Y1119641D01*
X1705556Y1122830D01*
X1703905Y1125690D01*
X1701570Y1128025D01*
X1698710Y1129676D01*
X1695521Y1130530D01*
D02*
G37*
G36*
X710265Y1024382D02*
X707055D01*
X703954Y1023551D01*
X701174Y1021946D01*
X698904Y1019676D01*
X697299Y1016896D01*
X697275Y1016806D01*
X694645D01*
X694621Y1016896D01*
X693016Y1019676D01*
X690746Y1021946D01*
X687966Y1023551D01*
X684865Y1024382D01*
X681655D01*
X678554Y1023551D01*
X675774Y1021946D01*
X673504Y1019676D01*
X671899Y1016896D01*
X671875Y1016806D01*
X669245D01*
X669221Y1016896D01*
X667616Y1019676D01*
X665346Y1021946D01*
X662566Y1023551D01*
X659465Y1024382D01*
X656255D01*
X653154Y1023551D01*
X650374Y1021946D01*
X648104Y1019676D01*
X646499Y1016896D01*
X646475Y1016806D01*
X643845D01*
X643821Y1016896D01*
X642216Y1019676D01*
X639946Y1021946D01*
X637166Y1023551D01*
X634065Y1024382D01*
X630855D01*
X627754Y1023551D01*
X624974Y1021946D01*
X622704Y1019676D01*
X621099Y1016896D01*
X621075Y1016806D01*
X618445D01*
X618421Y1016896D01*
X616816Y1019676D01*
X614546Y1021946D01*
X611766Y1023551D01*
X608665Y1024382D01*
X608330D01*
Y1012190D01*
Y999998D01*
X608665D01*
X611766Y1000829D01*
X614546Y1002434D01*
X616816Y1004704D01*
X618421Y1007484D01*
X618445Y1007574D01*
X621075D01*
X621099Y1007484D01*
X622704Y1004704D01*
X624974Y1002434D01*
X627754Y1000829D01*
X630855Y999998D01*
X634065D01*
X637166Y1000829D01*
X639946Y1002434D01*
X642216Y1004704D01*
X643821Y1007484D01*
X643845Y1007574D01*
X646475D01*
X646499Y1007484D01*
X648104Y1004704D01*
X650374Y1002434D01*
X653154Y1000829D01*
X656255Y999998D01*
X656607D01*
X657659Y997458D01*
X614425Y954225D01*
X613204Y952633D01*
X612436Y950779D01*
X612174Y948790D01*
Y935095D01*
X611706Y934627D01*
X610364Y932303D01*
X609670Y929712D01*
Y927336D01*
X606517Y924184D01*
X604240Y925498D01*
X604650Y927028D01*
Y929712D01*
X603956Y932303D01*
X602614Y934627D01*
X600717Y936524D01*
X598393Y937866D01*
X595802Y938560D01*
X593119D01*
X590527Y937866D01*
X588203Y936524D01*
X586306Y934627D01*
X584964Y932303D01*
X584270Y929712D01*
Y927028D01*
X584964Y924437D01*
X586306Y922113D01*
X588203Y920216D01*
X590527Y918874D01*
X593119Y918180D01*
X595802D01*
X597332Y918590D01*
X598647Y916313D01*
X504438Y822104D01*
X503034Y820004D01*
X502542Y817526D01*
Y131826D01*
X503034Y129348D01*
X504438Y127248D01*
X523742Y107944D01*
X525842Y106540D01*
X528320Y106048D01*
X614172D01*
X616650Y106540D01*
X618750Y107944D01*
X645589Y134783D01*
X648326Y134050D01*
X652154D01*
X655852Y135041D01*
X659168Y136955D01*
X661875Y139662D01*
X663789Y142978D01*
X664780Y146676D01*
Y150504D01*
X663789Y154202D01*
X661875Y157518D01*
X659168Y160225D01*
X655852Y162139D01*
X652154Y163130D01*
X648326D01*
X644628Y162139D01*
X641312Y160225D01*
X638605Y157518D01*
X636691Y154202D01*
X635700Y150504D01*
Y146676D01*
X636433Y143939D01*
X611490Y118996D01*
X531002D01*
X515490Y134508D01*
Y169130D01*
X515513Y169148D01*
X518030Y170043D01*
X534833Y153241D01*
X534100Y150504D01*
Y146676D01*
X535091Y142978D01*
X537005Y139662D01*
X539712Y136955D01*
X543028Y135041D01*
X546726Y134050D01*
X550554D01*
X554252Y135041D01*
X557568Y136955D01*
X560275Y139662D01*
X562189Y142978D01*
X563180Y146676D01*
Y150504D01*
X562189Y154202D01*
X560275Y157518D01*
X557568Y160225D01*
X554252Y162139D01*
X550554Y163130D01*
X546726D01*
X543989Y162397D01*
X528444Y177942D01*
Y320540D01*
X529204Y321300D01*
X530394Y323361D01*
X531010Y325660D01*
Y328040D01*
X530394Y330340D01*
X529204Y332401D01*
X527521Y334084D01*
X525459Y335274D01*
X523160Y335890D01*
X520780D01*
X518481Y335274D01*
X518030Y335014D01*
X515490Y336481D01*
Y413410D01*
X531010D01*
Y414765D01*
X567712D01*
X568811Y413665D01*
X570403Y412444D01*
X572257Y411676D01*
X574246Y411414D01*
X574246Y411414D01*
X580227D01*
X580575Y411066D01*
X582865Y409744D01*
X585418Y409060D01*
X588062D01*
X590615Y409744D01*
X592905Y411066D01*
X594774Y412935D01*
X596096Y415225D01*
X596780Y417778D01*
Y420422D01*
X596096Y422975D01*
X594774Y425265D01*
X592905Y427134D01*
X590615Y428456D01*
X588062Y429140D01*
X585418D01*
X582865Y428456D01*
X580575Y427134D01*
X580227Y426786D01*
X577429D01*
X576330Y427885D01*
X574738Y429106D01*
X572885Y429874D01*
X570896Y430136D01*
X531010D01*
Y431490D01*
X515490D01*
Y814844D01*
X618826Y918180D01*
X621202D01*
X623793Y918874D01*
X626117Y920216D01*
X628014Y922113D01*
X629356Y924437D01*
X630050Y927028D01*
Y929712D01*
X629356Y932303D01*
X628014Y934627D01*
X627546Y935095D01*
Y945607D01*
X681937Y999998D01*
X684865D01*
X687966Y1000829D01*
X690746Y1002434D01*
X693016Y1004704D01*
X694621Y1007484D01*
X694645Y1007574D01*
X697275D01*
X697299Y1007484D01*
X698904Y1004704D01*
X701174Y1002434D01*
X703954Y1000829D01*
X707055Y999998D01*
X710265D01*
X713366Y1000829D01*
X716146Y1002434D01*
X718416Y1004704D01*
X720021Y1007484D01*
X720852Y1010585D01*
Y1013795D01*
X720021Y1016896D01*
X718416Y1019676D01*
X716146Y1021946D01*
X713366Y1023551D01*
X710265Y1024382D01*
D02*
G37*
G36*
X605790D02*
X605455D01*
X602354Y1023551D01*
X599574Y1021946D01*
X597304Y1019676D01*
X595699Y1016896D01*
X594868Y1013795D01*
Y1013460D01*
X605790D01*
Y1024382D01*
D02*
G37*
G36*
Y1010920D02*
X594868D01*
Y1010585D01*
X595699Y1007484D01*
X597304Y1004704D01*
X599574Y1002434D01*
X602354Y1000829D01*
X605455Y999998D01*
X605790D01*
Y1010920D01*
D02*
G37*
G36*
X761188Y1029730D02*
X757732D01*
X754344Y1029056D01*
X751152Y1027734D01*
X748279Y1025814D01*
X745836Y1023371D01*
X743916Y1020498D01*
X742594Y1017306D01*
X741920Y1013917D01*
Y1010462D01*
X742594Y1007074D01*
X743916Y1003882D01*
X745836Y1001009D01*
X748279Y998566D01*
X751152Y996646D01*
X754344Y995324D01*
X757732Y994650D01*
X761188D01*
X764576Y995324D01*
X767768Y996646D01*
X770641Y998566D01*
X773084Y1001009D01*
X775004Y1003882D01*
X776326Y1007074D01*
X777000Y1010462D01*
Y1013917D01*
X776326Y1017306D01*
X775004Y1020498D01*
X773084Y1023371D01*
X770641Y1025814D01*
X767768Y1027734D01*
X764576Y1029056D01*
X761188Y1029730D01*
D02*
G37*
G36*
X1646301Y1009490D02*
X1642999D01*
X1639810Y1008635D01*
X1636950Y1006984D01*
X1634615Y1004650D01*
X1632965Y1001790D01*
X1632110Y998601D01*
Y995299D01*
X1632965Y992110D01*
X1634615Y989250D01*
X1636950Y986916D01*
X1639810Y985265D01*
X1642999Y984410D01*
X1646301D01*
X1649490Y985265D01*
X1652350Y986916D01*
X1654684Y989250D01*
X1656335Y992110D01*
X1657190Y995299D01*
Y998601D01*
X1656335Y1001790D01*
X1654684Y1004650D01*
X1652350Y1006984D01*
X1649490Y1008635D01*
X1646301Y1009490D01*
D02*
G37*
G36*
X1526301D02*
X1522999D01*
X1519810Y1008635D01*
X1516951Y1006984D01*
X1514616Y1004650D01*
X1512965Y1001790D01*
X1512110Y998601D01*
Y995299D01*
X1512965Y992110D01*
X1514616Y989250D01*
X1516951Y986916D01*
X1519810Y985265D01*
X1522999Y984410D01*
X1526301D01*
X1529491Y985265D01*
X1532350Y986916D01*
X1534685Y989250D01*
X1536336Y992110D01*
X1537190Y995299D01*
Y998601D01*
X1536336Y1001790D01*
X1534685Y1004650D01*
X1532350Y1006984D01*
X1529491Y1008635D01*
X1526301Y1009490D01*
D02*
G37*
G36*
X1984431Y1008530D02*
X1981129D01*
X1977940Y1007675D01*
X1975080Y1006024D01*
X1972745Y1003690D01*
X1971095Y1000830D01*
X1970240Y997641D01*
Y994339D01*
X1971095Y991150D01*
X1972745Y988290D01*
X1975080Y985955D01*
X1977940Y984305D01*
X1981129Y983450D01*
X1984431D01*
X1987620Y984305D01*
X1990480Y985955D01*
X1992814Y988290D01*
X1994465Y991150D01*
X1995320Y994339D01*
Y997641D01*
X1994465Y1000830D01*
X1992814Y1003690D01*
X1990480Y1006024D01*
X1987620Y1007675D01*
X1984431Y1008530D01*
D02*
G37*
G36*
X1864431D02*
X1861129D01*
X1857940Y1007675D01*
X1855080Y1006024D01*
X1852746Y1003690D01*
X1851095Y1000830D01*
X1850240Y997641D01*
Y994339D01*
X1851095Y991150D01*
X1852746Y988290D01*
X1855080Y985955D01*
X1857940Y984305D01*
X1861129Y983450D01*
X1864431D01*
X1867620Y984305D01*
X1870480Y985955D01*
X1872815Y988290D01*
X1874465Y991150D01*
X1875320Y994339D01*
Y997641D01*
X1874465Y1000830D01*
X1872815Y1003690D01*
X1870480Y1006024D01*
X1867620Y1007675D01*
X1864431Y1008530D01*
D02*
G37*
G36*
X1815521D02*
X1812219D01*
X1809030Y1007675D01*
X1806170Y1006024D01*
X1803835Y1003690D01*
X1802184Y1000830D01*
X1801330Y997641D01*
Y994339D01*
X1802184Y991150D01*
X1803835Y988290D01*
X1806170Y985955D01*
X1809030Y984305D01*
X1812219Y983450D01*
X1815521D01*
X1818710Y984305D01*
X1821570Y985955D01*
X1823904Y988290D01*
X1825555Y991150D01*
X1826410Y994339D01*
Y997641D01*
X1825555Y1000830D01*
X1823904Y1003690D01*
X1821570Y1006024D01*
X1818710Y1007675D01*
X1815521Y1008530D01*
D02*
G37*
G36*
X1695521D02*
X1692219D01*
X1689030Y1007675D01*
X1686170Y1006024D01*
X1683836Y1003690D01*
X1682185Y1000830D01*
X1681330Y997641D01*
Y994339D01*
X1682185Y991150D01*
X1683836Y988290D01*
X1686170Y985955D01*
X1689030Y984305D01*
X1692219Y983450D01*
X1695521D01*
X1698710Y984305D01*
X1701570Y985955D01*
X1703905Y988290D01*
X1705556Y991150D01*
X1706410Y994339D01*
Y997641D01*
X1705556Y1000830D01*
X1703905Y1003690D01*
X1701570Y1006024D01*
X1698710Y1007675D01*
X1695521Y1008530D01*
D02*
G37*
G36*
X1597190Y989490D02*
X1572110D01*
Y964410D01*
X1597190D01*
Y989490D01*
D02*
G37*
G36*
X1935320Y988530D02*
X1910240D01*
Y963450D01*
X1935320D01*
Y988530D01*
D02*
G37*
G36*
X1766410D02*
X1741330D01*
Y963450D01*
X1766410D01*
Y988530D01*
D02*
G37*
G36*
X1701800Y955614D02*
X1699811Y955352D01*
X1697957Y954584D01*
X1696365Y953363D01*
X1683665Y940663D01*
X1682444Y939071D01*
X1681676Y937217D01*
X1681414Y935228D01*
Y900839D01*
X1681266Y900691D01*
X1679977Y898459D01*
X1679310Y895969D01*
Y893391D01*
X1679977Y890901D01*
X1681266Y888669D01*
X1683089Y886846D01*
X1685321Y885557D01*
X1687811Y884890D01*
X1690389D01*
X1692879Y885557D01*
X1695111Y886846D01*
X1696934Y888669D01*
X1698223Y890901D01*
X1698890Y893391D01*
Y895969D01*
X1698223Y898459D01*
X1696934Y900691D01*
X1696786Y900839D01*
Y932044D01*
X1704984Y940242D01*
X1854368D01*
X1859897Y934714D01*
X1859457Y933194D01*
X1858773Y932246D01*
X1809830D01*
Y934850D01*
X1789250D01*
Y914270D01*
X1809830D01*
Y916874D01*
X1855999D01*
X1858669Y914205D01*
X1857354Y911928D01*
X1856749Y912090D01*
X1854171D01*
X1851681Y911423D01*
X1849449Y910134D01*
X1849301Y909986D01*
X1736183D01*
X1721030Y925139D01*
Y925915D01*
X1720329Y928532D01*
X1718974Y930878D01*
X1717058Y932794D01*
X1714712Y934149D01*
X1712095Y934850D01*
X1709385D01*
X1706768Y934149D01*
X1704422Y932794D01*
X1702506Y930878D01*
X1701151Y928532D01*
X1700450Y925915D01*
Y923205D01*
X1701151Y920588D01*
X1702506Y918242D01*
X1704422Y916326D01*
X1706768Y914971D01*
X1709385Y914270D01*
X1710161D01*
X1727565Y896865D01*
X1727565Y896865D01*
X1729157Y895644D01*
X1731011Y894876D01*
X1733000Y894614D01*
X1849301D01*
X1849449Y894466D01*
X1851681Y893177D01*
X1854171Y892510D01*
X1856749D01*
X1859239Y893177D01*
X1861471Y894466D01*
X1863294Y896289D01*
X1864583Y898521D01*
X1867088Y898058D01*
Y880542D01*
X1864583Y880079D01*
X1863294Y882311D01*
X1861471Y884134D01*
X1859239Y885423D01*
X1856749Y886090D01*
X1854171D01*
X1851681Y885423D01*
X1849449Y884134D01*
X1847626Y882311D01*
X1846337Y880079D01*
X1845670Y877589D01*
Y875011D01*
X1846337Y872521D01*
X1847626Y870289D01*
X1849449Y868466D01*
X1851681Y867177D01*
X1854171Y866510D01*
X1856749D01*
X1859239Y867177D01*
X1861471Y868466D01*
X1863294Y870289D01*
X1864583Y872521D01*
X1865250Y875011D01*
Y876300D01*
X1867790Y876805D01*
X1868118Y876013D01*
X1869339Y874421D01*
X1884410Y859350D01*
X1884913Y857474D01*
X1886136Y855356D01*
X1887866Y853626D01*
X1889984Y852403D01*
X1892347Y851770D01*
X1894793D01*
X1897156Y852403D01*
X1899274Y853626D01*
X1901004Y855356D01*
X1902227Y857474D01*
X1902730Y859350D01*
X1958919Y915540D01*
X1978740D01*
Y936120D01*
X1958160D01*
Y933492D01*
X1956351Y933254D01*
X1954497Y932486D01*
X1952905Y931265D01*
X1952905Y931265D01*
X1904982Y883341D01*
X1902704Y884656D01*
X1902860Y885237D01*
Y887683D01*
X1902227Y890046D01*
X1901004Y892164D01*
X1899274Y893894D01*
X1897156Y895117D01*
X1894793Y895750D01*
X1892347D01*
X1889984Y895117D01*
X1887866Y893894D01*
X1886136Y892164D01*
X1885000Y890196D01*
X1884758Y890119D01*
X1882460Y891280D01*
Y908969D01*
X1882460Y908969D01*
X1882198Y910958D01*
X1881430Y912812D01*
X1881218Y913088D01*
X1881202Y913273D01*
X1881667Y915022D01*
X1882277Y915881D01*
X1883622Y916241D01*
X1885968Y917596D01*
X1887884Y919512D01*
X1889238Y921858D01*
X1889940Y924475D01*
Y927185D01*
X1889238Y929802D01*
X1887884Y932148D01*
X1885968Y934064D01*
X1883622Y935419D01*
X1881004Y936120D01*
X1880229D01*
X1862986Y953363D01*
X1861395Y954584D01*
X1859541Y955352D01*
X1857552Y955614D01*
X1701800D01*
X1701800Y955614D01*
D02*
G37*
G36*
X722802Y938560D02*
X722730D01*
Y929640D01*
X731650D01*
Y929712D01*
X730956Y932303D01*
X729614Y934627D01*
X727717Y936524D01*
X725393Y937866D01*
X722802Y938560D01*
D02*
G37*
G36*
X570402D02*
X570330D01*
Y929640D01*
X579250D01*
Y929712D01*
X578556Y932303D01*
X577214Y934627D01*
X575317Y936524D01*
X572993Y937866D01*
X570402Y938560D01*
D02*
G37*
G36*
X720190D02*
X720118D01*
X717527Y937866D01*
X715203Y936524D01*
X713306Y934627D01*
X711964Y932303D01*
X711270Y929712D01*
Y929640D01*
X720190D01*
Y938560D01*
D02*
G37*
G36*
X567790D02*
X567719D01*
X565127Y937866D01*
X562803Y936524D01*
X560906Y934627D01*
X559565Y932303D01*
X558870Y929712D01*
Y929640D01*
X567790D01*
Y938560D01*
D02*
G37*
G36*
X1027602D02*
X1024919D01*
X1022327Y937866D01*
X1020003Y936524D01*
X1018106Y934627D01*
X1016765Y932303D01*
X1016070Y929712D01*
Y927028D01*
X1016765Y924437D01*
X1018106Y922113D01*
X1020003Y920216D01*
X1022327Y918874D01*
X1024919Y918180D01*
X1027602D01*
X1030193Y918874D01*
X1032517Y920216D01*
X1034414Y922113D01*
X1035756Y924437D01*
X1036450Y927028D01*
Y929712D01*
X1035756Y932303D01*
X1034414Y934627D01*
X1032517Y936524D01*
X1030193Y937866D01*
X1027602Y938560D01*
D02*
G37*
G36*
X1002202D02*
X999519D01*
X996927Y937866D01*
X994603Y936524D01*
X992706Y934627D01*
X991365Y932303D01*
X990670Y929712D01*
Y927028D01*
X991365Y924437D01*
X992706Y922113D01*
X994603Y920216D01*
X996927Y918874D01*
X999519Y918180D01*
X1002202D01*
X1004793Y918874D01*
X1007117Y920216D01*
X1009014Y922113D01*
X1010356Y924437D01*
X1011050Y927028D01*
Y929712D01*
X1010356Y932303D01*
X1009014Y934627D01*
X1007117Y936524D01*
X1004793Y937866D01*
X1002202Y938560D01*
D02*
G37*
G36*
X976802D02*
X974118D01*
X971527Y937866D01*
X969203Y936524D01*
X967306Y934627D01*
X965965Y932303D01*
X965270Y929712D01*
Y927028D01*
X965965Y924437D01*
X967306Y922113D01*
X969203Y920216D01*
X971527Y918874D01*
X974118Y918180D01*
X976802D01*
X979393Y918874D01*
X981717Y920216D01*
X983614Y922113D01*
X984956Y924437D01*
X985650Y927028D01*
Y929712D01*
X984956Y932303D01*
X983614Y934627D01*
X981717Y936524D01*
X979393Y937866D01*
X976802Y938560D01*
D02*
G37*
G36*
X951402D02*
X948718D01*
X946127Y937866D01*
X943803Y936524D01*
X941906Y934627D01*
X940564Y932303D01*
X939870Y929712D01*
Y927028D01*
X940564Y924437D01*
X941906Y922113D01*
X943803Y920216D01*
X946127Y918874D01*
X948718Y918180D01*
X951402D01*
X953993Y918874D01*
X956317Y920216D01*
X958214Y922113D01*
X959556Y924437D01*
X960250Y927028D01*
Y929712D01*
X959556Y932303D01*
X958214Y934627D01*
X956317Y936524D01*
X953993Y937866D01*
X951402Y938560D01*
D02*
G37*
G36*
X926002D02*
X923318D01*
X920727Y937866D01*
X918403Y936524D01*
X916506Y934627D01*
X915164Y932303D01*
X914470Y929712D01*
Y927028D01*
X915164Y924437D01*
X916506Y922113D01*
X918403Y920216D01*
X920727Y918874D01*
X923318Y918180D01*
X926002D01*
X928593Y918874D01*
X930917Y920216D01*
X932814Y922113D01*
X934156Y924437D01*
X934850Y927028D01*
Y929712D01*
X934156Y932303D01*
X932814Y934627D01*
X930917Y936524D01*
X928593Y937866D01*
X926002Y938560D01*
D02*
G37*
G36*
X900602D02*
X897918D01*
X895327Y937866D01*
X893003Y936524D01*
X891106Y934627D01*
X889764Y932303D01*
X889070Y929712D01*
Y927028D01*
X889764Y924437D01*
X891106Y922113D01*
X893003Y920216D01*
X895327Y918874D01*
X897918Y918180D01*
X900602D01*
X903193Y918874D01*
X905517Y920216D01*
X907414Y922113D01*
X908756Y924437D01*
X909450Y927028D01*
Y929712D01*
X908756Y932303D01*
X907414Y934627D01*
X905517Y936524D01*
X903193Y937866D01*
X900602Y938560D01*
D02*
G37*
G36*
X731650Y927100D02*
X722730D01*
Y918180D01*
X722802D01*
X725393Y918874D01*
X727717Y920216D01*
X729614Y922113D01*
X730956Y924437D01*
X731650Y927028D01*
Y927100D01*
D02*
G37*
G36*
X720190D02*
X711270D01*
Y927028D01*
X711964Y924437D01*
X713306Y922113D01*
X715203Y920216D01*
X717527Y918874D01*
X720118Y918180D01*
X720190D01*
Y927100D01*
D02*
G37*
G36*
X697402Y938560D02*
X694718D01*
X692127Y937866D01*
X689803Y936524D01*
X687906Y934627D01*
X686564Y932303D01*
X685870Y929712D01*
Y927028D01*
X686564Y924437D01*
X687906Y922113D01*
X689803Y920216D01*
X692127Y918874D01*
X694718Y918180D01*
X697402D01*
X699993Y918874D01*
X702317Y920216D01*
X704214Y922113D01*
X705556Y924437D01*
X706250Y927028D01*
Y929712D01*
X705556Y932303D01*
X704214Y934627D01*
X702317Y936524D01*
X699993Y937866D01*
X697402Y938560D01*
D02*
G37*
G36*
X672002D02*
X669318D01*
X666727Y937866D01*
X664403Y936524D01*
X662506Y934627D01*
X661164Y932303D01*
X660470Y929712D01*
Y927028D01*
X661164Y924437D01*
X662506Y922113D01*
X664403Y920216D01*
X666727Y918874D01*
X669318Y918180D01*
X672002D01*
X674593Y918874D01*
X676917Y920216D01*
X678814Y922113D01*
X680156Y924437D01*
X680850Y927028D01*
Y929712D01*
X680156Y932303D01*
X678814Y934627D01*
X676917Y936524D01*
X674593Y937866D01*
X672002Y938560D01*
D02*
G37*
G36*
X646602D02*
X643919D01*
X641327Y937866D01*
X639003Y936524D01*
X637106Y934627D01*
X635765Y932303D01*
X635070Y929712D01*
Y927028D01*
X635765Y924437D01*
X637106Y922113D01*
X639003Y920216D01*
X641327Y918874D01*
X643919Y918180D01*
X646602D01*
X649193Y918874D01*
X651517Y920216D01*
X653414Y922113D01*
X654756Y924437D01*
X655450Y927028D01*
Y929712D01*
X654756Y932303D01*
X653414Y934627D01*
X651517Y936524D01*
X649193Y937866D01*
X646602Y938560D01*
D02*
G37*
G36*
X579250Y927100D02*
X570330D01*
Y918180D01*
X570402D01*
X572993Y918874D01*
X575317Y920216D01*
X577214Y922113D01*
X578556Y924437D01*
X579250Y927028D01*
Y927100D01*
D02*
G37*
G36*
X567790D02*
X558870D01*
Y927028D01*
X559565Y924437D01*
X560906Y922113D01*
X562803Y920216D01*
X565127Y918874D01*
X567719Y918180D01*
X567790D01*
Y927100D01*
D02*
G37*
G36*
X1543185Y932310D02*
X1540475D01*
X1537858Y931609D01*
X1535512Y930254D01*
X1533596Y928338D01*
X1532241Y925992D01*
X1531540Y923375D01*
Y920665D01*
X1532241Y918048D01*
X1533596Y915702D01*
X1535512Y913786D01*
X1537858Y912431D01*
X1540475Y911730D01*
X1543185D01*
X1545802Y912431D01*
X1548148Y913786D01*
X1550064Y915702D01*
X1551418Y918048D01*
X1552120Y920665D01*
Y923375D01*
X1551418Y925992D01*
X1550064Y928338D01*
X1548148Y930254D01*
X1545802Y931609D01*
X1543185Y932310D01*
D02*
G37*
G36*
X1971040Y895737D02*
Y887730D01*
X1979047D01*
X1978427Y890046D01*
X1977204Y892164D01*
X1975474Y893894D01*
X1973356Y895117D01*
X1971040Y895737D01*
D02*
G37*
G36*
X1968500D02*
X1966184Y895117D01*
X1964066Y893894D01*
X1962336Y892164D01*
X1961113Y890046D01*
X1960493Y887730D01*
X1968500D01*
Y895737D01*
D02*
G37*
G36*
X1517669Y901930D02*
X1515091D01*
X1512601Y901263D01*
X1510369Y899974D01*
X1508546Y898151D01*
X1507257Y895919D01*
X1506590Y893429D01*
Y890851D01*
X1507257Y888361D01*
X1508546Y886129D01*
X1510369Y884306D01*
X1512601Y883017D01*
X1515091Y882350D01*
X1517669D01*
X1520159Y883017D01*
X1522391Y884306D01*
X1524214Y886129D01*
X1525503Y888361D01*
X1526170Y890851D01*
Y893429D01*
X1525503Y895919D01*
X1524214Y898151D01*
X1522391Y899974D01*
X1520159Y901263D01*
X1517669Y901930D01*
D02*
G37*
G36*
X1804670Y889387D02*
Y881380D01*
X1812677D01*
X1812057Y883696D01*
X1810834Y885814D01*
X1809104Y887544D01*
X1806986Y888767D01*
X1804670Y889387D01*
D02*
G37*
G36*
X1802130D02*
X1799814Y888767D01*
X1797696Y887544D01*
X1795966Y885814D01*
X1794743Y883696D01*
X1794123Y881380D01*
X1802130D01*
Y889387D01*
D02*
G37*
G36*
X1979047Y885190D02*
X1971040D01*
Y877183D01*
X1973356Y877803D01*
X1975474Y879026D01*
X1977204Y880756D01*
X1978427Y882874D01*
X1979047Y885190D01*
D02*
G37*
G36*
X1968500D02*
X1960493D01*
X1961113Y882874D01*
X1962336Y880756D01*
X1964066Y879026D01*
X1966184Y877803D01*
X1968500Y877183D01*
Y885190D01*
D02*
G37*
G36*
X1637030Y881767D02*
Y873760D01*
X1645037D01*
X1644417Y876076D01*
X1643194Y878194D01*
X1641464Y879924D01*
X1639346Y881147D01*
X1637030Y881767D01*
D02*
G37*
G36*
X1634490D02*
X1632174Y881147D01*
X1630056Y879924D01*
X1628326Y878194D01*
X1627103Y876076D01*
X1626483Y873760D01*
X1634490D01*
Y881767D01*
D02*
G37*
G36*
X1812677Y878840D02*
X1804670D01*
Y870833D01*
X1806986Y871453D01*
X1809104Y872676D01*
X1810834Y874406D01*
X1812057Y876524D01*
X1812677Y878840D01*
D02*
G37*
G36*
X1802130D02*
X1794123D01*
X1794743Y876524D01*
X1795966Y874406D01*
X1797696Y872676D01*
X1799814Y871453D01*
X1802130Y870833D01*
Y878840D01*
D02*
G37*
G36*
X1728423Y889400D02*
X1725977D01*
X1723614Y888767D01*
X1721496Y887544D01*
X1719766Y885814D01*
X1718543Y883696D01*
X1717910Y881333D01*
Y878887D01*
X1718543Y876524D01*
X1719766Y874406D01*
X1721496Y872676D01*
X1723614Y871453D01*
X1725977Y870820D01*
X1728423D01*
X1730786Y871453D01*
X1732904Y872676D01*
X1734634Y874406D01*
X1735857Y876524D01*
X1736490Y878887D01*
Y881333D01*
X1735857Y883696D01*
X1734634Y885814D01*
X1732904Y887544D01*
X1730786Y888767D01*
X1728423Y889400D01*
D02*
G37*
G36*
X1645037Y871220D02*
X1637030D01*
Y863213D01*
X1639346Y863833D01*
X1641464Y865056D01*
X1643194Y866786D01*
X1644417Y868904D01*
X1645037Y871220D01*
D02*
G37*
G36*
X1634490D02*
X1626483D01*
X1627103Y868904D01*
X1628326Y866786D01*
X1630056Y865056D01*
X1632174Y863833D01*
X1634490Y863213D01*
Y871220D01*
D02*
G37*
G36*
X1560783Y881780D02*
X1558337D01*
X1555974Y881147D01*
X1553856Y879924D01*
X1552126Y878194D01*
X1550903Y876076D01*
X1550270Y873713D01*
Y871267D01*
X1550903Y868904D01*
X1552126Y866786D01*
X1553856Y865056D01*
X1555974Y863833D01*
X1558337Y863200D01*
X1560783D01*
X1563146Y863833D01*
X1565264Y865056D01*
X1566994Y866786D01*
X1568217Y868904D01*
X1568850Y871267D01*
Y873713D01*
X1568217Y876076D01*
X1566994Y878194D01*
X1565264Y879924D01*
X1563146Y881147D01*
X1560783Y881780D01*
D02*
G37*
G36*
X1690389Y878470D02*
X1687811D01*
X1685321Y877803D01*
X1683089Y876514D01*
X1681266Y874691D01*
X1679977Y872459D01*
X1679310Y869969D01*
Y867391D01*
X1679977Y864901D01*
X1681266Y862669D01*
X1683089Y860846D01*
X1685321Y859557D01*
X1687811Y858890D01*
X1690389D01*
X1692879Y859557D01*
X1695111Y860846D01*
X1696934Y862669D01*
X1698223Y864901D01*
X1698890Y867391D01*
Y869969D01*
X1698223Y872459D01*
X1696934Y874691D01*
X1695111Y876514D01*
X1692879Y877803D01*
X1690389Y878470D01*
D02*
G37*
G36*
X1517669Y875930D02*
X1515091D01*
X1512601Y875263D01*
X1510369Y873974D01*
X1508546Y872151D01*
X1507257Y869919D01*
X1506590Y867429D01*
Y864851D01*
X1507257Y862361D01*
X1508546Y860129D01*
X1510369Y858306D01*
X1512601Y857017D01*
X1515091Y856350D01*
X1517669D01*
X1520159Y857017D01*
X1522391Y858306D01*
X1524214Y860129D01*
X1525503Y862361D01*
X1526170Y864851D01*
Y867429D01*
X1525503Y869919D01*
X1524214Y872151D01*
X1522391Y873974D01*
X1520159Y875263D01*
X1517669Y875930D01*
D02*
G37*
G36*
X1979930Y1050414D02*
X964030D01*
X961552Y1049922D01*
X959452Y1048518D01*
X849494Y938560D01*
X847119D01*
X844527Y937866D01*
X842203Y936524D01*
X840306Y934627D01*
X838964Y932303D01*
X838270Y929712D01*
Y927028D01*
X838964Y924437D01*
X840306Y922113D01*
X842203Y920216D01*
X844527Y918874D01*
X847119Y918180D01*
X849802D01*
X852393Y918874D01*
X854717Y920216D01*
X856614Y922113D01*
X857956Y924437D01*
X858650Y927028D01*
Y929404D01*
X861803Y932557D01*
X864080Y931242D01*
X863670Y929712D01*
Y927028D01*
X864364Y924437D01*
X865706Y922113D01*
X867603Y920216D01*
X869927Y918874D01*
X872518Y918180D01*
X875202D01*
X877793Y918874D01*
X880117Y920216D01*
X882014Y922113D01*
X883356Y924437D01*
X884050Y927028D01*
Y929712D01*
X883356Y932303D01*
X882014Y934627D01*
X880117Y936524D01*
X877793Y937866D01*
X875202Y938560D01*
X872518D01*
X870988Y938150D01*
X869674Y940427D01*
X966712Y1037466D01*
X1977248D01*
X2003936Y1010778D01*
Y876188D01*
X1981600Y853852D01*
X1979060Y854904D01*
Y870350D01*
X1960480D01*
Y851770D01*
X1975926D01*
X1976978Y849230D01*
X1885300Y757552D01*
X1737454D01*
X1721460Y773546D01*
Y774620D01*
X1720844Y776919D01*
X1720584Y777370D01*
X1722051Y779910D01*
X1798980D01*
Y764390D01*
X1817060D01*
Y779910D01*
X1868807D01*
X1869096Y778831D01*
X1870287Y776769D01*
X1871970Y775086D01*
X1874031Y773896D01*
X1876330Y773280D01*
X1878710D01*
X1881010Y773896D01*
X1883071Y775086D01*
X1884754Y776769D01*
X1885944Y778831D01*
X1886560Y781130D01*
Y783510D01*
X1885944Y785809D01*
X1884754Y787871D01*
X1883071Y789554D01*
X1881010Y790744D01*
X1878710Y791360D01*
X1877439D01*
X1875934Y792366D01*
X1873456Y792858D01*
X924448D01*
X829535Y887772D01*
Y920434D01*
X831214Y922113D01*
X832556Y924437D01*
X833250Y927028D01*
Y929712D01*
X832556Y932303D01*
X831214Y934627D01*
X829317Y936524D01*
X826993Y937866D01*
X824402Y938560D01*
X821719D01*
X819127Y937866D01*
X816803Y936524D01*
X814906Y934627D01*
X813565Y932303D01*
X812870Y929712D01*
Y927028D01*
X813565Y924437D01*
X814906Y922113D01*
X816586Y920434D01*
Y885090D01*
X817078Y882612D01*
X818482Y880512D01*
X917188Y781806D01*
X919288Y780402D01*
X921766Y779910D01*
X1525472D01*
X1526153Y777370D01*
X1525260Y776854D01*
X1523577Y775171D01*
X1522386Y773109D01*
X1521770Y770810D01*
Y768430D01*
X1522386Y766131D01*
X1523577Y764069D01*
X1525260Y762386D01*
X1527321Y761196D01*
X1529620Y760580D01*
X1532000D01*
X1534299Y761196D01*
X1536361Y762386D01*
X1538044Y764069D01*
X1539234Y766131D01*
X1539850Y768430D01*
Y770810D01*
X1539234Y773109D01*
X1538044Y775171D01*
X1536361Y776854D01*
X1535468Y777370D01*
X1536148Y779910D01*
X1615348D01*
X1617370Y778660D01*
X1617370Y777370D01*
Y760580D01*
X1635450D01*
Y777370D01*
X1635450Y778660D01*
X1637473Y779910D01*
X1702790D01*
X1704256Y777370D01*
X1703996Y776919D01*
X1703380Y774620D01*
Y772240D01*
X1703996Y769941D01*
X1705186Y767879D01*
X1706870Y766196D01*
X1708931Y765006D01*
X1711230Y764390D01*
X1712304D01*
X1730194Y746500D01*
X1732295Y745096D01*
X1734772Y744604D01*
X1887982D01*
X1890460Y745096D01*
X1892560Y746500D01*
X2014988Y868928D01*
X2016392Y871028D01*
X2016884Y873506D01*
Y1013460D01*
X2016392Y1015938D01*
X2014988Y1018038D01*
X1984508Y1048518D01*
X1982408Y1049922D01*
X1979930Y1050414D01*
D02*
G37*
G36*
X1865250Y860090D02*
X1856730D01*
Y851570D01*
X1865250D01*
Y860090D01*
D02*
G37*
G36*
X1854190D02*
X1845670D01*
Y851570D01*
X1854190D01*
Y860090D01*
D02*
G37*
G36*
X1812690Y864000D02*
X1794110D01*
Y845420D01*
X1812690D01*
Y864000D01*
D02*
G37*
G36*
X1698890Y852470D02*
X1690370D01*
Y843950D01*
X1698890D01*
Y852470D01*
D02*
G37*
G36*
X1687830D02*
X1679310D01*
Y843950D01*
X1687830D01*
Y852470D01*
D02*
G37*
G36*
X1526170Y849930D02*
X1517650D01*
Y841410D01*
X1526170D01*
Y849930D01*
D02*
G37*
G36*
X1515110D02*
X1506590D01*
Y841410D01*
X1515110D01*
Y849930D01*
D02*
G37*
G36*
X1865250Y849030D02*
X1856730D01*
Y840510D01*
X1865250D01*
Y849030D01*
D02*
G37*
G36*
X1854190D02*
X1845670D01*
Y840510D01*
X1854190D01*
Y849030D01*
D02*
G37*
G36*
X1645050Y856380D02*
X1626470D01*
Y837800D01*
X1645050D01*
Y856380D01*
D02*
G37*
G36*
X1560783D02*
X1558337D01*
X1555974Y855747D01*
X1553856Y854524D01*
X1552126Y852794D01*
X1550903Y850676D01*
X1550270Y848313D01*
Y845867D01*
X1550903Y843504D01*
X1552126Y841386D01*
X1553856Y839656D01*
X1555974Y838433D01*
X1558337Y837800D01*
X1560783D01*
X1563146Y838433D01*
X1565264Y839656D01*
X1566994Y841386D01*
X1568217Y843504D01*
X1568850Y845867D01*
Y848313D01*
X1568217Y850676D01*
X1566994Y852794D01*
X1565264Y854524D01*
X1563146Y855747D01*
X1560783Y856380D01*
D02*
G37*
G36*
X1526170Y838870D02*
X1517650D01*
Y830350D01*
X1526170D01*
Y838870D01*
D02*
G37*
G36*
X1515110D02*
X1506590D01*
Y830350D01*
X1515110D01*
Y838870D01*
D02*
G37*
G36*
X1640920Y932310D02*
X1620340D01*
Y911730D01*
X1630051D01*
X1654490Y887291D01*
Y842010D01*
X1654752Y840021D01*
X1655520Y838167D01*
X1656741Y836575D01*
X1670965Y822351D01*
X1670965Y822351D01*
X1671656Y821821D01*
X1670770Y819300D01*
X1669664Y819300D01*
X1653850D01*
Y801220D01*
X1671930D01*
Y817079D01*
X1671930Y818640D01*
X1673878Y820483D01*
D01*
X1673878Y820483D01*
X1674411Y820362D01*
X1676400Y820100D01*
X1676400Y820100D01*
X1700276D01*
X1702265Y820362D01*
X1704119Y821130D01*
X1705711Y822351D01*
X1728910Y845550D01*
X1730786Y846053D01*
X1732904Y847276D01*
X1734634Y849006D01*
X1735857Y851124D01*
X1736490Y853487D01*
Y855933D01*
X1735857Y858296D01*
X1734634Y860414D01*
X1732904Y862144D01*
X1730786Y863367D01*
X1728423Y864000D01*
X1725977D01*
X1723614Y863367D01*
X1721496Y862144D01*
X1719766Y860414D01*
X1718543Y858296D01*
X1718040Y856420D01*
X1701237Y839616D01*
X1698890Y840588D01*
Y841410D01*
X1689100D01*
X1679310D01*
Y839064D01*
X1676963Y838092D01*
X1669862Y845194D01*
Y890474D01*
X1669862Y890474D01*
X1669600Y892463D01*
X1668832Y894317D01*
X1667611Y895909D01*
X1640920Y922599D01*
Y932310D01*
D02*
G37*
G36*
X1927320Y828190D02*
X1924940D01*
X1922641Y827574D01*
X1920580Y826384D01*
X1918896Y824701D01*
X1917706Y822639D01*
X1917090Y820340D01*
Y817960D01*
X1917706Y815661D01*
X1918896Y813599D01*
X1920580Y811916D01*
X1922641Y810726D01*
X1924940Y810110D01*
X1927320D01*
X1929620Y810726D01*
X1931681Y811916D01*
X1933364Y813599D01*
X1934554Y815661D01*
X1935170Y817960D01*
Y820340D01*
X1934554Y822639D01*
X1933364Y824701D01*
X1931681Y826384D01*
X1929620Y827574D01*
X1927320Y828190D01*
D02*
G37*
G36*
X1839570D02*
X1821490D01*
Y810110D01*
X1839570D01*
Y828190D01*
D02*
G37*
G36*
X1759680Y819300D02*
X1757300D01*
X1755001Y818684D01*
X1752940Y817494D01*
X1751257Y815811D01*
X1750066Y813749D01*
X1749450Y811450D01*
Y809070D01*
X1750066Y806771D01*
X1751257Y804709D01*
X1752940Y803026D01*
X1755001Y801836D01*
X1757300Y801220D01*
X1759680D01*
X1761980Y801836D01*
X1764041Y803026D01*
X1765724Y804709D01*
X1766914Y806771D01*
X1767530Y809070D01*
Y811450D01*
X1766914Y813749D01*
X1765724Y815811D01*
X1764041Y817494D01*
X1761980Y818684D01*
X1759680Y819300D01*
D02*
G37*
G36*
X1584420D02*
X1582040D01*
X1579741Y818684D01*
X1577680Y817494D01*
X1575997Y815811D01*
X1574806Y813749D01*
X1574190Y811450D01*
Y809070D01*
X1574806Y806771D01*
X1575997Y804709D01*
X1577680Y803026D01*
X1579741Y801836D01*
X1582040Y801220D01*
X1584420D01*
X1586720Y801836D01*
X1588781Y803026D01*
X1590464Y804709D01*
X1591654Y806771D01*
X1592270Y809070D01*
Y811450D01*
X1591654Y813749D01*
X1590464Y815811D01*
X1588781Y817494D01*
X1586720Y818684D01*
X1584420Y819300D01*
D02*
G37*
G36*
X1496670D02*
X1478590D01*
Y801220D01*
X1496670D01*
Y819300D01*
D02*
G37*
G36*
X1982160Y791360D02*
X1964080D01*
Y773280D01*
X1982160D01*
Y791360D01*
D02*
G37*
G36*
X773602Y938560D02*
X770919D01*
X768327Y937866D01*
X766003Y936524D01*
X764106Y934627D01*
X762765Y932303D01*
X762070Y929712D01*
Y927028D01*
X762765Y924437D01*
X764106Y922113D01*
X765786Y920434D01*
Y866040D01*
X766279Y863562D01*
X767682Y861462D01*
X918013Y711131D01*
X917041Y708784D01*
X901842D01*
X753335Y857292D01*
Y920434D01*
X755014Y922113D01*
X756356Y924437D01*
X757050Y927028D01*
Y929712D01*
X756356Y932303D01*
X755014Y934627D01*
X753117Y936524D01*
X750793Y937866D01*
X748202Y938560D01*
X745518D01*
X742927Y937866D01*
X740603Y936524D01*
X738706Y934627D01*
X737365Y932303D01*
X736670Y929712D01*
Y927028D01*
X737365Y924437D01*
X738706Y922113D01*
X740386Y920434D01*
Y854610D01*
X740879Y852132D01*
X742282Y850032D01*
X894582Y697732D01*
X896682Y696328D01*
X899160Y695836D01*
X1533559D01*
X1572920Y656474D01*
Y655400D01*
X1573536Y653101D01*
X1574727Y651039D01*
X1576410Y649356D01*
X1578471Y648166D01*
X1580770Y647550D01*
X1583150D01*
X1585450Y648166D01*
X1587511Y649356D01*
X1589194Y651039D01*
X1590384Y653101D01*
X1591000Y655400D01*
Y657780D01*
X1590384Y660079D01*
X1589194Y662141D01*
X1587511Y663824D01*
X1585450Y665014D01*
X1583150Y665630D01*
X1582077D01*
X1544057Y703649D01*
X1545029Y705996D01*
X1694848D01*
X1772310Y628534D01*
Y627460D01*
X1772926Y625161D01*
X1774117Y623099D01*
X1775800Y621416D01*
X1777861Y620226D01*
X1780160Y619610D01*
X1782540D01*
X1784840Y620226D01*
X1786901Y621416D01*
X1788584Y623099D01*
X1789774Y625161D01*
X1790390Y627460D01*
Y629840D01*
X1789774Y632139D01*
X1788584Y634201D01*
X1786901Y635884D01*
X1784840Y637074D01*
X1782540Y637690D01*
X1781467D01*
X1702108Y717048D01*
X1700008Y718452D01*
X1697530Y718944D01*
X928512D01*
X778735Y868722D01*
Y920434D01*
X780414Y922113D01*
X781756Y924437D01*
X782450Y927028D01*
Y929712D01*
X781756Y932303D01*
X780414Y934627D01*
X778517Y936524D01*
X776193Y937866D01*
X773602Y938560D01*
D02*
G37*
G36*
X900602Y684560D02*
X900530D01*
Y675640D01*
X909450D01*
Y675712D01*
X908756Y678303D01*
X907414Y680627D01*
X905517Y682524D01*
X903193Y683866D01*
X900602Y684560D01*
D02*
G37*
G36*
X897990D02*
X897918D01*
X895327Y683866D01*
X893003Y682524D01*
X891106Y680627D01*
X889764Y678303D01*
X889070Y675712D01*
Y675640D01*
X897990D01*
Y684560D01*
D02*
G37*
G36*
X799002D02*
X796319D01*
X793727Y683866D01*
X791403Y682524D01*
X789506Y680627D01*
X788165Y678303D01*
X787470Y675712D01*
Y673028D01*
X787880Y671498D01*
X785603Y670183D01*
X782450Y673336D01*
Y675712D01*
X781756Y678303D01*
X780414Y680627D01*
X778517Y682524D01*
X776193Y683866D01*
X773602Y684560D01*
X770919D01*
X768327Y683866D01*
X766003Y682524D01*
X764106Y680627D01*
X762765Y678303D01*
X762070Y675712D01*
Y673028D01*
X762765Y670437D01*
X764106Y668113D01*
X766003Y666216D01*
X768327Y664874D01*
X770919Y664180D01*
X773294D01*
X931512Y505962D01*
X933612Y504558D01*
X936090Y504066D01*
X982370D01*
Y501500D01*
X1000450D01*
Y519580D01*
X982370D01*
Y517014D01*
X938772D01*
X793474Y662313D01*
X794788Y664590D01*
X796319Y664180D01*
X799002D01*
X801593Y664874D01*
X803917Y666216D01*
X805814Y668113D01*
X807156Y670437D01*
X807850Y673028D01*
Y675712D01*
X807156Y678303D01*
X805814Y680627D01*
X803917Y682524D01*
X801593Y683866D01*
X799002Y684560D01*
D02*
G37*
G36*
X1002202D02*
X999519D01*
X996927Y683866D01*
X994603Y682524D01*
X992706Y680627D01*
X991365Y678303D01*
X990670Y675712D01*
Y673028D01*
X991365Y670437D01*
X992706Y668113D01*
X994603Y666216D01*
X996927Y664874D01*
X999519Y664180D01*
X1002202D01*
X1004793Y664874D01*
X1007117Y666216D01*
X1009014Y668113D01*
X1010356Y670437D01*
X1011050Y673028D01*
Y675712D01*
X1010356Y678303D01*
X1009014Y680627D01*
X1007117Y682524D01*
X1004793Y683866D01*
X1002202Y684560D01*
D02*
G37*
G36*
X976802D02*
X974118D01*
X971527Y683866D01*
X969203Y682524D01*
X967306Y680627D01*
X965965Y678303D01*
X965270Y675712D01*
Y673028D01*
X965965Y670437D01*
X967306Y668113D01*
X969203Y666216D01*
X971527Y664874D01*
X974118Y664180D01*
X976802D01*
X979393Y664874D01*
X981717Y666216D01*
X983614Y668113D01*
X984956Y670437D01*
X985650Y673028D01*
Y675712D01*
X984956Y678303D01*
X983614Y680627D01*
X981717Y682524D01*
X979393Y683866D01*
X976802Y684560D01*
D02*
G37*
G36*
X951402D02*
X948718D01*
X946127Y683866D01*
X943803Y682524D01*
X941906Y680627D01*
X940564Y678303D01*
X939870Y675712D01*
Y673028D01*
X940564Y670437D01*
X941906Y668113D01*
X943803Y666216D01*
X946127Y664874D01*
X948718Y664180D01*
X951402D01*
X953993Y664874D01*
X956317Y666216D01*
X958214Y668113D01*
X959556Y670437D01*
X960250Y673028D01*
Y675712D01*
X959556Y678303D01*
X958214Y680627D01*
X956317Y682524D01*
X953993Y683866D01*
X951402Y684560D01*
D02*
G37*
G36*
X926002D02*
X923318D01*
X920727Y683866D01*
X918403Y682524D01*
X916506Y680627D01*
X915164Y678303D01*
X914470Y675712D01*
Y673028D01*
X915164Y670437D01*
X916506Y668113D01*
X918403Y666216D01*
X920727Y664874D01*
X923318Y664180D01*
X926002D01*
X928593Y664874D01*
X930917Y666216D01*
X932814Y668113D01*
X934156Y670437D01*
X934850Y673028D01*
Y675712D01*
X934156Y678303D01*
X932814Y680627D01*
X930917Y682524D01*
X928593Y683866D01*
X926002Y684560D01*
D02*
G37*
G36*
X909450Y673100D02*
X900530D01*
Y664180D01*
X900602D01*
X903193Y664874D01*
X905517Y666216D01*
X907414Y668113D01*
X908756Y670437D01*
X909450Y673028D01*
Y673100D01*
D02*
G37*
G36*
X897990D02*
X889070D01*
Y673028D01*
X889764Y670437D01*
X891106Y668113D01*
X893003Y666216D01*
X895327Y664874D01*
X897918Y664180D01*
X897990D01*
Y673100D01*
D02*
G37*
G36*
X875202Y684560D02*
X872518D01*
X869927Y683866D01*
X867603Y682524D01*
X865706Y680627D01*
X864364Y678303D01*
X863670Y675712D01*
Y673028D01*
X864364Y670437D01*
X865706Y668113D01*
X867603Y666216D01*
X869927Y664874D01*
X872518Y664180D01*
X875202D01*
X877793Y664874D01*
X880117Y666216D01*
X882014Y668113D01*
X883356Y670437D01*
X884050Y673028D01*
Y675712D01*
X883356Y678303D01*
X882014Y680627D01*
X880117Y682524D01*
X877793Y683866D01*
X875202Y684560D01*
D02*
G37*
G36*
X849802D02*
X847119D01*
X844527Y683866D01*
X842203Y682524D01*
X840306Y680627D01*
X838964Y678303D01*
X838270Y675712D01*
Y673028D01*
X838964Y670437D01*
X840306Y668113D01*
X842203Y666216D01*
X844527Y664874D01*
X847119Y664180D01*
X849802D01*
X852393Y664874D01*
X854717Y666216D01*
X856614Y668113D01*
X857956Y670437D01*
X858650Y673028D01*
Y675712D01*
X857956Y678303D01*
X856614Y680627D01*
X854717Y682524D01*
X852393Y683866D01*
X849802Y684560D01*
D02*
G37*
G36*
X824402D02*
X821719D01*
X819127Y683866D01*
X816803Y682524D01*
X814906Y680627D01*
X813565Y678303D01*
X812870Y675712D01*
Y673028D01*
X813565Y670437D01*
X814906Y668113D01*
X816803Y666216D01*
X819127Y664874D01*
X821719Y664180D01*
X824402D01*
X826993Y664874D01*
X829317Y666216D01*
X831214Y668113D01*
X832556Y670437D01*
X833250Y673028D01*
Y675712D01*
X832556Y678303D01*
X831214Y680627D01*
X829317Y682524D01*
X826993Y683866D01*
X824402Y684560D01*
D02*
G37*
G36*
X748202D02*
X745518D01*
X742927Y683866D01*
X740603Y682524D01*
X738706Y680627D01*
X737365Y678303D01*
X736670Y675712D01*
Y673028D01*
X737365Y670437D01*
X738706Y668113D01*
X740603Y666216D01*
X742927Y664874D01*
X745518Y664180D01*
X748202D01*
X750793Y664874D01*
X753117Y666216D01*
X755014Y668113D01*
X756356Y670437D01*
X757050Y673028D01*
Y675712D01*
X756356Y678303D01*
X755014Y680627D01*
X753117Y682524D01*
X750793Y683866D01*
X748202Y684560D01*
D02*
G37*
G36*
X697402D02*
X694718D01*
X692127Y683866D01*
X689803Y682524D01*
X687906Y680627D01*
X686564Y678303D01*
X685870Y675712D01*
Y673028D01*
X686564Y670437D01*
X687906Y668113D01*
X689803Y666216D01*
X692127Y664874D01*
X694718Y664180D01*
X697402D01*
X699993Y664874D01*
X702317Y666216D01*
X704214Y668113D01*
X705556Y670437D01*
X706250Y673028D01*
Y675712D01*
X705556Y678303D01*
X704214Y680627D01*
X702317Y682524D01*
X699993Y683866D01*
X697402Y684560D01*
D02*
G37*
G36*
X672002D02*
X669318D01*
X666727Y683866D01*
X664403Y682524D01*
X662506Y680627D01*
X661164Y678303D01*
X660470Y675712D01*
Y673028D01*
X661164Y670437D01*
X662506Y668113D01*
X664403Y666216D01*
X666727Y664874D01*
X669318Y664180D01*
X672002D01*
X674593Y664874D01*
X676917Y666216D01*
X678814Y668113D01*
X680156Y670437D01*
X680850Y673028D01*
Y675712D01*
X680156Y678303D01*
X678814Y680627D01*
X676917Y682524D01*
X674593Y683866D01*
X672002Y684560D01*
D02*
G37*
G36*
X646602D02*
X643919D01*
X641327Y683866D01*
X639003Y682524D01*
X637106Y680627D01*
X635765Y678303D01*
X635070Y675712D01*
Y673028D01*
X635765Y670437D01*
X637106Y668113D01*
X639003Y666216D01*
X641327Y664874D01*
X643919Y664180D01*
X646602D01*
X649193Y664874D01*
X651517Y666216D01*
X653414Y668113D01*
X654756Y670437D01*
X655450Y673028D01*
Y675712D01*
X654756Y678303D01*
X653414Y680627D01*
X651517Y682524D01*
X649193Y683866D01*
X646602Y684560D01*
D02*
G37*
G36*
X621202D02*
X618518D01*
X615927Y683866D01*
X613603Y682524D01*
X611706Y680627D01*
X610364Y678303D01*
X609670Y675712D01*
Y673028D01*
X610364Y670437D01*
X611706Y668113D01*
X613603Y666216D01*
X615927Y664874D01*
X618518Y664180D01*
X621202D01*
X623793Y664874D01*
X626117Y666216D01*
X628014Y668113D01*
X629356Y670437D01*
X630050Y673028D01*
Y675712D01*
X629356Y678303D01*
X628014Y680627D01*
X626117Y682524D01*
X623793Y683866D01*
X621202Y684560D01*
D02*
G37*
G36*
X595802D02*
X593119D01*
X590527Y683866D01*
X588203Y682524D01*
X586306Y680627D01*
X584964Y678303D01*
X584270Y675712D01*
Y673028D01*
X584964Y670437D01*
X586306Y668113D01*
X588203Y666216D01*
X590527Y664874D01*
X593119Y664180D01*
X595802D01*
X598393Y664874D01*
X600717Y666216D01*
X602614Y668113D01*
X603956Y670437D01*
X604650Y673028D01*
Y675712D01*
X603956Y678303D01*
X602614Y680627D01*
X600717Y682524D01*
X598393Y683866D01*
X595802Y684560D01*
D02*
G37*
G36*
X799002Y938560D02*
X796319D01*
X793727Y937866D01*
X791403Y936524D01*
X789506Y934627D01*
X788165Y932303D01*
X787470Y929712D01*
Y927028D01*
X788165Y924437D01*
X789506Y922113D01*
X791186Y920434D01*
Y878740D01*
X791678Y876262D01*
X793082Y874162D01*
X937254Y729990D01*
X939354Y728586D01*
X941832Y728094D01*
X1867061D01*
X1964080Y631074D01*
Y630000D01*
X1964696Y627701D01*
X1965887Y625639D01*
X1967570Y623956D01*
X1969631Y622766D01*
X1971930Y622150D01*
X1974310D01*
X1976610Y622766D01*
X1978671Y623956D01*
X1980354Y625639D01*
X1981544Y627701D01*
X1982160Y630000D01*
Y632380D01*
X1981544Y634679D01*
X1980354Y636741D01*
X1978671Y638424D01*
X1976610Y639614D01*
X1974310Y640230D01*
X1973237D01*
X1874320Y739146D01*
X1872220Y740550D01*
X1869742Y741042D01*
X944514D01*
X804135Y881422D01*
Y920434D01*
X805814Y922113D01*
X807156Y924437D01*
X807850Y927028D01*
Y929712D01*
X807156Y932303D01*
X805814Y934627D01*
X803917Y936524D01*
X801593Y937866D01*
X799002Y938560D01*
D02*
G37*
G36*
X1886560Y640230D02*
X1868480D01*
Y622150D01*
X1886560D01*
Y640230D01*
D02*
G37*
G36*
X1694790Y637690D02*
X1676710D01*
Y619610D01*
X1694790D01*
Y637690D01*
D02*
G37*
G36*
X1651960Y627530D02*
X1633880D01*
Y609450D01*
X1651960D01*
Y627530D01*
D02*
G37*
G36*
X1548510D02*
X1546130D01*
X1543831Y626914D01*
X1541770Y625724D01*
X1540087Y624041D01*
X1538896Y621979D01*
X1538280Y619680D01*
Y617300D01*
X1538896Y615001D01*
X1540087Y612939D01*
X1541770Y611256D01*
X1543831Y610066D01*
X1546130Y609450D01*
X1548510D01*
X1550809Y610066D01*
X1552871Y611256D01*
X1554554Y612939D01*
X1555744Y615001D01*
X1556360Y617300D01*
Y619680D01*
X1555744Y621979D01*
X1554554Y624041D01*
X1552871Y625724D01*
X1550809Y626914D01*
X1548510Y627530D01*
D02*
G37*
G36*
X1630320Y598400D02*
X1621800D01*
Y589880D01*
X1630320D01*
Y598400D01*
D02*
G37*
G36*
X1619260D02*
X1610740D01*
Y589880D01*
X1619260D01*
Y598400D01*
D02*
G37*
G36*
X2031690Y605940D02*
X2013610D01*
Y587860D01*
X2031690D01*
Y605940D01*
D02*
G37*
G36*
X1928240D02*
X1925860D01*
X1923561Y605324D01*
X1921500Y604134D01*
X1919816Y602451D01*
X1918626Y600389D01*
X1918010Y598090D01*
Y595710D01*
X1918626Y593411D01*
X1919816Y591349D01*
X1921500Y589666D01*
X1923561Y588476D01*
X1925860Y587860D01*
X1928240D01*
X1930540Y588476D01*
X1932601Y589666D01*
X1934284Y591349D01*
X1935474Y593411D01*
X1936090Y595710D01*
Y598090D01*
X1935474Y600389D01*
X1934284Y602451D01*
X1932601Y604134D01*
X1930540Y605324D01*
X1928240Y605940D01*
D02*
G37*
G36*
X1851350D02*
X1833270D01*
Y587860D01*
X1851350D01*
Y605940D01*
D02*
G37*
G36*
X1747900D02*
X1745520D01*
X1743221Y605324D01*
X1741160Y604134D01*
X1739476Y602451D01*
X1738286Y600389D01*
X1737670Y598090D01*
Y595710D01*
X1738286Y593411D01*
X1739476Y591349D01*
X1741160Y589666D01*
X1743221Y588476D01*
X1745520Y587860D01*
X1747900D01*
X1750199Y588476D01*
X1752261Y589666D01*
X1753944Y591349D01*
X1755134Y593411D01*
X1755750Y595710D01*
Y598090D01*
X1755134Y600389D01*
X1753944Y602451D01*
X1752261Y604134D01*
X1750199Y605324D01*
X1747900Y605940D01*
D02*
G37*
G36*
X530774Y587940D02*
X530690D01*
Y578920D01*
X539710D01*
Y579005D01*
X539009Y581622D01*
X537654Y583968D01*
X535738Y585884D01*
X533392Y587239D01*
X530774Y587940D01*
D02*
G37*
G36*
X528150D02*
X528065D01*
X525448Y587239D01*
X523102Y585884D01*
X521186Y583968D01*
X519831Y581622D01*
X519130Y579005D01*
Y578920D01*
X528150D01*
Y587940D01*
D02*
G37*
G36*
X1630320Y587340D02*
X1621800D01*
Y578820D01*
X1630320D01*
Y587340D01*
D02*
G37*
G36*
X1619260D02*
X1610740D01*
Y578820D01*
X1619260D01*
Y587340D01*
D02*
G37*
G36*
X1831086Y584266D02*
X1788160D01*
X1786171Y584004D01*
X1784317Y583236D01*
X1782725Y582015D01*
X1771210Y570500D01*
X1769334Y569997D01*
X1767652Y569026D01*
X1755190D01*
X1755190Y569026D01*
X1753201Y568764D01*
X1751347Y567996D01*
X1749755Y566775D01*
X1749755Y566775D01*
X1693651Y510670D01*
X1683940D01*
Y500959D01*
X1674282Y491302D01*
X1624267D01*
X1622961Y493842D01*
X1623709Y495138D01*
X1624410Y497755D01*
Y500465D01*
X1623709Y503082D01*
X1622354Y505428D01*
X1620438Y507344D01*
X1618092Y508699D01*
X1615475Y509400D01*
X1612766D01*
X1610148Y508699D01*
X1607802Y507344D01*
X1605886Y505428D01*
X1604532Y503082D01*
X1603830Y500465D01*
Y497755D01*
X1604532Y495138D01*
X1605280Y493842D01*
X1603973Y491302D01*
X1543997D01*
X1535610Y499689D01*
Y509400D01*
X1515030D01*
Y488820D01*
X1524740D01*
X1535379Y478181D01*
X1536971Y476960D01*
X1538825Y476192D01*
X1540814Y475930D01*
X1677466D01*
X1679455Y476192D01*
X1681309Y476960D01*
X1682900Y478181D01*
X1694809Y490090D01*
X1704520D01*
Y499801D01*
X1758373Y553654D01*
X1767652D01*
X1769334Y552683D01*
X1771697Y552050D01*
X1774143D01*
X1776506Y552683D01*
X1778624Y553906D01*
X1780354Y555636D01*
X1781577Y557754D01*
X1782080Y559630D01*
X1791344Y568894D01*
X1827902D01*
X1854184Y542613D01*
Y508130D01*
X1851580D01*
Y487550D01*
X1872160D01*
Y490154D01*
X1893570D01*
X1895559Y490416D01*
X1897413Y491184D01*
X1899005Y492405D01*
X1945658Y539059D01*
X1947936Y537744D01*
X1947780Y537163D01*
Y534717D01*
X1948413Y532354D01*
X1949636Y530236D01*
X1951366Y528506D01*
X1953484Y527283D01*
X1955847Y526650D01*
X1958293D01*
X1960656Y527283D01*
X1962774Y528506D01*
X1964504Y530236D01*
X1965727Y532354D01*
X1966360Y534717D01*
Y537163D01*
X1965727Y539526D01*
X1964504Y541644D01*
X1962774Y543374D01*
X1960656Y544597D01*
X1958293Y545230D01*
X1955847D01*
X1955266Y545074D01*
X1953951Y547352D01*
X1958780Y552180D01*
X1960656Y552683D01*
X1962774Y553906D01*
X1964504Y555636D01*
X1965727Y557754D01*
X1966360Y560117D01*
Y562563D01*
X1965727Y564926D01*
X1964504Y567044D01*
X1962774Y568774D01*
X1960656Y569997D01*
X1958293Y570630D01*
X1955847D01*
X1953484Y569997D01*
X1951366Y568774D01*
X1949636Y567044D01*
X1948413Y564926D01*
X1947910Y563050D01*
X1890386Y505526D01*
X1872160D01*
Y508130D01*
X1869556D01*
Y532458D01*
X1872095Y532793D01*
X1872213Y532354D01*
X1873436Y530236D01*
X1875166Y528506D01*
X1877284Y527283D01*
X1879600Y526663D01*
Y535940D01*
Y545217D01*
X1877284Y544597D01*
X1875166Y543374D01*
X1873436Y541644D01*
X1872213Y539526D01*
X1872095Y539087D01*
X1869556Y539422D01*
Y545796D01*
X1869294Y547785D01*
X1868526Y549639D01*
X1867304Y551231D01*
X1836521Y582015D01*
X1834929Y583236D01*
X1833075Y584004D01*
X1831086Y584266D01*
D02*
G37*
G36*
X539710Y576380D02*
X530690D01*
Y567360D01*
X530774D01*
X533392Y568061D01*
X535738Y569416D01*
X537654Y571332D01*
X539009Y573678D01*
X539710Y576295D01*
Y576380D01*
D02*
G37*
G36*
X528150D02*
X519130D01*
Y576295D01*
X519831Y573678D01*
X521186Y571332D01*
X523102Y569416D01*
X525448Y568061D01*
X528065Y567360D01*
X528150D01*
Y576380D01*
D02*
G37*
G36*
X1576023Y585870D02*
X1573577D01*
X1571214Y585237D01*
X1569096Y584014D01*
X1567366Y582284D01*
X1566143Y580166D01*
X1565510Y577803D01*
Y575357D01*
X1566143Y572994D01*
X1567366Y570876D01*
X1569096Y569146D01*
X1571214Y567923D01*
X1573577Y567290D01*
X1576023D01*
X1578386Y567923D01*
X1580504Y569146D01*
X1582234Y570876D01*
X1583457Y572994D01*
X1584090Y575357D01*
Y577803D01*
X1583457Y580166D01*
X1582234Y582284D01*
X1580504Y584014D01*
X1578386Y585237D01*
X1576023Y585870D01*
D02*
G37*
G36*
X1495400Y665630D02*
X1477320D01*
Y647550D01*
X1478674D01*
Y588820D01*
X1478936Y586830D01*
X1479704Y584977D01*
X1480926Y583385D01*
X1489310Y575001D01*
Y567290D01*
X1507890D01*
Y585870D01*
X1500179D01*
X1494046Y592003D01*
Y647550D01*
X1495400D01*
Y665630D01*
D02*
G37*
G36*
X2006240Y569190D02*
X1997720D01*
Y560670D01*
X2006240D01*
Y569190D01*
D02*
G37*
G36*
X1995180D02*
X1986660D01*
Y560670D01*
X1995180D01*
Y569190D01*
D02*
G37*
G36*
X1825900Y565380D02*
X1817380D01*
Y556860D01*
X1825900D01*
Y565380D01*
D02*
G37*
G36*
X1814840D02*
X1806320D01*
Y556860D01*
X1814840D01*
Y565380D01*
D02*
G37*
G36*
X1621819Y572400D02*
X1619241D01*
X1616751Y571733D01*
X1614519Y570444D01*
X1612696Y568621D01*
X1611407Y566389D01*
X1610740Y563899D01*
Y561321D01*
X1611407Y558831D01*
X1612696Y556599D01*
X1614519Y554776D01*
X1616751Y553487D01*
X1619241Y552820D01*
X1621819D01*
X1624309Y553487D01*
X1626541Y554776D01*
X1628364Y556599D01*
X1629653Y558831D01*
X1630320Y561321D01*
Y563899D01*
X1629653Y566389D01*
X1628364Y568621D01*
X1626541Y570444D01*
X1624309Y571733D01*
X1621819Y572400D01*
D02*
G37*
G36*
X1499870Y560457D02*
Y552450D01*
X1507877D01*
X1507257Y554766D01*
X1506034Y556884D01*
X1504304Y558614D01*
X1502186Y559837D01*
X1499870Y560457D01*
D02*
G37*
G36*
X1497330D02*
X1495014Y559837D01*
X1492896Y558614D01*
X1491166Y556884D01*
X1489943Y554766D01*
X1489323Y552450D01*
X1497330D01*
Y560457D01*
D02*
G37*
G36*
X1890160Y570630D02*
X1871580D01*
Y552050D01*
X1890160D01*
Y570630D01*
D02*
G37*
G36*
X1706010D02*
X1687430D01*
Y552050D01*
X1706010D01*
Y570630D01*
D02*
G37*
G36*
X2006240Y558130D02*
X1997720D01*
Y549610D01*
X2006240D01*
Y558130D01*
D02*
G37*
G36*
X1995180D02*
X1986660D01*
Y549610D01*
X1995180D01*
Y558130D01*
D02*
G37*
G36*
X1825900Y554320D02*
X1817380D01*
Y545800D01*
X1825900D01*
Y554320D01*
D02*
G37*
G36*
X1814840D02*
X1806320D01*
Y545800D01*
X1814840D01*
Y554320D01*
D02*
G37*
G36*
X1507877Y549910D02*
X1499870D01*
Y541903D01*
X1502186Y542523D01*
X1504304Y543746D01*
X1506034Y545476D01*
X1507257Y547594D01*
X1507877Y549910D01*
D02*
G37*
G36*
X1497330D02*
X1489323D01*
X1489943Y547594D01*
X1491166Y545476D01*
X1492896Y543746D01*
X1495014Y542523D01*
X1497330Y541903D01*
Y549910D01*
D02*
G37*
G36*
X1576023Y560470D02*
X1573577D01*
X1571214Y559837D01*
X1569096Y558614D01*
X1567366Y556884D01*
X1566143Y554766D01*
X1565510Y552403D01*
Y549957D01*
X1566143Y547594D01*
X1567366Y545476D01*
X1569096Y543746D01*
X1571214Y542523D01*
X1573577Y541890D01*
X1576023D01*
X1578386Y542523D01*
X1580504Y543746D01*
X1582234Y545476D01*
X1583457Y547594D01*
X1584090Y549957D01*
Y552403D01*
X1583457Y554766D01*
X1582234Y556884D01*
X1580504Y558614D01*
X1578386Y559837D01*
X1576023Y560470D01*
D02*
G37*
G36*
X1882140Y545217D02*
Y537210D01*
X1890147D01*
X1889527Y539526D01*
X1888304Y541644D01*
X1886574Y543374D01*
X1884456Y544597D01*
X1882140Y545217D01*
D02*
G37*
G36*
X1697990D02*
Y537210D01*
X1705997D01*
X1705377Y539526D01*
X1704154Y541644D01*
X1702424Y543374D01*
X1700306Y544597D01*
X1697990Y545217D01*
D02*
G37*
G36*
X1695450D02*
X1693134Y544597D01*
X1691016Y543374D01*
X1689286Y541644D01*
X1688063Y539526D01*
X1687443Y537210D01*
X1695450D01*
Y545217D01*
D02*
G37*
G36*
X1621819Y546400D02*
X1619241D01*
X1616751Y545733D01*
X1614519Y544444D01*
X1612696Y542621D01*
X1611407Y540389D01*
X1610740Y537899D01*
Y535321D01*
X1611407Y532831D01*
X1612696Y530599D01*
X1614519Y528776D01*
X1616751Y527487D01*
X1619241Y526820D01*
X1621819D01*
X1624309Y527487D01*
X1626541Y528776D01*
X1628364Y530599D01*
X1629653Y532831D01*
X1630320Y535321D01*
Y537899D01*
X1629653Y540389D01*
X1628364Y542621D01*
X1626541Y544444D01*
X1624309Y545733D01*
X1621819Y546400D01*
D02*
G37*
G36*
X1890147Y534670D02*
X1882140D01*
Y526663D01*
X1884456Y527283D01*
X1886574Y528506D01*
X1888304Y530236D01*
X1889527Y532354D01*
X1890147Y534670D01*
D02*
G37*
G36*
X1705997D02*
X1697990D01*
Y526663D01*
X1700306Y527283D01*
X1702424Y528506D01*
X1704154Y530236D01*
X1705377Y532354D01*
X1705997Y534670D01*
D02*
G37*
G36*
X1695450D02*
X1687443D01*
X1688063Y532354D01*
X1689286Y530236D01*
X1691016Y528506D01*
X1693134Y527283D01*
X1695450Y526663D01*
Y534670D01*
D02*
G37*
G36*
X1774143Y545230D02*
X1771697D01*
X1769334Y544597D01*
X1767216Y543374D01*
X1765486Y541644D01*
X1764263Y539526D01*
X1763630Y537163D01*
Y534717D01*
X1764263Y532354D01*
X1765486Y530236D01*
X1767216Y528506D01*
X1769334Y527283D01*
X1771697Y526650D01*
X1774143D01*
X1776506Y527283D01*
X1778624Y528506D01*
X1780354Y530236D01*
X1781577Y532354D01*
X1782210Y534717D01*
Y537163D01*
X1781577Y539526D01*
X1780354Y541644D01*
X1778624Y543374D01*
X1776506Y544597D01*
X1774143Y545230D01*
D02*
G37*
G36*
X1997739Y543190D02*
X1995161D01*
X1992671Y542523D01*
X1990439Y541234D01*
X1988616Y539411D01*
X1987327Y537179D01*
X1986660Y534689D01*
Y532111D01*
X1987327Y529621D01*
X1988616Y527389D01*
X1990439Y525566D01*
X1992671Y524277D01*
X1995161Y523610D01*
X1997739D01*
X2000229Y524277D01*
X2002461Y525566D01*
X2004284Y527389D01*
X2005573Y529621D01*
X2006240Y532111D01*
Y534689D01*
X2005573Y537179D01*
X2004284Y539411D01*
X2002461Y541234D01*
X2000229Y542523D01*
X1997739Y543190D01*
D02*
G37*
G36*
X1817399Y539380D02*
X1814821D01*
X1812331Y538713D01*
X1810099Y537424D01*
X1808276Y535601D01*
X1806987Y533369D01*
X1806320Y530879D01*
Y528301D01*
X1806987Y525811D01*
X1808276Y523579D01*
X1810099Y521756D01*
X1812331Y520467D01*
X1814821Y519800D01*
X1817399D01*
X1819889Y520467D01*
X1822121Y521756D01*
X1823944Y523579D01*
X1825233Y525811D01*
X1825900Y528301D01*
Y530879D01*
X1825233Y533369D01*
X1823944Y535601D01*
X1822121Y537424D01*
X1819889Y538713D01*
X1817399Y539380D01*
D02*
G37*
G36*
X1997739Y517190D02*
X1995161D01*
X1992671Y516523D01*
X1990439Y515234D01*
X1990291Y515086D01*
X1960231D01*
X1960230Y515086D01*
X1958241Y514824D01*
X1956387Y514056D01*
X1954796Y512835D01*
X1950091Y508130D01*
X1949315D01*
X1946698Y507429D01*
X1944352Y506074D01*
X1942436Y504158D01*
X1941082Y501812D01*
X1940380Y499195D01*
Y496485D01*
X1941082Y493868D01*
X1942436Y491522D01*
X1944352Y489606D01*
X1946698Y488251D01*
X1949315Y487550D01*
X1952025D01*
X1954642Y488251D01*
X1956988Y489606D01*
X1958904Y491522D01*
X1960259Y493868D01*
X1960960Y496485D01*
Y497261D01*
X1963414Y499714D01*
X1990291D01*
X1990439Y499566D01*
X1992671Y498277D01*
X1995161Y497610D01*
X1997739D01*
X2000229Y498277D01*
X2002461Y499566D01*
X2004284Y501389D01*
X2005573Y503621D01*
X2006240Y506111D01*
Y508689D01*
X2005573Y511179D01*
X2004284Y513411D01*
X2002461Y515234D01*
X2000229Y516523D01*
X1997739Y517190D01*
D02*
G37*
G36*
X1817399Y513380D02*
X1814821D01*
X1812331Y512713D01*
X1810099Y511424D01*
X1809951Y511276D01*
X1801022D01*
X1799033Y511014D01*
X1797179Y510246D01*
X1795587Y509025D01*
X1794628Y508066D01*
X1789897D01*
X1789348Y508614D01*
X1787002Y509969D01*
X1784385Y510670D01*
X1781676D01*
X1779058Y509969D01*
X1776712Y508614D01*
X1774796Y506698D01*
X1773441Y504352D01*
X1772740Y501735D01*
Y499025D01*
X1773441Y496408D01*
X1774796Y494062D01*
X1776712Y492146D01*
X1779058Y490791D01*
X1781676Y490090D01*
X1784385D01*
X1787002Y490791D01*
X1789348Y492146D01*
X1789897Y492694D01*
X1797812D01*
X1799801Y492956D01*
X1801655Y493724D01*
X1803247Y494945D01*
X1804206Y495904D01*
X1809951D01*
X1810099Y495756D01*
X1812331Y494467D01*
X1814821Y493800D01*
X1817399D01*
X1819889Y494467D01*
X1822121Y495756D01*
X1823944Y497579D01*
X1825233Y499811D01*
X1825900Y502301D01*
Y504879D01*
X1825233Y507369D01*
X1823944Y509601D01*
X1822121Y511424D01*
X1819889Y512713D01*
X1817399Y513380D01*
D02*
G37*
G36*
X1027602Y684560D02*
X1024919D01*
X1022327Y683866D01*
X1020003Y682524D01*
X1018106Y680627D01*
X1016765Y678303D01*
X1016070Y675712D01*
Y673028D01*
X1016765Y670437D01*
X1018106Y668113D01*
X1018574Y667645D01*
Y619660D01*
X1018836Y617671D01*
X1019604Y615817D01*
X1020825Y614225D01*
X1140799Y494252D01*
X1139201Y492374D01*
X1139130Y492415D01*
X1137140Y493564D01*
X1135714Y493946D01*
X1124861Y504799D01*
X1123269Y506020D01*
X1121415Y506788D01*
X1119426Y507050D01*
X1015492D01*
X1013503Y506788D01*
X1011649Y506020D01*
X1010057Y504799D01*
X991734Y486476D01*
X977128D01*
X975850Y487214D01*
X973550Y487830D01*
X971170D01*
X968871Y487214D01*
X967592Y486476D01*
X930743D01*
X904616Y512603D01*
X904234Y514029D01*
X903044Y516091D01*
X901360Y517774D01*
X899299Y518964D01*
X897000Y519580D01*
X894620D01*
X892320Y518964D01*
X890259Y517774D01*
X888576Y516091D01*
X887386Y514029D01*
X887004Y512603D01*
X880942Y506542D01*
X862020D01*
Y522120D01*
X854809D01*
X729146Y647783D01*
Y667645D01*
X729614Y668113D01*
X730956Y670437D01*
X731650Y673028D01*
Y675712D01*
X730956Y678303D01*
X729614Y680627D01*
X727717Y682524D01*
X725393Y683866D01*
X722802Y684560D01*
X720118D01*
X717527Y683866D01*
X715203Y682524D01*
X713306Y680627D01*
X711964Y678303D01*
X711270Y675712D01*
Y673028D01*
X711964Y670437D01*
X713306Y668113D01*
X713774Y667645D01*
Y644600D01*
X714036Y642610D01*
X714804Y640757D01*
X716025Y639165D01*
X843940Y511251D01*
Y506542D01*
X774787D01*
X766186Y515143D01*
X765804Y516569D01*
X764613Y518631D01*
X762930Y520314D01*
X760869Y521504D01*
X758570Y522120D01*
X756190D01*
X753890Y521504D01*
X751829Y520314D01*
X750146Y518631D01*
X748956Y516569D01*
X748574Y515143D01*
X745862Y512432D01*
X723646D01*
X721657Y512170D01*
X719803Y511402D01*
X718211Y510181D01*
X698960Y490929D01*
X576746Y613143D01*
Y664180D01*
X579250D01*
Y684560D01*
X558870D01*
Y664180D01*
X561374D01*
Y609960D01*
X561636Y607970D01*
X562404Y606117D01*
X563625Y604525D01*
X690154Y477997D01*
X690536Y476571D01*
X691726Y474509D01*
X693409Y472826D01*
X694404Y472252D01*
X693723Y469712D01*
X680466D01*
X678477Y469450D01*
X676623Y468682D01*
X675031Y467461D01*
X675031Y467461D01*
X662940Y455369D01*
X611733Y506577D01*
X610141Y507798D01*
X608287Y508566D01*
X606298Y508828D01*
X584112D01*
X539710Y553229D01*
Y562940D01*
X519130D01*
Y542360D01*
X528840D01*
X575493Y495707D01*
X575493Y495707D01*
X577085Y494486D01*
X578939Y493718D01*
X580928Y493456D01*
X603114D01*
X652900Y443671D01*
Y443178D01*
X653584Y440625D01*
X654906Y438335D01*
X656775Y436466D01*
X659065Y435144D01*
X661618Y434460D01*
X664262D01*
X666815Y435144D01*
X669105Y436466D01*
X670974Y438335D01*
X672296Y440625D01*
X672980Y443178D01*
Y443671D01*
X681840Y452531D01*
X684380Y451479D01*
Y436270D01*
X702460D01*
Y437624D01*
X719954D01*
X721029Y436549D01*
X722621Y435328D01*
X724475Y434560D01*
X726464Y434298D01*
X728453Y434560D01*
X730307Y435328D01*
X731898Y436549D01*
X733230Y437880D01*
X735106Y438383D01*
X737224Y439606D01*
X738954Y441336D01*
X740177Y443454D01*
X740810Y445817D01*
Y448263D01*
X740177Y450626D01*
X739499Y451800D01*
X740729Y454340D01*
X747711D01*
X748941Y451800D01*
X748263Y450626D01*
X747643Y448310D01*
X756920D01*
X766197D01*
X765577Y450626D01*
X764899Y451800D01*
X766129Y454340D01*
X784541D01*
X785771Y451800D01*
X785093Y450626D01*
X784460Y448263D01*
Y445817D01*
X785093Y443454D01*
X786316Y441336D01*
X788046Y439606D01*
X790164Y438383D01*
X792527Y437750D01*
X794973D01*
X797336Y438383D01*
X799454Y439606D01*
X801184Y441336D01*
X802407Y443454D01*
X803040Y445817D01*
Y448263D01*
X802407Y450626D01*
X801729Y451800D01*
X802959Y454340D01*
X809941D01*
X811171Y451800D01*
X810493Y450626D01*
X809873Y448310D01*
X819150D01*
X828427D01*
X827807Y450626D01*
X827129Y451800D01*
X828359Y454340D01*
X844231D01*
X845461Y451800D01*
X844783Y450626D01*
X844150Y448263D01*
Y445817D01*
X844783Y443454D01*
X846006Y441336D01*
X847736Y439606D01*
X849854Y438383D01*
X852217Y437750D01*
X854663D01*
X857026Y438383D01*
X859144Y439606D01*
X860874Y441336D01*
X862097Y443454D01*
X862730Y445817D01*
Y448263D01*
X862097Y450626D01*
X861419Y451800D01*
X862649Y454340D01*
X869631D01*
X870861Y451800D01*
X870183Y450626D01*
X869563Y448310D01*
X878840D01*
X888117D01*
X887497Y450626D01*
X886819Y451800D01*
X888049Y454340D01*
X903921D01*
X905151Y451800D01*
X904473Y450626D01*
X903840Y448263D01*
Y445817D01*
X904473Y443454D01*
X905696Y441336D01*
X907426Y439606D01*
X909544Y438383D01*
X911907Y437750D01*
X914353D01*
X916716Y438383D01*
X918834Y439606D01*
X920564Y441336D01*
X921787Y443454D01*
X922420Y445817D01*
Y448263D01*
X921787Y450626D01*
X921109Y451800D01*
X922339Y454340D01*
X929321D01*
X930551Y451800D01*
X929873Y450626D01*
X929253Y448310D01*
X938530D01*
X947807D01*
X947187Y450626D01*
X946509Y451800D01*
X947739Y454340D01*
X986471D01*
X987701Y451800D01*
X987023Y450626D01*
X986390Y448263D01*
Y445817D01*
X987023Y443454D01*
X988246Y441336D01*
X989976Y439606D01*
X992094Y438383D01*
X994457Y437750D01*
X996903D01*
X999266Y438383D01*
X1001384Y439606D01*
X1003114Y441336D01*
X1004337Y443454D01*
X1004970Y445817D01*
Y448263D01*
X1004337Y450626D01*
X1003659Y451800D01*
X1004889Y454340D01*
X1011871D01*
X1013101Y451800D01*
X1012423Y450626D01*
X1011803Y448310D01*
X1021080D01*
X1030357D01*
X1029737Y450626D01*
X1029059Y451800D01*
X1030289Y454340D01*
X1046161D01*
X1047391Y451800D01*
X1046713Y450626D01*
X1046080Y448263D01*
Y445817D01*
X1046713Y443454D01*
X1047936Y441336D01*
X1049666Y439606D01*
X1051784Y438383D01*
X1054147Y437750D01*
X1056593D01*
X1058956Y438383D01*
X1061074Y439606D01*
X1062804Y441336D01*
X1064027Y443454D01*
X1064660Y445817D01*
Y448263D01*
X1064027Y450626D01*
X1063349Y451800D01*
X1064579Y454340D01*
X1071561D01*
X1072791Y451800D01*
X1072113Y450626D01*
X1071493Y448310D01*
X1080770D01*
Y447040D01*
X1082040D01*
Y437763D01*
X1084356Y438383D01*
X1086474Y439606D01*
X1088204Y441336D01*
X1089427Y443454D01*
X1089433Y443477D01*
X1092231Y444455D01*
X1093404Y443562D01*
Y367030D01*
X1093666Y365041D01*
X1094434Y363187D01*
X1095655Y361595D01*
X1112165Y345085D01*
X1113757Y343864D01*
X1115611Y343096D01*
X1117600Y342834D01*
X1117600Y342834D01*
X1123950D01*
X1125939Y343096D01*
X1127793Y343864D01*
X1129385Y345085D01*
X1159865Y375565D01*
X1161086Y377157D01*
X1161854Y379011D01*
X1162116Y381000D01*
Y412106D01*
X1180058Y430048D01*
X1181461Y429623D01*
X1182490Y428889D01*
Y426668D01*
X1183174Y424115D01*
X1184496Y421825D01*
X1186365Y419956D01*
X1188655Y418634D01*
X1191208Y417950D01*
X1193852D01*
X1196405Y418634D01*
X1198695Y419956D01*
X1200564Y421825D01*
X1201886Y424115D01*
X1202570Y426668D01*
Y429312D01*
X1201886Y431865D01*
X1200564Y434155D01*
X1198695Y436024D01*
X1196405Y437346D01*
X1193852Y438030D01*
X1191631D01*
X1190897Y439058D01*
X1190471Y440462D01*
X1193359Y443350D01*
X1193852D01*
X1196405Y444034D01*
X1198695Y445356D01*
X1200564Y447225D01*
X1201886Y449515D01*
X1202570Y452068D01*
Y452561D01*
X1209224Y459215D01*
X1218242D01*
X1219521Y458476D01*
X1221820Y457860D01*
X1224200D01*
X1226499Y458476D01*
X1228561Y459666D01*
X1230244Y461350D01*
X1231434Y463411D01*
X1232050Y465710D01*
Y468090D01*
X1231434Y470390D01*
X1230244Y472451D01*
X1228561Y474134D01*
X1226499Y475324D01*
X1224200Y475940D01*
X1221820D01*
X1219521Y475324D01*
X1218242Y474586D01*
X1206040D01*
X1204051Y474324D01*
X1202197Y473556D01*
X1200606Y472335D01*
X1192530Y464259D01*
X1033946Y622844D01*
Y667645D01*
X1034414Y668113D01*
X1035756Y670437D01*
X1036450Y673028D01*
Y675712D01*
X1035756Y678303D01*
X1034414Y680627D01*
X1032517Y682524D01*
X1030193Y683866D01*
X1027602Y684560D01*
D02*
G37*
G36*
X1318180Y497530D02*
X1315800D01*
X1313501Y496914D01*
X1311439Y495724D01*
X1309756Y494041D01*
X1308566Y491980D01*
X1307950Y489680D01*
Y487300D01*
X1308566Y485001D01*
X1309756Y482940D01*
X1311439Y481256D01*
X1313501Y480066D01*
X1315800Y479450D01*
X1318180D01*
X1320479Y480066D01*
X1322541Y481256D01*
X1324224Y482940D01*
X1325414Y485001D01*
X1326030Y487300D01*
Y489680D01*
X1325414Y491980D01*
X1324224Y494041D01*
X1322541Y495724D01*
X1320479Y496914D01*
X1318180Y497530D01*
D02*
G37*
G36*
X1462960Y470860D02*
X1460580D01*
X1458281Y470244D01*
X1456219Y469054D01*
X1454536Y467371D01*
X1453346Y465310D01*
X1452730Y463010D01*
Y460630D01*
X1453346Y458331D01*
X1454536Y456270D01*
X1456219Y454586D01*
X1458281Y453396D01*
X1460580Y452780D01*
X1462960D01*
X1465259Y453396D01*
X1467321Y454586D01*
X1469004Y456270D01*
X1470194Y458331D01*
X1470810Y460630D01*
Y463010D01*
X1470194Y465310D01*
X1469004Y467371D01*
X1467321Y469054D01*
X1465259Y470244D01*
X1462960Y470860D01*
D02*
G37*
G36*
X1276270D02*
X1273890D01*
X1271591Y470244D01*
X1269529Y469054D01*
X1267846Y467371D01*
X1266656Y465310D01*
X1266040Y463010D01*
Y460630D01*
X1266656Y458331D01*
X1267846Y456270D01*
X1269529Y454586D01*
X1271591Y453396D01*
X1273890Y452780D01*
X1276270D01*
X1278569Y453396D01*
X1280631Y454586D01*
X1282314Y456270D01*
X1283504Y458331D01*
X1284120Y460630D01*
Y463010D01*
X1283504Y465310D01*
X1282314Y467371D01*
X1280631Y469054D01*
X1278569Y470244D01*
X1276270Y470860D01*
D02*
G37*
G36*
X1030357Y445770D02*
X1022350D01*
Y437763D01*
X1024666Y438383D01*
X1026784Y439606D01*
X1028514Y441336D01*
X1029737Y443454D01*
X1030357Y445770D01*
D02*
G37*
G36*
X947807D02*
X939800D01*
Y437763D01*
X942116Y438383D01*
X944234Y439606D01*
X945964Y441336D01*
X947187Y443454D01*
X947807Y445770D01*
D02*
G37*
G36*
X888117D02*
X880110D01*
Y437763D01*
X882426Y438383D01*
X884544Y439606D01*
X886274Y441336D01*
X887497Y443454D01*
X888117Y445770D01*
D02*
G37*
G36*
X828427D02*
X820420D01*
Y437763D01*
X822736Y438383D01*
X824854Y439606D01*
X826584Y441336D01*
X827807Y443454D01*
X828427Y445770D01*
D02*
G37*
G36*
X766197D02*
X758190D01*
Y437763D01*
X760506Y438383D01*
X762624Y439606D01*
X764354Y441336D01*
X765577Y443454D01*
X766197Y445770D01*
D02*
G37*
G36*
X1079500D02*
X1071493D01*
X1072113Y443454D01*
X1073336Y441336D01*
X1075066Y439606D01*
X1077184Y438383D01*
X1079500Y437763D01*
Y445770D01*
D02*
G37*
G36*
X937260D02*
X929253D01*
X929873Y443454D01*
X931096Y441336D01*
X932826Y439606D01*
X934944Y438383D01*
X937260Y437763D01*
Y445770D01*
D02*
G37*
G36*
X817880D02*
X809873D01*
X810493Y443454D01*
X811716Y441336D01*
X813446Y439606D01*
X815564Y438383D01*
X817880Y437763D01*
Y445770D01*
D02*
G37*
G36*
X755650D02*
X747643D01*
X748263Y443454D01*
X749486Y441336D01*
X751216Y439606D01*
X753334Y438383D01*
X755650Y437763D01*
Y445770D01*
D02*
G37*
G36*
X1019810D02*
X1011803D01*
X1012423Y443454D01*
X1013646Y441336D01*
X1015376Y439606D01*
X1017494Y438383D01*
X1019810Y437763D01*
Y445770D01*
D02*
G37*
G36*
X877570D02*
X869563D01*
X870183Y443454D01*
X871406Y441336D01*
X873136Y439606D01*
X875254Y438383D01*
X877570Y437763D01*
Y445770D01*
D02*
G37*
G36*
X1922620Y461490D02*
X1897540D01*
Y436410D01*
X1922620D01*
Y461490D01*
D02*
G37*
G36*
X1752440D02*
X1727360D01*
Y436410D01*
X1752440D01*
Y461490D01*
D02*
G37*
G36*
X1581950Y460610D02*
X1556870D01*
Y435530D01*
X1581950D01*
Y460610D01*
D02*
G37*
G36*
X596780Y454540D02*
X576700D01*
Y434460D01*
X596780D01*
Y454540D01*
D02*
G37*
G36*
X1356240Y448190D02*
X1336160D01*
Y428110D01*
X1356240D01*
Y448190D01*
D02*
G37*
G36*
X1971731Y441490D02*
X1968429D01*
X1965240Y440635D01*
X1962380Y438985D01*
X1960045Y436650D01*
X1958394Y433790D01*
X1957540Y430601D01*
Y427299D01*
X1958394Y424110D01*
X1960045Y421250D01*
X1962380Y418916D01*
X1965240Y417265D01*
X1968429Y416410D01*
X1971731D01*
X1974920Y417265D01*
X1977780Y418916D01*
X1980114Y421250D01*
X1981765Y424110D01*
X1982620Y427299D01*
Y430601D01*
X1981765Y433790D01*
X1980114Y436650D01*
X1977780Y438985D01*
X1974920Y440635D01*
X1971731Y441490D01*
D02*
G37*
G36*
X1851731D02*
X1848429D01*
X1845240Y440635D01*
X1842380Y438985D01*
X1840046Y436650D01*
X1838395Y433790D01*
X1837540Y430601D01*
Y427299D01*
X1838395Y424110D01*
X1840046Y421250D01*
X1842380Y418916D01*
X1845240Y417265D01*
X1848429Y416410D01*
X1851731D01*
X1854920Y417265D01*
X1857780Y418916D01*
X1860115Y421250D01*
X1861765Y424110D01*
X1862620Y427299D01*
Y430601D01*
X1861765Y433790D01*
X1860115Y436650D01*
X1857780Y438985D01*
X1854920Y440635D01*
X1851731Y441490D01*
D02*
G37*
G36*
X1801551D02*
X1798249D01*
X1795060Y440635D01*
X1792200Y438985D01*
X1789865Y436650D01*
X1788215Y433790D01*
X1787360Y430601D01*
Y427299D01*
X1788215Y424110D01*
X1789865Y421250D01*
X1792200Y418916D01*
X1795060Y417265D01*
X1798249Y416410D01*
X1801551D01*
X1804740Y417265D01*
X1807600Y418916D01*
X1809934Y421250D01*
X1811585Y424110D01*
X1812440Y427299D01*
Y430601D01*
X1811585Y433790D01*
X1809934Y436650D01*
X1807600Y438985D01*
X1804740Y440635D01*
X1801551Y441490D01*
D02*
G37*
G36*
X1681551D02*
X1678249D01*
X1675060Y440635D01*
X1672200Y438985D01*
X1669866Y436650D01*
X1668215Y433790D01*
X1667360Y430601D01*
Y427299D01*
X1668215Y424110D01*
X1669866Y421250D01*
X1672200Y418916D01*
X1675060Y417265D01*
X1678249Y416410D01*
X1681551D01*
X1684740Y417265D01*
X1687600Y418916D01*
X1689935Y421250D01*
X1691586Y424110D01*
X1692440Y427299D01*
Y430601D01*
X1691586Y433790D01*
X1689935Y436650D01*
X1687600Y438985D01*
X1684740Y440635D01*
X1681551Y441490D01*
D02*
G37*
G36*
X1631061Y440610D02*
X1627759D01*
X1624570Y439755D01*
X1621710Y438104D01*
X1619375Y435770D01*
X1617725Y432910D01*
X1616870Y429721D01*
Y426419D01*
X1617725Y423229D01*
X1619375Y420370D01*
X1621710Y418035D01*
X1624570Y416384D01*
X1627759Y415530D01*
X1631061D01*
X1634250Y416384D01*
X1637110Y418035D01*
X1639444Y420370D01*
X1641095Y423229D01*
X1641950Y426419D01*
Y429721D01*
X1641095Y432910D01*
X1639444Y435770D01*
X1637110Y438104D01*
X1634250Y439755D01*
X1631061Y440610D01*
D02*
G37*
G36*
X1423722Y448190D02*
X1421078D01*
X1418525Y447506D01*
X1416235Y446184D01*
X1414366Y444315D01*
X1413044Y442025D01*
X1412360Y439472D01*
Y436828D01*
X1413044Y434275D01*
X1414366Y431985D01*
X1416235Y430116D01*
X1418525Y428794D01*
X1421078Y428110D01*
X1421571D01*
X1424458Y425222D01*
X1424033Y423819D01*
X1423299Y422790D01*
X1421078D01*
X1418525Y422106D01*
X1416235Y420784D01*
X1414366Y418915D01*
X1413044Y416625D01*
X1412360Y414072D01*
Y411428D01*
X1413044Y408875D01*
X1414366Y406585D01*
X1416235Y404716D01*
X1418525Y403394D01*
X1421078Y402710D01*
X1423722D01*
X1426275Y403394D01*
X1428565Y404716D01*
X1430434Y406585D01*
X1431756Y408875D01*
X1432440Y411428D01*
Y414072D01*
X1431756Y416625D01*
X1430948Y418024D01*
X1432345Y420390D01*
X1432359Y420400D01*
X1432480Y420384D01*
X1432480Y420384D01*
X1499368D01*
X1499376Y420370D01*
X1501711Y418035D01*
X1504570Y416384D01*
X1507759Y415530D01*
X1511061D01*
X1514250Y416384D01*
X1517110Y418035D01*
X1519445Y420370D01*
X1521096Y423229D01*
X1521950Y426419D01*
Y429721D01*
X1521096Y432910D01*
X1519445Y435770D01*
X1517110Y438104D01*
X1514250Y439755D01*
X1511061Y440610D01*
X1507759D01*
X1504570Y439755D01*
X1501711Y438104D01*
X1499376Y435770D01*
X1499368Y435756D01*
X1435664D01*
X1432440Y438979D01*
Y439472D01*
X1431756Y442025D01*
X1430434Y444315D01*
X1428565Y446184D01*
X1426275Y447506D01*
X1423722Y448190D01*
D02*
G37*
G36*
X664262Y429140D02*
X661618D01*
X659065Y428456D01*
X656775Y427134D01*
X654906Y425265D01*
X653584Y422975D01*
X652900Y420422D01*
Y417778D01*
X653584Y415225D01*
X654906Y412935D01*
X656775Y411066D01*
X659065Y409744D01*
X661618Y409060D01*
X664262D01*
X666815Y409744D01*
X669105Y411066D01*
X670974Y412935D01*
X672296Y415225D01*
X672980Y417778D01*
Y420422D01*
X672296Y422975D01*
X670974Y425265D01*
X669105Y427134D01*
X666815Y428456D01*
X664262Y429140D01*
D02*
G37*
G36*
X1347522Y422790D02*
X1344878D01*
X1342325Y422106D01*
X1340035Y420784D01*
X1339687Y420436D01*
X1336850D01*
X1334861Y420174D01*
X1333007Y419406D01*
X1331415Y418185D01*
X1315161Y401930D01*
X1307950D01*
Y383850D01*
X1326030D01*
Y391061D01*
X1339860Y404891D01*
X1340035Y404716D01*
X1342325Y403394D01*
X1344878Y402710D01*
X1347522D01*
X1350075Y403394D01*
X1352365Y404716D01*
X1354234Y406585D01*
X1355556Y408875D01*
X1356240Y411428D01*
Y414072D01*
X1355556Y416625D01*
X1354234Y418915D01*
X1352365Y420784D01*
X1350075Y422106D01*
X1347522Y422790D01*
D02*
G37*
G36*
X588062Y403740D02*
X588010D01*
Y394970D01*
X596780D01*
Y395022D01*
X596096Y397575D01*
X594774Y399865D01*
X592905Y401734D01*
X590615Y403056D01*
X588062Y403740D01*
D02*
G37*
G36*
X585470D02*
X585418D01*
X582865Y403056D01*
X580575Y401734D01*
X578706Y399865D01*
X577384Y397575D01*
X576700Y395022D01*
Y394970D01*
X585470D01*
Y403740D01*
D02*
G37*
G36*
X1193852Y412630D02*
X1191208D01*
X1188655Y411946D01*
X1186365Y410624D01*
X1184496Y408755D01*
X1183174Y406465D01*
X1182490Y403912D01*
Y401268D01*
X1183174Y398715D01*
X1184496Y396425D01*
X1186365Y394556D01*
X1188655Y393234D01*
X1191208Y392550D01*
X1193852D01*
X1196405Y393234D01*
X1198695Y394556D01*
X1200564Y396425D01*
X1201886Y398715D01*
X1202570Y401268D01*
Y403912D01*
X1201886Y406465D01*
X1200564Y408755D01*
X1198695Y410624D01*
X1196405Y411946D01*
X1193852Y412630D01*
D02*
G37*
G36*
X1347522Y397390D02*
X1347470D01*
Y388620D01*
X1356240D01*
Y388672D01*
X1355556Y391225D01*
X1354234Y393515D01*
X1352365Y395384D01*
X1350075Y396706D01*
X1347522Y397390D01*
D02*
G37*
G36*
X1344930D02*
X1344878D01*
X1342325Y396706D01*
X1340035Y395384D01*
X1338166Y393515D01*
X1336844Y391225D01*
X1336160Y388672D01*
Y388620D01*
X1344930D01*
Y397390D01*
D02*
G37*
G36*
X664262Y403740D02*
X661618D01*
X659065Y403056D01*
X656775Y401734D01*
X654906Y399865D01*
X653584Y397575D01*
X652900Y395022D01*
Y392378D01*
X653584Y389825D01*
X654906Y387535D01*
X656775Y385666D01*
X659065Y384344D01*
X661618Y383660D01*
X664262D01*
X666815Y384344D01*
X669105Y385666D01*
X670974Y387535D01*
X672296Y389825D01*
X672980Y392378D01*
Y395022D01*
X672296Y397575D01*
X670974Y399865D01*
X669105Y401734D01*
X666815Y403056D01*
X664262Y403740D01*
D02*
G37*
G36*
X596780Y392430D02*
X588010D01*
Y383660D01*
X588062D01*
X590615Y384344D01*
X592905Y385666D01*
X594774Y387535D01*
X596096Y389825D01*
X596780Y392378D01*
Y392430D01*
D02*
G37*
G36*
X585470D02*
X576700D01*
Y392378D01*
X577384Y389825D01*
X578706Y387535D01*
X580575Y385666D01*
X582865Y384344D01*
X585418Y383660D01*
X585470D01*
Y392430D01*
D02*
G37*
G36*
X1193852Y387230D02*
X1193800D01*
Y378460D01*
X1202570D01*
Y378512D01*
X1201886Y381065D01*
X1200564Y383355D01*
X1198695Y385224D01*
X1196405Y386546D01*
X1193852Y387230D01*
D02*
G37*
G36*
X1191260D02*
X1191208D01*
X1188655Y386546D01*
X1186365Y385224D01*
X1184496Y383355D01*
X1183174Y381065D01*
X1182490Y378512D01*
Y378460D01*
X1191260D01*
Y387230D01*
D02*
G37*
G36*
X1423722Y397390D02*
X1421078D01*
X1418525Y396706D01*
X1416235Y395384D01*
X1414366Y393515D01*
X1413044Y391225D01*
X1412360Y388672D01*
Y386028D01*
X1413044Y383475D01*
X1414366Y381185D01*
X1416235Y379316D01*
X1418525Y377994D01*
X1421078Y377310D01*
X1423722D01*
X1426275Y377994D01*
X1428565Y379316D01*
X1430434Y381185D01*
X1431756Y383475D01*
X1432440Y386028D01*
Y388672D01*
X1431756Y391225D01*
X1430434Y393515D01*
X1428565Y395384D01*
X1426275Y396706D01*
X1423722Y397390D01*
D02*
G37*
G36*
X1356240Y386080D02*
X1347470D01*
Y377310D01*
X1347522D01*
X1350075Y377994D01*
X1352365Y379316D01*
X1354234Y381185D01*
X1355556Y383475D01*
X1356240Y386028D01*
Y386080D01*
D02*
G37*
G36*
X1344930D02*
X1336160D01*
Y386028D01*
X1336844Y383475D01*
X1338166Y381185D01*
X1340035Y379316D01*
X1342325Y377994D01*
X1344878Y377310D01*
X1344930D01*
Y386080D01*
D02*
G37*
G36*
X1082040Y380117D02*
Y372110D01*
X1090047D01*
X1089427Y374426D01*
X1088204Y376544D01*
X1086474Y378274D01*
X1084356Y379497D01*
X1082040Y380117D01*
D02*
G37*
G36*
X1022350D02*
Y372110D01*
X1030357D01*
X1029737Y374426D01*
X1028514Y376544D01*
X1026784Y378274D01*
X1024666Y379497D01*
X1022350Y380117D01*
D02*
G37*
G36*
X939800D02*
Y372110D01*
X947807D01*
X947187Y374426D01*
X945964Y376544D01*
X944234Y378274D01*
X942116Y379497D01*
X939800Y380117D01*
D02*
G37*
G36*
X880110D02*
Y372110D01*
X888117D01*
X887497Y374426D01*
X886274Y376544D01*
X884544Y378274D01*
X882426Y379497D01*
X880110Y380117D01*
D02*
G37*
G36*
X820420D02*
Y372110D01*
X828427D01*
X827807Y374426D01*
X826584Y376544D01*
X824854Y378274D01*
X822736Y379497D01*
X820420Y380117D01*
D02*
G37*
G36*
X758190D02*
Y372110D01*
X766197D01*
X765577Y374426D01*
X764354Y376544D01*
X762624Y378274D01*
X760506Y379497D01*
X758190Y380117D01*
D02*
G37*
G36*
X1079500D02*
X1077184Y379497D01*
X1075066Y378274D01*
X1073336Y376544D01*
X1072113Y374426D01*
X1071493Y372110D01*
X1079500D01*
Y380117D01*
D02*
G37*
G36*
X1019810D02*
X1017494Y379497D01*
X1015376Y378274D01*
X1013646Y376544D01*
X1012423Y374426D01*
X1011803Y372110D01*
X1019810D01*
Y380117D01*
D02*
G37*
G36*
X937260D02*
X934944Y379497D01*
X932826Y378274D01*
X931096Y376544D01*
X929873Y374426D01*
X929253Y372110D01*
X937260D01*
Y380117D01*
D02*
G37*
G36*
X877570D02*
X875254Y379497D01*
X873136Y378274D01*
X871406Y376544D01*
X870183Y374426D01*
X869563Y372110D01*
X877570D01*
Y380117D01*
D02*
G37*
G36*
X817880D02*
X815564Y379497D01*
X813446Y378274D01*
X811716Y376544D01*
X810493Y374426D01*
X809873Y372110D01*
X817880D01*
Y380117D01*
D02*
G37*
G36*
X755650D02*
X753334Y379497D01*
X751216Y378274D01*
X749486Y376544D01*
X748263Y374426D01*
X747643Y372110D01*
X755650D01*
Y380117D01*
D02*
G37*
G36*
X664262Y378340D02*
X664210D01*
Y369570D01*
X672980D01*
Y369622D01*
X672296Y372175D01*
X670974Y374465D01*
X669105Y376334D01*
X666815Y377656D01*
X664262Y378340D01*
D02*
G37*
G36*
X661670D02*
X661618D01*
X659065Y377656D01*
X656775Y376334D01*
X654906Y374465D01*
X653584Y372175D01*
X652900Y369622D01*
Y369570D01*
X661670D01*
Y378340D01*
D02*
G37*
G36*
X1202570Y375920D02*
X1193800D01*
Y367150D01*
X1193852D01*
X1196405Y367834D01*
X1198695Y369156D01*
X1200564Y371025D01*
X1201886Y373315D01*
X1202570Y375868D01*
Y375920D01*
D02*
G37*
G36*
X1191260D02*
X1182490D01*
Y375868D01*
X1183174Y373315D01*
X1184496Y371025D01*
X1186365Y369156D01*
X1188655Y367834D01*
X1191208Y367150D01*
X1191260D01*
Y375920D01*
D02*
G37*
G36*
X1423722Y371990D02*
X1423670D01*
Y363220D01*
X1432440D01*
Y363272D01*
X1431756Y365825D01*
X1430434Y368115D01*
X1428565Y369984D01*
X1426275Y371306D01*
X1423722Y371990D01*
D02*
G37*
G36*
X1421130D02*
X1421078D01*
X1418525Y371306D01*
X1416235Y369984D01*
X1414366Y368115D01*
X1413044Y365825D01*
X1412360Y363272D01*
Y363220D01*
X1421130D01*
Y371990D01*
D02*
G37*
G36*
X554910Y380690D02*
X552530D01*
X550231Y380074D01*
X548169Y378884D01*
X546486Y377201D01*
X545296Y375140D01*
X544680Y372840D01*
Y370460D01*
X545296Y368161D01*
X546486Y366100D01*
X548169Y364417D01*
X550231Y363226D01*
X552530Y362610D01*
X554910D01*
X557209Y363226D01*
X559271Y364417D01*
X560954Y366100D01*
X562144Y368161D01*
X562760Y370460D01*
Y372840D01*
X562144Y375140D01*
X560954Y377201D01*
X559271Y378884D01*
X557209Y380074D01*
X554910Y380690D01*
D02*
G37*
G36*
X1232050Y380340D02*
X1213970D01*
Y362260D01*
X1232050D01*
Y380340D01*
D02*
G37*
G36*
X1030357Y369570D02*
X1022350D01*
Y361563D01*
X1024666Y362183D01*
X1026784Y363406D01*
X1028514Y365136D01*
X1029737Y367254D01*
X1030357Y369570D01*
D02*
G37*
G36*
X888117D02*
X880110D01*
Y361563D01*
X882426Y362183D01*
X884544Y363406D01*
X886274Y365136D01*
X887497Y367254D01*
X888117Y369570D01*
D02*
G37*
G36*
X1090047D02*
X1082040D01*
Y361563D01*
X1084356Y362183D01*
X1086474Y363406D01*
X1088204Y365136D01*
X1089427Y367254D01*
X1090047Y369570D01*
D02*
G37*
G36*
X947807D02*
X939800D01*
Y361563D01*
X942116Y362183D01*
X944234Y363406D01*
X945964Y365136D01*
X947187Y367254D01*
X947807Y369570D01*
D02*
G37*
G36*
X828427D02*
X820420D01*
Y361563D01*
X822736Y362183D01*
X824854Y363406D01*
X826584Y365136D01*
X827807Y367254D01*
X828427Y369570D01*
D02*
G37*
G36*
X766197D02*
X758190D01*
Y361563D01*
X760506Y362183D01*
X762624Y363406D01*
X764354Y365136D01*
X765577Y367254D01*
X766197Y369570D01*
D02*
G37*
G36*
X1079500D02*
X1071493D01*
X1072113Y367254D01*
X1073336Y365136D01*
X1075066Y363406D01*
X1077184Y362183D01*
X1079500Y361563D01*
Y369570D01*
D02*
G37*
G36*
X937260D02*
X929253D01*
X929873Y367254D01*
X931096Y365136D01*
X932826Y363406D01*
X934944Y362183D01*
X937260Y361563D01*
Y369570D01*
D02*
G37*
G36*
X817880D02*
X809873D01*
X810493Y367254D01*
X811716Y365136D01*
X813446Y363406D01*
X815564Y362183D01*
X817880Y361563D01*
Y369570D01*
D02*
G37*
G36*
X755650D02*
X747643D01*
X748263Y367254D01*
X749486Y365136D01*
X751216Y363406D01*
X753334Y362183D01*
X755650Y361563D01*
Y369570D01*
D02*
G37*
G36*
X1019810D02*
X1011803D01*
X1012423Y367254D01*
X1013646Y365136D01*
X1015376Y363406D01*
X1017494Y362183D01*
X1019810Y361563D01*
Y369570D01*
D02*
G37*
G36*
X877570D02*
X869563D01*
X870183Y367254D01*
X871406Y365136D01*
X873136Y363406D01*
X875254Y362183D01*
X877570Y361563D01*
Y369570D01*
D02*
G37*
G36*
X1064660Y380130D02*
X1046080D01*
Y361550D01*
X1064660D01*
Y380130D01*
D02*
G37*
G36*
X1004970D02*
X986390D01*
Y361550D01*
X1004970D01*
Y380130D01*
D02*
G37*
G36*
X922420D02*
X903840D01*
Y361550D01*
X922420D01*
Y380130D01*
D02*
G37*
G36*
X862730D02*
X844150D01*
Y361550D01*
X862730D01*
Y380130D01*
D02*
G37*
G36*
X803040D02*
X784460D01*
Y361550D01*
X803040D01*
Y380130D01*
D02*
G37*
G36*
X740810D02*
X722230D01*
Y361550D01*
X740810D01*
Y380130D01*
D02*
G37*
G36*
X672980Y367030D02*
X664210D01*
Y358260D01*
X664262D01*
X666815Y358944D01*
X669105Y360266D01*
X670974Y362135D01*
X672296Y364425D01*
X672980Y366978D01*
Y367030D01*
D02*
G37*
G36*
X661670D02*
X652900D01*
Y366978D01*
X653584Y364425D01*
X654906Y362135D01*
X656775Y360266D01*
X659065Y358944D01*
X661618Y358260D01*
X661670D01*
Y367030D01*
D02*
G37*
G36*
X588062Y378340D02*
X585418D01*
X582865Y377656D01*
X580575Y376334D01*
X578706Y374465D01*
X577384Y372175D01*
X576700Y369622D01*
Y366978D01*
X577384Y364425D01*
X578706Y362135D01*
X580575Y360266D01*
X582865Y358944D01*
X585418Y358260D01*
X588062D01*
X590615Y358944D01*
X592905Y360266D01*
X594774Y362135D01*
X596096Y364425D01*
X596780Y366978D01*
Y369622D01*
X596096Y372175D01*
X594774Y374465D01*
X592905Y376334D01*
X590615Y377656D01*
X588062Y378340D01*
D02*
G37*
G36*
X1470810Y375260D02*
X1452730D01*
Y357180D01*
X1470810D01*
Y375260D01*
D02*
G37*
G36*
X1284120D02*
X1266040D01*
Y357180D01*
X1284120D01*
Y375260D01*
D02*
G37*
G36*
X1432440Y360680D02*
X1423670D01*
Y351910D01*
X1423722D01*
X1426275Y352594D01*
X1428565Y353916D01*
X1430434Y355785D01*
X1431756Y358075D01*
X1432440Y360628D01*
Y360680D01*
D02*
G37*
G36*
X1421130D02*
X1412360D01*
Y360628D01*
X1413044Y358075D01*
X1414366Y355785D01*
X1416235Y353916D01*
X1418525Y352594D01*
X1421078Y351910D01*
X1421130D01*
Y360680D01*
D02*
G37*
G36*
X1347522Y371990D02*
X1344878D01*
X1342325Y371306D01*
X1340035Y369984D01*
X1338166Y368115D01*
X1336844Y365825D01*
X1336160Y363272D01*
Y360628D01*
X1336844Y358075D01*
X1338166Y355785D01*
X1340035Y353916D01*
X1342325Y352594D01*
X1344878Y351910D01*
X1347522D01*
X1350075Y352594D01*
X1352365Y353916D01*
X1354234Y355785D01*
X1355556Y358075D01*
X1356240Y360628D01*
Y363272D01*
X1355556Y365825D01*
X1354234Y368115D01*
X1352365Y369984D01*
X1350075Y371306D01*
X1347522Y371990D01*
D02*
G37*
G36*
X871370Y352750D02*
X853290D01*
Y351396D01*
X840991D01*
X840990Y351396D01*
X839001Y351134D01*
X837148Y350366D01*
X835556Y349145D01*
X835556Y349145D01*
X832311Y345900D01*
X825600D01*
Y328320D01*
X843180D01*
Y335031D01*
X844174Y336025D01*
X853290D01*
Y334670D01*
X871370D01*
Y352750D01*
D02*
G37*
G36*
X694610Y358750D02*
X692230D01*
X689931Y358134D01*
X687869Y356944D01*
X686186Y355260D01*
X684996Y353199D01*
X684380Y350900D01*
Y348520D01*
X684996Y346220D01*
X686186Y344159D01*
X687869Y342476D01*
X689931Y341286D01*
X692230Y340670D01*
X694610D01*
X696909Y341286D01*
X698971Y342476D01*
X700654Y344159D01*
X701844Y346220D01*
X702460Y348520D01*
Y350900D01*
X701844Y353199D01*
X700654Y355260D01*
X698971Y356944D01*
X696909Y358134D01*
X694610Y358750D01*
D02*
G37*
G36*
X999640Y340050D02*
X981560D01*
Y338696D01*
X976119D01*
X976118Y338696D01*
X974129Y338434D01*
X972276Y337666D01*
X971636Y337176D01*
X968910D01*
Y338280D01*
X951330D01*
Y320700D01*
X968910D01*
Y321804D01*
X974598D01*
X976587Y322066D01*
X978441Y322834D01*
X979020Y323278D01*
X981560Y322926D01*
Y321970D01*
X999640D01*
Y340050D01*
D02*
G37*
G36*
X815490Y352750D02*
X797410D01*
Y351396D01*
X785110D01*
X783121Y351134D01*
X781268Y350366D01*
X779676Y349145D01*
X775161Y344630D01*
X768450D01*
Y327050D01*
X786030D01*
Y333760D01*
X788294Y336025D01*
X797410D01*
Y334670D01*
X815490D01*
Y352750D01*
D02*
G37*
G36*
X927250Y354020D02*
X909170D01*
Y352666D01*
X906776D01*
X904787Y352404D01*
X902934Y351636D01*
X901342Y350415D01*
X900873Y349946D01*
X899060Y348440D01*
Y348440D01*
X899060Y348440D01*
X881480D01*
Y330860D01*
X899060D01*
Y331964D01*
X901446D01*
X903435Y332226D01*
X905289Y332994D01*
X906881Y334215D01*
X907253Y334587D01*
X909170Y335940D01*
Y335940D01*
X909170Y335940D01*
X927250D01*
Y354020D01*
D02*
G37*
G36*
X758340Y348940D02*
X740260D01*
Y347586D01*
X737866D01*
X735877Y347324D01*
X734024Y346556D01*
X732432Y345335D01*
X731963Y344866D01*
X730150Y343360D01*
Y343360D01*
X730150Y343360D01*
X712570D01*
Y325780D01*
X730150D01*
Y326884D01*
X732536D01*
X734525Y327146D01*
X736379Y327914D01*
X737971Y329135D01*
X738343Y329507D01*
X740260Y330860D01*
Y330860D01*
X740260Y330860D01*
X758340D01*
Y348940D01*
D02*
G37*
G36*
X1094890Y342590D02*
X1076810D01*
Y324510D01*
X1094890D01*
Y342590D01*
D02*
G37*
G36*
X1061870D02*
X1043790D01*
Y341236D01*
X1040126D01*
X1038137Y340974D01*
X1036284Y340206D01*
X1034692Y338985D01*
X1033398Y337691D01*
X1031140Y337010D01*
Y337010D01*
X1013560D01*
Y319430D01*
X1031140D01*
Y320534D01*
X1034796D01*
X1036785Y320796D01*
X1038639Y321564D01*
X1040231Y322785D01*
X1041457Y324011D01*
X1043790Y324510D01*
Y324510D01*
X1061870D01*
Y342590D01*
D02*
G37*
G36*
X1971731Y319490D02*
X1968429D01*
X1965240Y318635D01*
X1962380Y316984D01*
X1960045Y314650D01*
X1960037Y314636D01*
X1860123D01*
X1860115Y314650D01*
X1857780Y316984D01*
X1854920Y318635D01*
X1851731Y319490D01*
X1848429D01*
X1845240Y318635D01*
X1842380Y316984D01*
X1840046Y314650D01*
X1838395Y311790D01*
X1837540Y308601D01*
Y305299D01*
X1838395Y302110D01*
X1840046Y299250D01*
X1842380Y296915D01*
X1845240Y295264D01*
X1848429Y294410D01*
X1851731D01*
X1854920Y295264D01*
X1857780Y296915D01*
X1860115Y299250D01*
X1860123Y299264D01*
X1960037D01*
X1960045Y299250D01*
X1962380Y296915D01*
X1965240Y295264D01*
X1968429Y294410D01*
X1971731D01*
X1974920Y295264D01*
X1977780Y296915D01*
X1980114Y299250D01*
X1981765Y302110D01*
X1982620Y305299D01*
Y308601D01*
X1981765Y311790D01*
X1980114Y314650D01*
X1977780Y316984D01*
X1974920Y318635D01*
X1971731Y319490D01*
D02*
G37*
G36*
X1465599Y341860D02*
X1463021D01*
X1460531Y341193D01*
X1458299Y339904D01*
X1456476Y338081D01*
X1455187Y335849D01*
X1454520Y333359D01*
Y333149D01*
X1435126Y313756D01*
X1417483D01*
X1417135Y314104D01*
X1414845Y315426D01*
X1412292Y316110D01*
X1410086D01*
X1400768Y325428D01*
X1398667Y326832D01*
X1396190Y327325D01*
X1300440D01*
X1299681Y328084D01*
X1297619Y329274D01*
X1295320Y329890D01*
X1292940D01*
X1290641Y329274D01*
X1289362Y328536D01*
X1267000D01*
X1265011Y328274D01*
X1263157Y327506D01*
X1261566Y326285D01*
X1261565Y326285D01*
X1257741Y322460D01*
X1257248D01*
X1254695Y321776D01*
X1252405Y320454D01*
X1250536Y318585D01*
X1249214Y316295D01*
X1248530Y313742D01*
Y311098D01*
X1249214Y308545D01*
X1250536Y306255D01*
X1252405Y304386D01*
X1254695Y303064D01*
X1257248Y302380D01*
X1259892D01*
X1262445Y303064D01*
X1264735Y304386D01*
X1266604Y306255D01*
X1267926Y308545D01*
X1268610Y311098D01*
Y311591D01*
X1270184Y313165D01*
X1289362D01*
X1290641Y312426D01*
X1292940Y311810D01*
X1295320D01*
X1297619Y312426D01*
X1299681Y313617D01*
X1300440Y314376D01*
X1324730D01*
Y296030D01*
X1344810D01*
Y314376D01*
X1393508D01*
X1400930Y306954D01*
Y304748D01*
X1401614Y302195D01*
X1402936Y299905D01*
X1404805Y298036D01*
X1407095Y296714D01*
X1409648Y296030D01*
X1412292D01*
X1414845Y296714D01*
X1417135Y298036D01*
X1417483Y298384D01*
X1438310D01*
X1440299Y298646D01*
X1442153Y299414D01*
X1443745Y300635D01*
X1452411Y309302D01*
X1454688Y307987D01*
X1454520Y307359D01*
Y304781D01*
X1455187Y302291D01*
X1456476Y300059D01*
X1458299Y298236D01*
X1460531Y296947D01*
X1463021Y296280D01*
X1465599D01*
X1468089Y296947D01*
X1470321Y298236D01*
X1472144Y300059D01*
X1473433Y302291D01*
X1474100Y304781D01*
Y307359D01*
X1473433Y309849D01*
X1472144Y312081D01*
X1470321Y313904D01*
X1468089Y315193D01*
X1465599Y315860D01*
X1463021D01*
X1462393Y315692D01*
X1461078Y317969D01*
X1465389Y322280D01*
X1465599D01*
X1468089Y322947D01*
X1470321Y324236D01*
X1472144Y326059D01*
X1473433Y328291D01*
X1474100Y330781D01*
Y333359D01*
X1473433Y335849D01*
X1472144Y338081D01*
X1470321Y339904D01*
X1468089Y341193D01*
X1465599Y341860D01*
D02*
G37*
G36*
X662992Y331350D02*
X660348D01*
X657795Y330666D01*
X655505Y329344D01*
X653636Y327475D01*
X652314Y325185D01*
X651630Y322632D01*
Y319988D01*
X652314Y317435D01*
X653636Y315145D01*
X655505Y313276D01*
X657795Y311954D01*
X660348Y311270D01*
X662992D01*
X665545Y311954D01*
X667835Y313276D01*
X669704Y315145D01*
X671026Y317435D01*
X671710Y319988D01*
Y322632D01*
X671026Y325185D01*
X669704Y327475D01*
X667835Y329344D01*
X665545Y330666D01*
X662992Y331350D01*
D02*
G37*
G36*
X595510D02*
X575430D01*
Y311270D01*
X595510D01*
Y331350D01*
D02*
G37*
G36*
X1801551Y319490D02*
X1798249D01*
X1795060Y318635D01*
X1792200Y316984D01*
X1789865Y314650D01*
X1788215Y311790D01*
X1787360Y308601D01*
Y305299D01*
X1788215Y302110D01*
X1789865Y299250D01*
X1792200Y296915D01*
X1795060Y295264D01*
X1798249Y294410D01*
X1801551D01*
X1804740Y295264D01*
X1807600Y296915D01*
X1809934Y299250D01*
X1811585Y302110D01*
X1812440Y305299D01*
Y308601D01*
X1811585Y311790D01*
X1809934Y314650D01*
X1807600Y316984D01*
X1804740Y318635D01*
X1801551Y319490D01*
D02*
G37*
G36*
X1681551D02*
X1678249D01*
X1675060Y318635D01*
X1672200Y316984D01*
X1669866Y314650D01*
X1668215Y311790D01*
X1667360Y308601D01*
Y305299D01*
X1668215Y302110D01*
X1669866Y299250D01*
X1672200Y296915D01*
X1675060Y295264D01*
X1678249Y294410D01*
X1681551D01*
X1684740Y295264D01*
X1687600Y296915D01*
X1689935Y299250D01*
X1691586Y302110D01*
X1692440Y305299D01*
Y308601D01*
X1691586Y311790D01*
X1689935Y314650D01*
X1687600Y316984D01*
X1684740Y318635D01*
X1681551Y319490D01*
D02*
G37*
G36*
X1631061Y318610D02*
X1627759D01*
X1624570Y317755D01*
X1621710Y316105D01*
X1619375Y313770D01*
X1617725Y310910D01*
X1616870Y307721D01*
Y304419D01*
X1617725Y301230D01*
X1619375Y298370D01*
X1621710Y296035D01*
X1624570Y294385D01*
X1627759Y293530D01*
X1631061D01*
X1634250Y294385D01*
X1637110Y296035D01*
X1639444Y298370D01*
X1641095Y301230D01*
X1641950Y304419D01*
Y307721D01*
X1641095Y310910D01*
X1639444Y313770D01*
X1637110Y316105D01*
X1634250Y317755D01*
X1631061Y318610D01*
D02*
G37*
G36*
X1511061D02*
X1507759D01*
X1504570Y317755D01*
X1501711Y316105D01*
X1499376Y313770D01*
X1497725Y310910D01*
X1496870Y307721D01*
Y304419D01*
X1497725Y301230D01*
X1499376Y298370D01*
X1501711Y296035D01*
X1504570Y294385D01*
X1507759Y293530D01*
X1511061D01*
X1514250Y294385D01*
X1517110Y296035D01*
X1519445Y298370D01*
X1521096Y301230D01*
X1521950Y304419D01*
Y307721D01*
X1521096Y310910D01*
X1519445Y313770D01*
X1517110Y316105D01*
X1514250Y317755D01*
X1511061Y318610D01*
D02*
G37*
G36*
X662992Y305950D02*
X660348D01*
X657795Y305266D01*
X655505Y303944D01*
X653636Y302075D01*
X652314Y299785D01*
X651630Y297232D01*
Y294588D01*
X652314Y292035D01*
X653636Y289745D01*
X655505Y287876D01*
X657795Y286554D01*
X660348Y285870D01*
X662992D01*
X665545Y286554D01*
X667835Y287876D01*
X669704Y289745D01*
X671026Y292035D01*
X671710Y294588D01*
Y297232D01*
X671026Y299785D01*
X669704Y302075D01*
X667835Y303944D01*
X665545Y305266D01*
X662992Y305950D01*
D02*
G37*
G36*
X586792D02*
X584148D01*
X581595Y305266D01*
X579305Y303944D01*
X578957Y303596D01*
X573580D01*
X571590Y303334D01*
X569737Y302566D01*
X568145Y301345D01*
X551891Y285090D01*
X544680D01*
Y267010D01*
X562760D01*
Y274221D01*
X576763Y288224D01*
X578957D01*
X579305Y287876D01*
X581595Y286554D01*
X584148Y285870D01*
X586792D01*
X589345Y286554D01*
X591635Y287876D01*
X593504Y289745D01*
X594826Y292035D01*
X595510Y294588D01*
Y297232D01*
X594826Y299785D01*
X593504Y302075D01*
X591635Y303944D01*
X589345Y305266D01*
X586792Y305950D01*
D02*
G37*
G36*
X1259892Y297060D02*
X1257248D01*
X1254695Y296376D01*
X1252405Y295054D01*
X1250536Y293185D01*
X1249214Y290895D01*
X1248530Y288342D01*
Y285698D01*
X1249214Y283145D01*
X1250536Y280855D01*
X1252405Y278986D01*
X1254695Y277664D01*
X1257248Y276980D01*
X1259892D01*
X1262445Y277664D01*
X1264735Y278986D01*
X1266604Y280855D01*
X1267926Y283145D01*
X1268610Y285698D01*
Y288342D01*
X1267926Y290895D01*
X1266604Y293185D01*
X1264735Y295054D01*
X1262445Y296376D01*
X1259892Y297060D01*
D02*
G37*
G36*
X1153310Y333700D02*
X1135230D01*
Y315620D01*
X1142441D01*
X1166316Y291745D01*
X1166316Y291745D01*
X1167907Y290524D01*
X1168060Y290461D01*
X1172330Y286191D01*
Y285698D01*
X1173014Y283145D01*
X1174336Y280855D01*
X1176205Y278986D01*
X1178495Y277664D01*
X1181048Y276980D01*
X1183692D01*
X1186245Y277664D01*
X1188535Y278986D01*
X1190404Y280855D01*
X1191726Y283145D01*
X1192410Y285698D01*
Y288342D01*
X1191726Y290895D01*
X1190404Y293185D01*
X1188535Y295054D01*
X1186245Y296376D01*
X1183692Y297060D01*
X1183199D01*
X1180226Y300033D01*
X1181198Y302380D01*
X1192410D01*
Y322460D01*
X1172330D01*
Y310788D01*
X1169983Y309816D01*
X1153310Y326490D01*
Y333700D01*
D02*
G37*
G36*
X586792Y280550D02*
X586740D01*
Y271780D01*
X595510D01*
Y271832D01*
X594826Y274385D01*
X593504Y276675D01*
X591635Y278544D01*
X589345Y279866D01*
X586792Y280550D01*
D02*
G37*
G36*
X584200D02*
X584148D01*
X581595Y279866D01*
X579305Y278544D01*
X577436Y276675D01*
X576114Y274385D01*
X575430Y271832D01*
Y271780D01*
X584200D01*
Y280550D01*
D02*
G37*
G36*
X1412292Y290710D02*
X1409648D01*
X1407095Y290026D01*
X1404805Y288704D01*
X1402936Y286835D01*
X1401614Y284545D01*
X1400930Y281992D01*
Y279348D01*
X1401614Y276795D01*
X1402936Y274505D01*
X1404805Y272636D01*
X1407095Y271314D01*
X1409648Y270630D01*
X1412292D01*
X1414845Y271314D01*
X1417135Y272636D01*
X1419004Y274505D01*
X1420326Y276795D01*
X1421010Y279348D01*
Y281992D01*
X1420326Y284545D01*
X1419004Y286835D01*
X1417135Y288704D01*
X1414845Y290026D01*
X1412292Y290710D01*
D02*
G37*
G36*
X1336092D02*
X1333448D01*
X1330895Y290026D01*
X1328605Y288704D01*
X1326736Y286835D01*
X1325414Y284545D01*
X1324730Y281992D01*
Y279348D01*
X1325414Y276795D01*
X1326736Y274505D01*
X1328605Y272636D01*
X1330895Y271314D01*
X1333448Y270630D01*
X1336092D01*
X1338645Y271314D01*
X1340935Y272636D01*
X1342804Y274505D01*
X1344126Y276795D01*
X1344810Y279348D01*
Y281992D01*
X1344126Y284545D01*
X1342804Y286835D01*
X1340935Y288704D01*
X1338645Y290026D01*
X1336092Y290710D01*
D02*
G37*
G36*
X1474100Y289860D02*
X1454520D01*
Y270280D01*
X1474100D01*
Y289860D01*
D02*
G37*
G36*
X1183692Y271660D02*
X1183640D01*
Y262890D01*
X1192410D01*
Y262942D01*
X1191726Y265495D01*
X1190404Y267785D01*
X1188535Y269654D01*
X1186245Y270976D01*
X1183692Y271660D01*
D02*
G37*
G36*
X1181100D02*
X1181048D01*
X1178495Y270976D01*
X1176205Y269654D01*
X1174336Y267785D01*
X1173014Y265495D01*
X1172330Y262942D01*
Y262890D01*
X1181100D01*
Y271660D01*
D02*
G37*
G36*
X662992Y280550D02*
X660348D01*
X657795Y279866D01*
X655505Y278544D01*
X653636Y276675D01*
X652314Y274385D01*
X651630Y271832D01*
Y269188D01*
X652314Y266635D01*
X653636Y264345D01*
X655505Y262476D01*
X657795Y261154D01*
X660348Y260470D01*
X662992D01*
X665545Y261154D01*
X667835Y262476D01*
X669704Y264345D01*
X671026Y266635D01*
X671710Y269188D01*
Y271832D01*
X671026Y274385D01*
X669704Y276675D01*
X667835Y278544D01*
X665545Y279866D01*
X662992Y280550D01*
D02*
G37*
G36*
X595510Y269240D02*
X586740D01*
Y260470D01*
X586792D01*
X589345Y261154D01*
X591635Y262476D01*
X593504Y264345D01*
X594826Y266635D01*
X595510Y269188D01*
Y269240D01*
D02*
G37*
G36*
X584200D02*
X575430D01*
Y269188D01*
X576114Y266635D01*
X577436Y264345D01*
X579305Y262476D01*
X581595Y261154D01*
X584148Y260470D01*
X584200D01*
Y269240D01*
D02*
G37*
G36*
X891540Y266010D02*
Y258520D01*
X899030D01*
X898461Y260643D01*
X897304Y262647D01*
X895667Y264284D01*
X893663Y265441D01*
X891540Y266010D01*
D02*
G37*
G36*
X889000D02*
X886877Y265441D01*
X884873Y264284D01*
X883236Y262647D01*
X882079Y260643D01*
X881510Y258520D01*
X889000D01*
Y266010D01*
D02*
G37*
G36*
X1336092Y265310D02*
X1336040D01*
Y256540D01*
X1344810D01*
Y256592D01*
X1344126Y259145D01*
X1342804Y261435D01*
X1340935Y263304D01*
X1338645Y264626D01*
X1336092Y265310D01*
D02*
G37*
G36*
X1333500D02*
X1333448D01*
X1330895Y264626D01*
X1328605Y263304D01*
X1326736Y261435D01*
X1325414Y259145D01*
X1324730Y256592D01*
Y256540D01*
X1333500D01*
Y265310D01*
D02*
G37*
G36*
X835660Y263470D02*
Y255980D01*
X843150D01*
X842581Y258103D01*
X841424Y260107D01*
X839787Y261744D01*
X837783Y262901D01*
X835660Y263470D01*
D02*
G37*
G36*
X833120D02*
X830997Y262901D01*
X828993Y261744D01*
X827356Y260107D01*
X826199Y258103D01*
X825630Y255980D01*
X833120D01*
Y263470D01*
D02*
G37*
G36*
X778510Y262200D02*
Y254710D01*
X786000D01*
X785431Y256833D01*
X784274Y258837D01*
X782637Y260474D01*
X780633Y261631D01*
X778510Y262200D01*
D02*
G37*
G36*
X775970D02*
X773847Y261631D01*
X771843Y260474D01*
X770206Y258837D01*
X769049Y256833D01*
X768480Y254710D01*
X775970D01*
Y262200D01*
D02*
G37*
G36*
X722630Y260930D02*
Y253440D01*
X730120D01*
X729551Y255563D01*
X728394Y257567D01*
X726757Y259204D01*
X724753Y260361D01*
X722630Y260930D01*
D02*
G37*
G36*
X720090D02*
X717967Y260361D01*
X715963Y259204D01*
X714326Y257567D01*
X713169Y255563D01*
X712600Y253440D01*
X720090D01*
Y260930D01*
D02*
G37*
G36*
X1259892Y271660D02*
X1257248D01*
X1254695Y270976D01*
X1252405Y269654D01*
X1250536Y267785D01*
X1249214Y265495D01*
X1248530Y262942D01*
Y260298D01*
X1249214Y257745D01*
X1250536Y255455D01*
X1252405Y253586D01*
X1254695Y252264D01*
X1257248Y251580D01*
X1259892D01*
X1262445Y252264D01*
X1264735Y253586D01*
X1266604Y255455D01*
X1267926Y257745D01*
X1268610Y260298D01*
Y262942D01*
X1267926Y265495D01*
X1266604Y267785D01*
X1264735Y269654D01*
X1262445Y270976D01*
X1259892Y271660D01*
D02*
G37*
G36*
X1192410Y260350D02*
X1183640D01*
Y251580D01*
X1183692D01*
X1186245Y252264D01*
X1188535Y253586D01*
X1190404Y255455D01*
X1191726Y257745D01*
X1192410Y260298D01*
Y260350D01*
D02*
G37*
G36*
X1181100D02*
X1172330D01*
Y260298D01*
X1173014Y257745D01*
X1174336Y255455D01*
X1176205Y253586D01*
X1178495Y252264D01*
X1181048Y251580D01*
X1181100D01*
Y260350D01*
D02*
G37*
G36*
X899030Y255980D02*
X891540D01*
Y248490D01*
X893663Y249059D01*
X895667Y250216D01*
X897304Y251853D01*
X898461Y253857D01*
X899030Y255980D01*
D02*
G37*
G36*
X889000D02*
X881510D01*
X882079Y253857D01*
X883236Y251853D01*
X884873Y250216D01*
X886877Y249059D01*
X889000Y248490D01*
Y255980D01*
D02*
G37*
G36*
X961390Y255850D02*
Y248360D01*
X968880D01*
X968311Y250483D01*
X967154Y252487D01*
X965517Y254124D01*
X963513Y255281D01*
X961390Y255850D01*
D02*
G37*
G36*
X958850D02*
X956727Y255281D01*
X954723Y254124D01*
X953086Y252487D01*
X951929Y250483D01*
X951360Y248360D01*
X958850D01*
Y255850D01*
D02*
G37*
G36*
X1023620Y254580D02*
Y247090D01*
X1031110D01*
X1030541Y249213D01*
X1029384Y251217D01*
X1027747Y252854D01*
X1025743Y254011D01*
X1023620Y254580D01*
D02*
G37*
G36*
X1021080D02*
X1018957Y254011D01*
X1016953Y252854D01*
X1015316Y251217D01*
X1014159Y249213D01*
X1013590Y247090D01*
X1021080D01*
Y254580D01*
D02*
G37*
G36*
X662992Y255150D02*
X662940D01*
Y246380D01*
X671710D01*
Y246432D01*
X671026Y248985D01*
X669704Y251275D01*
X667835Y253144D01*
X665545Y254466D01*
X662992Y255150D01*
D02*
G37*
G36*
X660400D02*
X660348D01*
X657795Y254466D01*
X655505Y253144D01*
X653636Y251275D01*
X652314Y248985D01*
X651630Y246432D01*
Y246380D01*
X660400D01*
Y255150D01*
D02*
G37*
G36*
X843150Y253440D02*
X835660D01*
Y245950D01*
X837783Y246519D01*
X839787Y247676D01*
X841424Y249313D01*
X842581Y251317D01*
X843150Y253440D01*
D02*
G37*
G36*
X833120D02*
X825630D01*
X826199Y251317D01*
X827356Y249313D01*
X828993Y247676D01*
X830997Y246519D01*
X833120Y245950D01*
Y253440D01*
D02*
G37*
G36*
X1412292Y265310D02*
X1409648D01*
X1407095Y264626D01*
X1404805Y263304D01*
X1402936Y261435D01*
X1401614Y259145D01*
X1400930Y256592D01*
Y253948D01*
X1401614Y251395D01*
X1402936Y249105D01*
X1404805Y247236D01*
X1407095Y245914D01*
X1409648Y245230D01*
X1412292D01*
X1414845Y245914D01*
X1417135Y247236D01*
X1419004Y249105D01*
X1420326Y251395D01*
X1421010Y253948D01*
Y256592D01*
X1420326Y259145D01*
X1419004Y261435D01*
X1417135Y263304D01*
X1414845Y264626D01*
X1412292Y265310D01*
D02*
G37*
G36*
X1344810Y254000D02*
X1336040D01*
Y245230D01*
X1336092D01*
X1338645Y245914D01*
X1340935Y247236D01*
X1342804Y249105D01*
X1344126Y251395D01*
X1344810Y253948D01*
Y254000D01*
D02*
G37*
G36*
X1333500D02*
X1324730D01*
Y253948D01*
X1325414Y251395D01*
X1326736Y249105D01*
X1328605Y247236D01*
X1330895Y245914D01*
X1333448Y245230D01*
X1333500D01*
Y254000D01*
D02*
G37*
G36*
X786000Y252170D02*
X778510D01*
Y244680D01*
X780633Y245249D01*
X782637Y246406D01*
X784274Y248043D01*
X785431Y250047D01*
X786000Y252170D01*
D02*
G37*
G36*
X775970D02*
X768480D01*
X769049Y250047D01*
X770206Y248043D01*
X771843Y246406D01*
X773847Y245249D01*
X775970Y244680D01*
Y252170D01*
D02*
G37*
G36*
X730120Y250900D02*
X722630D01*
Y243410D01*
X724753Y243979D01*
X726757Y245136D01*
X728394Y246773D01*
X729551Y248777D01*
X730120Y250900D01*
D02*
G37*
G36*
X720090D02*
X712600D01*
X713169Y248777D01*
X714326Y246773D01*
X715963Y245136D01*
X717967Y243979D01*
X720090Y243410D01*
Y250900D01*
D02*
G37*
G36*
X919400Y258420D02*
X917020D01*
X914721Y257804D01*
X912659Y256614D01*
X910976Y254931D01*
X909786Y252869D01*
X909170Y250570D01*
Y248190D01*
X909786Y245891D01*
X910976Y243830D01*
X912659Y242146D01*
X914721Y240956D01*
X917020Y240340D01*
X919400D01*
X921699Y240956D01*
X923761Y242146D01*
X925444Y243830D01*
X926634Y245891D01*
X927250Y248190D01*
Y250570D01*
X926634Y252869D01*
X925444Y254931D01*
X923761Y256614D01*
X921699Y257804D01*
X919400Y258420D01*
D02*
G37*
G36*
X863520Y257150D02*
X861140D01*
X858841Y256534D01*
X856779Y255344D01*
X855096Y253661D01*
X853906Y251600D01*
X853290Y249300D01*
Y246920D01*
X853906Y244621D01*
X855096Y242560D01*
X856779Y240877D01*
X858841Y239686D01*
X861140Y239070D01*
X863520D01*
X865819Y239686D01*
X867881Y240877D01*
X869564Y242560D01*
X870754Y244621D01*
X871370Y246920D01*
Y249300D01*
X870754Y251600D01*
X869564Y253661D01*
X867881Y255344D01*
X865819Y256534D01*
X863520Y257150D01*
D02*
G37*
G36*
X807640D02*
X805260D01*
X802961Y256534D01*
X800899Y255344D01*
X799216Y253661D01*
X798026Y251600D01*
X797410Y249300D01*
Y246920D01*
X798026Y244621D01*
X799216Y242560D01*
X800899Y240877D01*
X802961Y239686D01*
X805260Y239070D01*
X807640D01*
X809939Y239686D01*
X812001Y240877D01*
X813684Y242560D01*
X814874Y244621D01*
X815490Y246920D01*
Y249300D01*
X814874Y251600D01*
X813684Y253661D01*
X812001Y255344D01*
X809939Y256534D01*
X807640Y257150D01*
D02*
G37*
G36*
X968880Y245820D02*
X961390D01*
Y238330D01*
X963513Y238899D01*
X965517Y240056D01*
X967154Y241693D01*
X968311Y243697D01*
X968880Y245820D01*
D02*
G37*
G36*
X958850D02*
X951360D01*
X951929Y243697D01*
X953086Y241693D01*
X954723Y240056D01*
X956727Y238899D01*
X958850Y238330D01*
Y245820D01*
D02*
G37*
G36*
X1259892Y246260D02*
X1259840D01*
Y237490D01*
X1268610D01*
Y237542D01*
X1267926Y240095D01*
X1266604Y242385D01*
X1264735Y244254D01*
X1262445Y245576D01*
X1259892Y246260D01*
D02*
G37*
G36*
X1257300D02*
X1257248D01*
X1254695Y245576D01*
X1252405Y244254D01*
X1250536Y242385D01*
X1249214Y240095D01*
X1248530Y237542D01*
Y237490D01*
X1257300D01*
Y246260D01*
D02*
G37*
G36*
X1031110Y244550D02*
X1023620D01*
Y237060D01*
X1025743Y237629D01*
X1027747Y238786D01*
X1029384Y240423D01*
X1030541Y242427D01*
X1031110Y244550D01*
D02*
G37*
G36*
X1021080D02*
X1013590D01*
X1014159Y242427D01*
X1015316Y240423D01*
X1016953Y238786D01*
X1018957Y237629D01*
X1021080Y237060D01*
Y244550D01*
D02*
G37*
G36*
X750490Y253340D02*
X748110D01*
X745811Y252724D01*
X743749Y251534D01*
X742066Y249851D01*
X740876Y247789D01*
X740260Y245490D01*
Y243110D01*
X740876Y240811D01*
X742066Y238750D01*
X743749Y237066D01*
X745811Y235876D01*
X748110Y235260D01*
X750490D01*
X752789Y235876D01*
X754851Y237066D01*
X756534Y238750D01*
X757724Y240811D01*
X758340Y243110D01*
Y245490D01*
X757724Y247789D01*
X756534Y249851D01*
X754851Y251534D01*
X752789Y252724D01*
X750490Y253340D01*
D02*
G37*
G36*
X671710Y243840D02*
X662940D01*
Y235070D01*
X662992D01*
X665545Y235754D01*
X667835Y237076D01*
X669704Y238945D01*
X671026Y241235D01*
X671710Y243788D01*
Y243840D01*
D02*
G37*
G36*
X660400D02*
X651630D01*
Y243788D01*
X652314Y241235D01*
X653636Y238945D01*
X655505Y237076D01*
X657795Y235754D01*
X660348Y235070D01*
X660400D01*
Y243840D01*
D02*
G37*
G36*
X586792Y255150D02*
X584148D01*
X581595Y254466D01*
X579305Y253144D01*
X577436Y251275D01*
X576114Y248985D01*
X575430Y246432D01*
Y243788D01*
X576114Y241235D01*
X577436Y238945D01*
X579305Y237076D01*
X581595Y235754D01*
X584148Y235070D01*
X586792D01*
X589345Y235754D01*
X591635Y237076D01*
X593504Y238945D01*
X594826Y241235D01*
X595510Y243788D01*
Y246432D01*
X594826Y248985D01*
X593504Y251275D01*
X591635Y253144D01*
X589345Y254466D01*
X586792Y255150D01*
D02*
G37*
G36*
X1412292Y239910D02*
X1412240D01*
Y231140D01*
X1421010D01*
Y231192D01*
X1420326Y233745D01*
X1419004Y236035D01*
X1417135Y237904D01*
X1414845Y239226D01*
X1412292Y239910D01*
D02*
G37*
G36*
X1409700D02*
X1409648D01*
X1407095Y239226D01*
X1404805Y237904D01*
X1402936Y236035D01*
X1401614Y233745D01*
X1400930Y231192D01*
Y231140D01*
X1409700D01*
Y239910D01*
D02*
G37*
G36*
X1087040Y246990D02*
X1084660D01*
X1082361Y246374D01*
X1080299Y245184D01*
X1078616Y243501D01*
X1077426Y241439D01*
X1076810Y239140D01*
Y236760D01*
X1077426Y234461D01*
X1078616Y232400D01*
X1080299Y230716D01*
X1082361Y229526D01*
X1084660Y228910D01*
X1087040D01*
X1089339Y229526D01*
X1091401Y230716D01*
X1093084Y232400D01*
X1094274Y234461D01*
X1094890Y236760D01*
Y239140D01*
X1094274Y241439D01*
X1093084Y243501D01*
X1091401Y245184D01*
X1089339Y246374D01*
X1087040Y246990D01*
D02*
G37*
G36*
X1054020D02*
X1051640D01*
X1049341Y246374D01*
X1047279Y245184D01*
X1045596Y243501D01*
X1044406Y241439D01*
X1043790Y239140D01*
Y236760D01*
X1044406Y234461D01*
X1045596Y232400D01*
X1047279Y230716D01*
X1049341Y229526D01*
X1051640Y228910D01*
X1054020D01*
X1056319Y229526D01*
X1058381Y230716D01*
X1060064Y232400D01*
X1061254Y234461D01*
X1061870Y236760D01*
Y239140D01*
X1061254Y241439D01*
X1060064Y243501D01*
X1058381Y245184D01*
X1056319Y246374D01*
X1054020Y246990D01*
D02*
G37*
G36*
X991790Y244450D02*
X989410D01*
X987111Y243834D01*
X985049Y242644D01*
X983366Y240961D01*
X982176Y238899D01*
X981560Y236600D01*
Y234220D01*
X982176Y231921D01*
X983366Y229860D01*
X985049Y228176D01*
X987111Y226986D01*
X989410Y226370D01*
X991790D01*
X994089Y226986D01*
X996151Y228176D01*
X997834Y229860D01*
X999024Y231921D01*
X999640Y234220D01*
Y236600D01*
X999024Y238899D01*
X997834Y240961D01*
X996151Y242644D01*
X994089Y243834D01*
X991790Y244450D01*
D02*
G37*
G36*
X1268610Y234950D02*
X1259840D01*
Y226180D01*
X1259892D01*
X1262445Y226864D01*
X1264735Y228186D01*
X1266604Y230055D01*
X1267926Y232345D01*
X1268610Y234898D01*
Y234950D01*
D02*
G37*
G36*
X1257300D02*
X1248530D01*
Y234898D01*
X1249214Y232345D01*
X1250536Y230055D01*
X1252405Y228186D01*
X1254695Y226864D01*
X1257248Y226180D01*
X1257300D01*
Y234950D01*
D02*
G37*
G36*
X1183692Y246260D02*
X1181048D01*
X1178495Y245576D01*
X1176205Y244254D01*
X1174336Y242385D01*
X1173014Y240095D01*
X1172330Y237542D01*
Y234898D01*
X1173014Y232345D01*
X1174336Y230055D01*
X1176205Y228186D01*
X1178495Y226864D01*
X1181048Y226180D01*
X1183692D01*
X1186245Y226864D01*
X1188535Y228186D01*
X1190404Y230055D01*
X1191726Y232345D01*
X1192410Y234898D01*
Y237542D01*
X1191726Y240095D01*
X1190404Y242385D01*
X1188535Y244254D01*
X1186245Y245576D01*
X1183692Y246260D01*
D02*
G37*
G36*
X1145460Y238100D02*
X1143080D01*
X1140781Y237484D01*
X1138719Y236294D01*
X1137036Y234611D01*
X1135846Y232549D01*
X1135230Y230250D01*
Y227870D01*
X1135846Y225571D01*
X1137036Y223510D01*
X1138719Y221826D01*
X1140781Y220636D01*
X1143080Y220020D01*
X1145460D01*
X1147759Y220636D01*
X1149821Y221826D01*
X1151504Y223510D01*
X1152694Y225571D01*
X1153310Y227870D01*
Y230250D01*
X1152694Y232549D01*
X1151504Y234611D01*
X1149821Y236294D01*
X1147759Y237484D01*
X1145460Y238100D01*
D02*
G37*
G36*
X1421010Y228600D02*
X1412240D01*
Y219830D01*
X1412292D01*
X1414845Y220514D01*
X1417135Y221836D01*
X1419004Y223705D01*
X1420326Y225995D01*
X1421010Y228548D01*
Y228600D01*
D02*
G37*
G36*
X1409700D02*
X1400930D01*
Y228548D01*
X1401614Y225995D01*
X1402936Y223705D01*
X1404805Y221836D01*
X1407095Y220514D01*
X1409648Y219830D01*
X1409700D01*
Y228600D01*
D02*
G37*
G36*
X1336092Y239910D02*
X1333448D01*
X1330895Y239226D01*
X1328605Y237904D01*
X1326736Y236035D01*
X1325414Y233745D01*
X1324730Y231192D01*
Y228548D01*
X1325414Y225995D01*
X1326736Y223705D01*
X1328605Y221836D01*
X1330895Y220514D01*
X1333448Y219830D01*
X1336092D01*
X1338645Y220514D01*
X1340935Y221836D01*
X1342804Y223705D01*
X1344126Y225995D01*
X1344810Y228548D01*
Y231192D01*
X1344126Y233745D01*
X1342804Y236035D01*
X1340935Y237904D01*
X1338645Y239226D01*
X1336092Y239910D01*
D02*
G37*
G36*
X1303170Y234290D02*
X1285090D01*
Y216210D01*
X1303170D01*
Y234290D01*
D02*
G37*
G36*
X889644Y163710D02*
X885816D01*
X882118Y162719D01*
X878802Y160805D01*
X876095Y158097D01*
X874181Y154782D01*
X873190Y151084D01*
Y147255D01*
X874181Y143557D01*
X876095Y140242D01*
X878802Y137535D01*
X882118Y135620D01*
X885816Y134630D01*
X889644D01*
X893342Y135620D01*
X896658Y137535D01*
X899365Y140242D01*
X901279Y143557D01*
X902270Y147255D01*
Y151084D01*
X901279Y154782D01*
X899365Y158097D01*
X896658Y160805D01*
X893342Y162719D01*
X889644Y163710D01*
D02*
G37*
G36*
X838844D02*
X835016D01*
X831318Y162719D01*
X828002Y160805D01*
X825295Y158097D01*
X823381Y154782D01*
X822390Y151084D01*
Y147255D01*
X823381Y143557D01*
X825295Y140242D01*
X828002Y137535D01*
X831318Y135620D01*
X835016Y134630D01*
X838844D01*
X842542Y135620D01*
X845858Y137535D01*
X848565Y140242D01*
X850479Y143557D01*
X851470Y147255D01*
Y151084D01*
X850479Y154782D01*
X848565Y158097D01*
X845858Y160805D01*
X842542Y162719D01*
X838844Y163710D01*
D02*
G37*
G36*
X788044D02*
X784216D01*
X780518Y162719D01*
X777202Y160805D01*
X774495Y158097D01*
X772581Y154782D01*
X771590Y151084D01*
Y147255D01*
X772581Y143557D01*
X774495Y140242D01*
X777202Y137535D01*
X780518Y135620D01*
X784216Y134630D01*
X788044D01*
X791742Y135620D01*
X795058Y137535D01*
X797765Y140242D01*
X799679Y143557D01*
X800670Y147255D01*
Y151084D01*
X799679Y154782D01*
X797765Y158097D01*
X795058Y160805D01*
X791742Y162719D01*
X788044Y163710D01*
D02*
G37*
G36*
X944530Y163783D02*
X932530D01*
X930301Y163490D01*
X928223Y162629D01*
X926439Y161260D01*
X925070Y159476D01*
X924210Y157399D01*
X923916Y155170D01*
Y143170D01*
X924210Y140940D01*
X925070Y138863D01*
X926439Y137079D01*
X928223Y135710D01*
X930301Y134849D01*
X932530Y134556D01*
X944530D01*
X946759Y134849D01*
X948837Y135710D01*
X950621Y137079D01*
X951990Y138863D01*
X952850Y140940D01*
X953144Y143170D01*
Y155170D01*
X952850Y157399D01*
X951990Y159476D01*
X950621Y161260D01*
X948837Y162629D01*
X946759Y163490D01*
X944530Y163783D01*
D02*
G37*
G36*
X601354Y163130D02*
X597526D01*
X593828Y162139D01*
X590512Y160225D01*
X587805Y157518D01*
X585891Y154202D01*
X584900Y150504D01*
Y146676D01*
X585891Y142978D01*
X587805Y139662D01*
X590512Y136955D01*
X593828Y135041D01*
X597526Y134050D01*
X601354D01*
X605052Y135041D01*
X608368Y136955D01*
X611075Y139662D01*
X612989Y142978D01*
X613980Y146676D01*
Y150504D01*
X612989Y154202D01*
X611075Y157518D01*
X608368Y160225D01*
X605052Y162139D01*
X601354Y163130D01*
D02*
G37*
G36*
X707040Y163204D02*
X695040D01*
X692811Y162910D01*
X690733Y162050D01*
X688949Y160681D01*
X687580Y158897D01*
X686720Y156819D01*
X686426Y154590D01*
Y142590D01*
X686720Y140361D01*
X687580Y138283D01*
X688949Y136499D01*
X690733Y135130D01*
X692811Y134270D01*
X695040Y133976D01*
X707040D01*
X709269Y134270D01*
X711347Y135130D01*
X713131Y136499D01*
X714500Y138283D01*
X715360Y140361D01*
X715654Y142590D01*
Y154590D01*
X715360Y156819D01*
X714500Y158897D01*
X713131Y160681D01*
X711347Y162050D01*
X709269Y162910D01*
X707040Y163204D01*
D02*
G37*
G36*
X1120784Y160590D02*
X1116956D01*
X1113258Y159599D01*
X1109942Y157685D01*
X1107235Y154978D01*
X1105321Y151662D01*
X1104330Y147964D01*
Y144136D01*
X1105321Y140438D01*
X1107235Y137122D01*
X1109942Y134415D01*
X1113258Y132501D01*
X1116956Y131510D01*
X1120784D01*
X1124482Y132501D01*
X1127798Y134415D01*
X1130505Y137122D01*
X1132419Y140438D01*
X1133410Y144136D01*
Y147964D01*
X1132419Y151662D01*
X1130505Y154978D01*
X1127798Y157685D01*
X1124482Y159599D01*
X1120784Y160590D01*
D02*
G37*
G36*
X1069984D02*
X1066156D01*
X1062458Y159599D01*
X1059142Y157685D01*
X1056435Y154978D01*
X1054521Y151662D01*
X1053530Y147964D01*
Y144136D01*
X1054521Y140438D01*
X1056435Y137122D01*
X1059142Y134415D01*
X1062458Y132501D01*
X1066156Y131510D01*
X1069984D01*
X1073682Y132501D01*
X1076998Y134415D01*
X1079705Y137122D01*
X1081619Y140438D01*
X1082610Y144136D01*
Y147964D01*
X1081619Y151662D01*
X1079705Y154978D01*
X1076998Y157685D01*
X1073682Y159599D01*
X1069984Y160590D01*
D02*
G37*
G36*
X1019184D02*
X1015356D01*
X1011658Y159599D01*
X1008342Y157685D01*
X1005635Y154978D01*
X1003721Y151662D01*
X1002730Y147964D01*
Y144136D01*
X1003721Y140438D01*
X1005635Y137122D01*
X1008342Y134415D01*
X1011658Y132501D01*
X1015356Y131510D01*
X1019184D01*
X1022882Y132501D01*
X1026198Y134415D01*
X1028905Y137122D01*
X1030819Y140438D01*
X1031810Y144136D01*
Y147964D01*
X1030819Y151662D01*
X1028905Y154978D01*
X1026198Y157685D01*
X1022882Y159599D01*
X1019184Y160590D01*
D02*
G37*
G36*
X1175670Y160664D02*
X1163670D01*
X1161441Y160370D01*
X1159363Y159510D01*
X1157579Y158141D01*
X1156210Y156357D01*
X1155350Y154279D01*
X1155056Y152050D01*
Y140050D01*
X1155350Y137821D01*
X1156210Y135743D01*
X1157579Y133959D01*
X1159363Y132590D01*
X1161441Y131730D01*
X1163670Y131436D01*
X1175670D01*
X1177899Y131730D01*
X1179977Y132590D01*
X1181761Y133959D01*
X1183130Y135743D01*
X1183990Y137821D01*
X1184284Y140050D01*
Y152050D01*
X1183990Y154279D01*
X1183130Y156357D01*
X1181761Y158141D01*
X1179977Y159510D01*
X1177899Y160370D01*
X1175670Y160664D01*
D02*
G37*
G36*
X1946284Y159320D02*
X1942456D01*
X1938758Y158329D01*
X1935442Y156415D01*
X1932735Y153708D01*
X1930821Y150392D01*
X1929830Y146694D01*
Y142866D01*
X1930821Y139168D01*
X1932735Y135852D01*
X1935442Y133145D01*
X1938758Y131231D01*
X1942456Y130240D01*
X1946284D01*
X1949982Y131231D01*
X1953298Y133145D01*
X1956005Y135852D01*
X1957919Y139168D01*
X1958910Y142866D01*
Y146694D01*
X1957919Y150392D01*
X1956005Y153708D01*
X1953298Y156415D01*
X1949982Y158329D01*
X1946284Y159320D01*
D02*
G37*
G36*
X1895484D02*
X1891656D01*
X1887958Y158329D01*
X1884642Y156415D01*
X1881935Y153708D01*
X1880021Y150392D01*
X1879030Y146694D01*
Y142866D01*
X1880021Y139168D01*
X1881935Y135852D01*
X1884642Y133145D01*
X1887958Y131231D01*
X1891656Y130240D01*
X1895484D01*
X1899182Y131231D01*
X1902498Y133145D01*
X1905205Y135852D01*
X1907119Y139168D01*
X1908110Y142866D01*
Y146694D01*
X1907119Y150392D01*
X1905205Y153708D01*
X1902498Y156415D01*
X1899182Y158329D01*
X1895484Y159320D01*
D02*
G37*
G36*
X1844684D02*
X1840856D01*
X1837158Y158329D01*
X1833842Y156415D01*
X1831135Y153708D01*
X1829221Y150392D01*
X1828230Y146694D01*
Y142866D01*
X1829221Y139168D01*
X1831135Y135852D01*
X1833842Y133145D01*
X1837158Y131231D01*
X1840856Y130240D01*
X1844684D01*
X1848382Y131231D01*
X1851698Y133145D01*
X1854405Y135852D01*
X1856319Y139168D01*
X1857310Y142866D01*
Y146694D01*
X1856319Y150392D01*
X1854405Y153708D01*
X1851698Y156415D01*
X1848382Y158329D01*
X1844684Y159320D01*
D02*
G37*
G36*
X1720224D02*
X1716396D01*
X1712698Y158329D01*
X1709382Y156415D01*
X1706675Y153708D01*
X1704761Y150392D01*
X1703770Y146694D01*
Y142866D01*
X1704761Y139168D01*
X1706675Y135852D01*
X1709382Y133145D01*
X1712698Y131231D01*
X1716396Y130240D01*
X1720224D01*
X1723922Y131231D01*
X1727238Y133145D01*
X1729945Y135852D01*
X1731859Y139168D01*
X1732850Y142866D01*
Y146694D01*
X1731859Y150392D01*
X1729945Y153708D01*
X1727238Y156415D01*
X1723922Y158329D01*
X1720224Y159320D01*
D02*
G37*
G36*
X1669424D02*
X1665596D01*
X1661898Y158329D01*
X1658582Y156415D01*
X1655875Y153708D01*
X1653961Y150392D01*
X1652970Y146694D01*
Y142866D01*
X1653961Y139168D01*
X1655875Y135852D01*
X1658582Y133145D01*
X1661898Y131231D01*
X1665596Y130240D01*
X1669424D01*
X1673122Y131231D01*
X1676438Y133145D01*
X1679145Y135852D01*
X1681059Y139168D01*
X1682050Y142866D01*
Y146694D01*
X1681059Y150392D01*
X1679145Y153708D01*
X1676438Y156415D01*
X1673122Y158329D01*
X1669424Y159320D01*
D02*
G37*
G36*
X1618624D02*
X1614796D01*
X1611098Y158329D01*
X1607782Y156415D01*
X1605075Y153708D01*
X1603161Y150392D01*
X1602170Y146694D01*
Y142866D01*
X1603161Y139168D01*
X1605075Y135852D01*
X1607782Y133145D01*
X1611098Y131231D01*
X1614796Y130240D01*
X1618624D01*
X1622322Y131231D01*
X1625638Y133145D01*
X1628345Y135852D01*
X1630259Y139168D01*
X1631250Y142866D01*
Y146694D01*
X1630259Y150392D01*
X1628345Y153708D01*
X1625638Y156415D01*
X1622322Y158329D01*
X1618624Y159320D01*
D02*
G37*
G36*
X1491624D02*
X1487796D01*
X1484098Y158329D01*
X1480782Y156415D01*
X1478075Y153708D01*
X1476161Y150392D01*
X1475170Y146694D01*
Y142866D01*
X1476161Y139168D01*
X1478075Y135852D01*
X1480782Y133145D01*
X1484098Y131231D01*
X1487796Y130240D01*
X1491624D01*
X1495322Y131231D01*
X1498638Y133145D01*
X1501345Y135852D01*
X1503259Y139168D01*
X1504250Y142866D01*
Y146694D01*
X1503259Y150392D01*
X1501345Y153708D01*
X1498638Y156415D01*
X1495322Y158329D01*
X1491624Y159320D01*
D02*
G37*
G36*
X1440824D02*
X1436996D01*
X1433298Y158329D01*
X1429982Y156415D01*
X1427275Y153708D01*
X1425361Y150392D01*
X1424370Y146694D01*
Y142866D01*
X1425361Y139168D01*
X1427275Y135852D01*
X1429982Y133145D01*
X1433298Y131231D01*
X1436996Y130240D01*
X1440824D01*
X1444522Y131231D01*
X1447838Y133145D01*
X1450545Y135852D01*
X1452459Y139168D01*
X1453450Y142866D01*
Y146694D01*
X1452459Y150392D01*
X1450545Y153708D01*
X1447838Y156415D01*
X1444522Y158329D01*
X1440824Y159320D01*
D02*
G37*
G36*
X1390024D02*
X1386196D01*
X1382498Y158329D01*
X1379182Y156415D01*
X1376475Y153708D01*
X1374561Y150392D01*
X1373570Y146694D01*
Y142866D01*
X1374561Y139168D01*
X1376475Y135852D01*
X1379182Y133145D01*
X1382498Y131231D01*
X1386196Y130240D01*
X1390024D01*
X1393722Y131231D01*
X1397038Y133145D01*
X1399745Y135852D01*
X1401659Y139168D01*
X1402650Y142866D01*
Y146694D01*
X1401659Y150392D01*
X1399745Y153708D01*
X1397038Y156415D01*
X1393722Y158329D01*
X1390024Y159320D01*
D02*
G37*
G36*
X2001170Y159394D02*
X1989170D01*
X1986941Y159100D01*
X1984863Y158240D01*
X1983079Y156871D01*
X1981710Y155087D01*
X1980850Y153009D01*
X1980556Y150780D01*
Y138780D01*
X1980850Y136551D01*
X1981710Y134473D01*
X1983079Y132689D01*
X1984863Y131320D01*
X1986941Y130460D01*
X1989170Y130166D01*
X2001170D01*
X2003399Y130460D01*
X2005477Y131320D01*
X2007261Y132689D01*
X2008630Y134473D01*
X2009490Y136551D01*
X2009784Y138780D01*
Y150780D01*
X2009490Y153009D01*
X2008630Y155087D01*
X2007261Y156871D01*
X2005477Y158240D01*
X2003399Y159100D01*
X2001170Y159394D01*
D02*
G37*
G36*
X1775110D02*
X1763110D01*
X1760881Y159100D01*
X1758803Y158240D01*
X1757019Y156871D01*
X1755650Y155087D01*
X1754790Y153009D01*
X1754496Y150780D01*
Y138780D01*
X1754790Y136551D01*
X1755650Y134473D01*
X1757019Y132689D01*
X1758803Y131320D01*
X1760881Y130460D01*
X1763110Y130166D01*
X1775110D01*
X1777339Y130460D01*
X1779417Y131320D01*
X1781201Y132689D01*
X1782570Y134473D01*
X1783430Y136551D01*
X1783724Y138780D01*
Y150780D01*
X1783430Y153009D01*
X1782570Y155087D01*
X1781201Y156871D01*
X1779417Y158240D01*
X1777339Y159100D01*
X1775110Y159394D01*
D02*
G37*
G36*
X1546510D02*
X1534510D01*
X1532281Y159100D01*
X1530203Y158240D01*
X1528419Y156871D01*
X1527050Y155087D01*
X1526190Y153009D01*
X1525896Y150780D01*
Y138780D01*
X1526190Y136551D01*
X1527050Y134473D01*
X1528419Y132689D01*
X1530203Y131320D01*
X1532281Y130460D01*
X1534510Y130166D01*
X1546510D01*
X1548739Y130460D01*
X1550817Y131320D01*
X1552601Y132689D01*
X1553970Y134473D01*
X1554830Y136551D01*
X1555124Y138780D01*
Y150780D01*
X1554830Y153009D01*
X1553970Y155087D01*
X1552601Y156871D01*
X1550817Y158240D01*
X1548739Y159100D01*
X1546510Y159394D01*
D02*
G37*
%LPD*%
G36*
X1181661Y453390D02*
X1148995Y420725D01*
X1147774Y419133D01*
X1147006Y417279D01*
X1146744Y415290D01*
Y384184D01*
X1120775Y358214D01*
X1114271Y364718D01*
X1114697Y366121D01*
X1115431Y367150D01*
X1117652D01*
X1120205Y367834D01*
X1122495Y369156D01*
X1124364Y371025D01*
X1125686Y373315D01*
X1126370Y375868D01*
Y378512D01*
X1125686Y381065D01*
X1124364Y383355D01*
X1122495Y385224D01*
X1120205Y386546D01*
X1117652Y387230D01*
X1115008D01*
X1112455Y386546D01*
X1111316Y385888D01*
X1108776Y387268D01*
Y392512D01*
X1111316Y393892D01*
X1112455Y393234D01*
X1115008Y392550D01*
X1115060D01*
Y402590D01*
Y412630D01*
X1115008D01*
X1112455Y411946D01*
X1111316Y411288D01*
X1108776Y412668D01*
Y417912D01*
X1111316Y419292D01*
X1112455Y418634D01*
X1115008Y417950D01*
X1117652D01*
X1120205Y418634D01*
X1122495Y419956D01*
X1124364Y421825D01*
X1125686Y424115D01*
X1126370Y426668D01*
Y429312D01*
X1125686Y431865D01*
X1124364Y434155D01*
X1122495Y436024D01*
X1120205Y437346D01*
X1117652Y438030D01*
X1115008D01*
X1112455Y437346D01*
X1111316Y436688D01*
X1108776Y438068D01*
Y443350D01*
X1126370D01*
Y463430D01*
X1106290D01*
Y457044D01*
X1103943Y456072D01*
X1092555Y467461D01*
X1090963Y468682D01*
X1089109Y469450D01*
X1087120Y469712D01*
X1000184D01*
X998901Y471983D01*
X998914Y472252D01*
X1000353Y473355D01*
X1018676Y491678D01*
X1029010D01*
Y476100D01*
X1047090D01*
Y491678D01*
X1116243D01*
X1124844Y483077D01*
X1125226Y481651D01*
X1126416Y479589D01*
X1128100Y477906D01*
X1130161Y476716D01*
X1132460Y476100D01*
X1134840D01*
X1137140Y476716D01*
X1139201Y477906D01*
X1140884Y479589D01*
X1142074Y481651D01*
X1142690Y483950D01*
Y486330D01*
X1142074Y488629D01*
X1140925Y490620D01*
X1140884Y490691D01*
X1141679Y491367D01*
X1142762Y492288D01*
X1181661Y453390D01*
D02*
G37*
G36*
X922125Y473355D02*
X923563Y472252D01*
X923577Y471983D01*
X922293Y469712D01*
X888324D01*
X885800Y469750D01*
X885800Y472252D01*
Y487830D01*
X867720D01*
Y472252D01*
X867720Y469750D01*
X865196Y469712D01*
X805598D01*
X803600Y471020D01*
X803600Y472252D01*
Y488630D01*
X803600Y489100D01*
X804734Y491170D01*
X884126D01*
X886115Y491432D01*
X887969Y492200D01*
X889560Y493421D01*
X895810Y499671D01*
X922125Y473355D01*
D02*
G37*
G36*
X766169Y493421D02*
X766169Y493421D01*
X767761Y492200D01*
X769614Y491432D01*
X771604Y491170D01*
X771604Y491170D01*
X784386D01*
X785520Y489100D01*
X785520Y488630D01*
Y472252D01*
X785520Y471020D01*
X783522Y469712D01*
X704196D01*
X703515Y472252D01*
X704510Y472826D01*
X706193Y474509D01*
X707384Y476571D01*
X707766Y477997D01*
X726830Y497061D01*
X749046D01*
X751035Y497322D01*
X752889Y498090D01*
X754481Y499312D01*
X757380Y502211D01*
X766169Y493421D01*
D02*
G37*
%LPC*%
G36*
X1117652Y412630D02*
X1117600D01*
Y403860D01*
X1126370D01*
Y403912D01*
X1125686Y406465D01*
X1124364Y408755D01*
X1122495Y410624D01*
X1120205Y411946D01*
X1117652Y412630D01*
D02*
G37*
G36*
X1126370Y401320D02*
X1117600D01*
Y392550D01*
X1117652D01*
X1120205Y393234D01*
X1122495Y394556D01*
X1124364Y396425D01*
X1125686Y398715D01*
X1126370Y401268D01*
Y401320D01*
D02*
G37*
%LPD*%
D14*
X435610Y85090D02*
X2043430D01*
X435610Y1328420D02*
X2043430D01*
Y85090D02*
Y1328420D01*
X435610Y85090D02*
Y1328420D01*
D19*
X1574800Y576580D02*
D03*
Y551180D02*
D03*
X1498600D02*
D03*
X1559560Y847090D02*
D03*
Y872490D02*
D03*
X1635760D02*
D03*
X1957070Y561340D02*
D03*
Y535940D02*
D03*
X1880870D02*
D03*
X1772920Y561340D02*
D03*
Y535940D02*
D03*
X1696720D02*
D03*
X1727200Y854710D02*
D03*
Y880110D02*
D03*
X1803400D02*
D03*
X1893570Y861060D02*
D03*
Y886460D02*
D03*
X1969770D02*
D03*
X853440Y447040D02*
D03*
X878840D02*
D03*
Y370840D02*
D03*
X793750Y447040D02*
D03*
X819150D02*
D03*
Y370840D02*
D03*
X731520Y447040D02*
D03*
X756920D02*
D03*
Y370840D02*
D03*
X1055370Y447040D02*
D03*
X1080770D02*
D03*
Y370840D02*
D03*
X995680Y447040D02*
D03*
X1021080D02*
D03*
Y370840D02*
D03*
X913130Y447040D02*
D03*
X938530D02*
D03*
Y370840D02*
D03*
D20*
X1498600Y576580D02*
D03*
X1635760Y847090D02*
D03*
X1880870Y561340D02*
D03*
X1696720D02*
D03*
X1803400Y854710D02*
D03*
X1969770Y861060D02*
D03*
D21*
X1927050Y596900D02*
D03*
X1583230Y810260D02*
D03*
X1530810Y769620D02*
D03*
X1973120Y631190D02*
D03*
X1781350Y628650D02*
D03*
X1712420Y773430D02*
D03*
X1746710Y596900D02*
D03*
X1758490Y810260D02*
D03*
X1581960Y656590D02*
D03*
X1877520Y782320D02*
D03*
X1547320Y618490D02*
D03*
X1926130Y819150D02*
D03*
X1461770Y461820D02*
D03*
X553720Y371650D02*
D03*
X1144270Y229060D02*
D03*
X1085850Y237950D02*
D03*
X521970Y326850D02*
D03*
X1294130Y320850D02*
D03*
X1223010Y466900D02*
D03*
X862330Y248110D02*
D03*
X806450D02*
D03*
X749300Y244300D02*
D03*
X1052830Y237950D02*
D03*
X990600Y235410D02*
D03*
X918210Y249380D02*
D03*
X1316990Y488490D02*
D03*
X1275080Y461820D02*
D03*
X757380Y513080D02*
D03*
X698960Y480060D02*
D03*
X693420Y349710D02*
D03*
X1133650Y485140D02*
D03*
X895810Y510540D02*
D03*
X972360Y478790D02*
D03*
D22*
X2022650Y596900D02*
D03*
X1487630Y810260D02*
D03*
X1626410Y769620D02*
D03*
X1877520Y631190D02*
D03*
X1685750Y628650D02*
D03*
X1808020Y773430D02*
D03*
X1842310Y596900D02*
D03*
X1662890Y810260D02*
D03*
X1486360Y656590D02*
D03*
X1973120Y782320D02*
D03*
X1642920Y618490D02*
D03*
X1830530Y819150D02*
D03*
X852980Y513080D02*
D03*
X794560Y480060D02*
D03*
X1038050Y485140D02*
D03*
X991410Y510540D02*
D03*
X876760Y478790D02*
D03*
D23*
X1996450Y507400D02*
D03*
Y533400D02*
D03*
X1516380Y892140D02*
D03*
Y866140D02*
D03*
X1816110Y503590D02*
D03*
Y529590D02*
D03*
X1689100Y894680D02*
D03*
Y868680D02*
D03*
X1620530Y536610D02*
D03*
Y562610D02*
D03*
X1855460Y902300D02*
D03*
Y876300D02*
D03*
X1464310Y332070D02*
D03*
Y306070D02*
D03*
D24*
X1996450Y559400D02*
D03*
X1516380Y840140D02*
D03*
X1816110Y555590D02*
D03*
X1689100Y842680D02*
D03*
X1620530Y588610D02*
D03*
X1855460Y850300D02*
D03*
X1464310Y280070D02*
D03*
D25*
X1950670Y497840D02*
D03*
X1541830Y922020D02*
D03*
X1783030Y500380D02*
D03*
X1879650Y925830D02*
D03*
X1614120Y499110D02*
D03*
X1710740Y924560D02*
D03*
X529420Y577650D02*
D03*
D26*
X1861870Y497840D02*
D03*
X1630630Y922020D02*
D03*
X1694230Y500380D02*
D03*
X1968450Y925830D02*
D03*
X1525320Y499110D02*
D03*
X1799540Y924560D02*
D03*
D27*
X1970080Y306950D02*
D03*
X1850080D02*
D03*
X1970080Y428950D02*
D03*
X1850080D02*
D03*
X1524650Y1118950D02*
D03*
X1644650D02*
D03*
X1524650Y996950D02*
D03*
X1644650D02*
D03*
X1799900Y306950D02*
D03*
X1679900D02*
D03*
X1799900Y428950D02*
D03*
X1679900D02*
D03*
X1693870Y1117990D02*
D03*
X1813870D02*
D03*
X1693870Y995990D02*
D03*
X1813870D02*
D03*
X1629410Y306070D02*
D03*
X1509410D02*
D03*
X1629410Y428070D02*
D03*
X1509410D02*
D03*
X1862780Y1117990D02*
D03*
X1982780D02*
D03*
X1862780Y995990D02*
D03*
X1982780D02*
D03*
D28*
X1910080Y448950D02*
D03*
X1584650Y976950D02*
D03*
X1739900Y448950D02*
D03*
X1753870Y975990D02*
D03*
X1569410Y448070D02*
D03*
X1922780Y975990D02*
D03*
D29*
X1461770Y366220D02*
D03*
X553720Y276050D02*
D03*
X1144270Y324660D02*
D03*
X1085850Y333550D02*
D03*
X521970Y422450D02*
D03*
X1294130Y225250D02*
D03*
X1223010Y371300D02*
D03*
X862330Y343710D02*
D03*
X806450D02*
D03*
X749300Y339900D02*
D03*
X1052830Y333550D02*
D03*
X990600Y331010D02*
D03*
X918210Y344980D02*
D03*
X1316990Y392890D02*
D03*
X1275080Y366220D02*
D03*
X693420Y445310D02*
D03*
D32*
X853440Y370840D02*
D03*
X793750D02*
D03*
X731520D02*
D03*
X1055370D02*
D03*
X995680D02*
D03*
X913130D02*
D03*
D33*
X834390Y254710D02*
D03*
X777240Y253440D02*
D03*
X721360Y252170D02*
D03*
X1022350Y245820D02*
D03*
X960120Y247090D02*
D03*
X890270Y257250D02*
D03*
D34*
X834390Y337110D02*
D03*
X777240Y335840D02*
D03*
X721360Y334570D02*
D03*
X1022350Y328220D02*
D03*
X960120Y329490D02*
D03*
X890270Y339650D02*
D03*
D37*
X529420Y552650D02*
D03*
D38*
X797660Y878740D02*
Y928370D01*
Y878740D02*
X941832Y734568D01*
X1869742D01*
X1973120Y631190D01*
X772260Y866040D02*
Y928370D01*
Y866040D02*
X925830Y712470D01*
X1697530D01*
X1781350Y628650D01*
X746860Y854610D02*
Y928370D01*
Y854610D02*
X899160Y702310D01*
X1536240D01*
X1581960Y656590D01*
X614172Y112522D02*
X650240Y148590D01*
X528320Y112522D02*
X614172D01*
X509016Y131826D02*
X528320Y112522D01*
X509016Y131826D02*
Y817526D01*
X619860Y928370D01*
X521970Y175260D02*
Y326850D01*
Y175260D02*
X548640Y148590D01*
X1294130Y320850D02*
X1396190D01*
X1410970Y306070D01*
X823060Y885090D02*
Y928370D01*
Y885090D02*
X921766Y786384D01*
X1873456D01*
X1877520Y782320D01*
X936090Y510540D02*
X991410D01*
X772260Y674370D02*
X936090Y510540D01*
X848460Y928370D02*
X964030Y1043940D01*
X1979930D01*
X2010410Y1013460D01*
Y873506D02*
Y1013460D01*
X1887982Y751078D02*
X2010410Y873506D01*
X1734772Y751078D02*
X1887982D01*
X1712420Y773430D02*
X1734772Y751078D01*
D39*
X723138Y445310D02*
X726464Y441984D01*
X569060Y609960D02*
X698960Y480060D01*
X569060Y609960D02*
Y674370D01*
X698960Y480060D02*
X723646Y504746D01*
X749046D01*
X757380Y513080D01*
X771604Y498856D01*
X884126D01*
X895810Y510540D01*
X927560Y478790D01*
X972360D01*
X994918D01*
X1015492Y499364D01*
X1119426D01*
X1133650Y485140D01*
X1316990Y392890D02*
X1336850Y412750D01*
X1346200D01*
X606298Y501142D02*
X662940Y444500D01*
X580928Y501142D02*
X606298D01*
X529420Y552650D02*
X580928Y501142D01*
X662940Y444500D02*
X680466Y462026D01*
X1087120D01*
X1101090Y448056D01*
Y367030D02*
Y448056D01*
Y367030D02*
X1117600Y350520D01*
X1123950D01*
X1154430Y381000D01*
Y415290D01*
X1192530Y453390D01*
X1206040Y466900D01*
X1223010D01*
X1026260Y619660D02*
X1192530Y453390D01*
X1026260Y619660D02*
Y674370D01*
X1258570Y312420D02*
X1267000Y320850D01*
X1294130D01*
X1410970Y306070D02*
X1438310D01*
X1464310Y332070D01*
X1432480Y428070D02*
X1509410D01*
X1422400Y438150D02*
X1432480Y428070D01*
X1525320Y499110D02*
X1540814Y483616D01*
X1677466D01*
X1694230Y500380D01*
X1755190Y561340D01*
X1772920D01*
X1788160Y576580D01*
X1831086D01*
X1861870Y545796D01*
Y497840D02*
Y545796D01*
Y497840D02*
X1893570D01*
X1957070Y561340D01*
X1630630Y922020D02*
X1662176Y890474D01*
Y842010D02*
Y890474D01*
Y842010D02*
X1676400Y827786D01*
X1700276D01*
X1727200Y854710D01*
X1799540Y924560D02*
X1859183D01*
X1874774Y908969D01*
Y879856D02*
Y908969D01*
Y879856D02*
X1893570Y861060D01*
X1958340Y925830D01*
X1968450D01*
X890270Y339650D02*
X901446D01*
X906776Y344980D01*
X918210D01*
X1733000Y902300D02*
X1855460D01*
X1710740Y924560D02*
X1733000Y902300D01*
X1950670Y497840D02*
X1960230Y507400D01*
X1996450D01*
X1689100Y894680D02*
Y935228D01*
X1701800Y947928D01*
X1857552D01*
X1879650Y925830D01*
X1783030Y500380D02*
X1797812D01*
X1801022Y503590D01*
X1816110D01*
X721360Y334570D02*
X732536D01*
X737866Y339900D01*
X749300D01*
X777240Y335840D02*
X785110Y343710D01*
X806450D01*
X834390Y337110D02*
X840990Y343710D01*
X862330D01*
X960120Y329490D02*
X974598D01*
X976118Y331010D01*
X990600D01*
X1022350Y328220D02*
X1034796D01*
X1040126Y333550D01*
X1052830D01*
X1486360Y588820D02*
X1498600Y576580D01*
X1486360Y588820D02*
Y656590D01*
X693420Y445310D02*
X723138D01*
X726464Y441984D02*
X731520Y447040D01*
X721460Y644600D02*
X852980Y513080D01*
X721460Y644600D02*
Y674370D01*
X553720Y276050D02*
X573580Y295910D01*
X585470D01*
X521970Y422450D02*
X570896D01*
X574246Y419100D01*
X586740D01*
X1144270Y324660D02*
X1171750Y297180D01*
X1172210D01*
X1182370Y287020D01*
X1850080Y306950D02*
X1970080D01*
X619860Y928370D02*
Y948790D01*
X683260Y1012190D01*
D41*
X1682750Y1253490D02*
D03*
X1631950D02*
D03*
X1581150D02*
D03*
X1910080Y1252220D02*
D03*
X1859280D02*
D03*
X1808480D02*
D03*
X1842770Y144780D02*
D03*
X1893570D02*
D03*
X1944370D02*
D03*
X1616710D02*
D03*
X1667510D02*
D03*
X1718310D02*
D03*
X1017270Y146050D02*
D03*
X1068070D02*
D03*
X1118870D02*
D03*
X786130Y149170D02*
D03*
X836930D02*
D03*
X887730D02*
D03*
X548640Y148590D02*
D03*
X599440D02*
D03*
X650240D02*
D03*
X1388110Y144780D02*
D03*
X1438910D02*
D03*
X1489710D02*
D03*
D42*
X1530350Y1253490D02*
D03*
X1757680Y1252220D02*
D03*
X1995170Y144780D02*
D03*
X1769110D02*
D03*
X1169670Y146050D02*
D03*
X938530Y149170D02*
D03*
X701040Y148590D02*
D03*
X1540510Y144780D02*
D03*
D43*
X569060Y674370D02*
D03*
D44*
X594460D02*
D03*
X619860D02*
D03*
X645260D02*
D03*
X670660D02*
D03*
X696060D02*
D03*
X721460D02*
D03*
X746860D02*
D03*
X772260D02*
D03*
X797660D02*
D03*
X823060D02*
D03*
X848460D02*
D03*
X873860D02*
D03*
X899260D02*
D03*
X924660D02*
D03*
X950060D02*
D03*
X975460D02*
D03*
X1000860D02*
D03*
X1026260D02*
D03*
Y928370D02*
D03*
X1000860D02*
D03*
X975460D02*
D03*
X950060D02*
D03*
X924660D02*
D03*
X899260D02*
D03*
X873860D02*
D03*
X848460D02*
D03*
X823060D02*
D03*
X797660D02*
D03*
X772260D02*
D03*
X746860D02*
D03*
X721460D02*
D03*
X696060D02*
D03*
X670660D02*
D03*
X645260D02*
D03*
X619860D02*
D03*
X594460D02*
D03*
X569060D02*
D03*
D45*
X661670Y245110D02*
D03*
Y270510D02*
D03*
Y295910D02*
D03*
Y321310D02*
D03*
X585470Y245110D02*
D03*
Y270510D02*
D03*
Y295910D02*
D03*
X1258570Y236220D02*
D03*
Y261620D02*
D03*
Y287020D02*
D03*
Y312420D02*
D03*
X1182370Y236220D02*
D03*
Y261620D02*
D03*
Y287020D02*
D03*
X1192530Y377190D02*
D03*
Y402590D02*
D03*
Y427990D02*
D03*
Y453390D02*
D03*
X1116330Y377190D02*
D03*
Y402590D02*
D03*
Y427990D02*
D03*
X662940Y368300D02*
D03*
Y393700D02*
D03*
Y419100D02*
D03*
Y444500D02*
D03*
X586740Y368300D02*
D03*
Y393700D02*
D03*
Y419100D02*
D03*
X1422400Y361950D02*
D03*
Y387350D02*
D03*
Y412750D02*
D03*
Y438150D02*
D03*
X1346200Y361950D02*
D03*
Y387350D02*
D03*
Y412750D02*
D03*
X1410970Y229870D02*
D03*
Y255270D02*
D03*
Y280670D02*
D03*
Y306070D02*
D03*
X1334770Y229870D02*
D03*
Y255270D02*
D03*
Y280670D02*
D03*
D46*
X585470Y321310D02*
D03*
X1182370Y312420D02*
D03*
X1116330Y453390D02*
D03*
X586740Y444500D02*
D03*
X1346200Y438150D02*
D03*
X1334770Y306070D02*
D03*
D47*
X759460Y1012190D02*
D03*
X594360Y1215390D02*
D03*
D48*
X607060Y1012190D02*
D03*
X657860D02*
D03*
X632460D02*
D03*
X683260D02*
D03*
X708660D02*
D03*
M02*
