G04*
G04 #@! TF.GenerationSoftware,Altium Limited,Altium Designer,24.5.2 (23)*
G04*
G04 Layer_Color=65535*
%FSLAX44Y44*%
%MOMM*%
G71*
G04*
G04 #@! TF.SameCoordinates,3DF9ACDB-7C99-40C3-A0CA-608631173261*
G04*
G04*
G04 #@! TF.FilePolarity,Positive*
G04*
G01*
G75*
%ADD10C,0.2000*%
%ADD11C,0.2500*%
%ADD12C,0.6000*%
%ADD13C,0.1270*%
%ADD14C,0.2540*%
D10*
X568860Y655670D02*
G03*
X568860Y655670I-1000J0D01*
G01*
X2007450Y507400D02*
G03*
X2007450Y559400I-17783J26000D01*
G01*
X1505380Y892140D02*
G03*
X1505380Y840140I17783J-26000D01*
G01*
X1827110Y503590D02*
G03*
X1827110Y555590I-17783J26000D01*
G01*
X1678100Y894680D02*
G03*
X1678100Y842680I17783J-26000D01*
G01*
X1631530Y536610D02*
G03*
X1631530Y588610I-17783J26000D01*
G01*
X1844460Y902300D02*
G03*
X1844460Y850300I17783J-26000D01*
G01*
X1453310Y332070D02*
G03*
X1453310Y280070I17783J-26000D01*
G01*
X617220Y334210D02*
G03*
X629920Y334210I6350J0D01*
G01*
X1214120Y325320D02*
G03*
X1226820Y325320I6350J0D01*
G01*
X1148080Y466290D02*
G03*
X1160780Y466290I6350J0D01*
G01*
X618490Y457400D02*
G03*
X631190Y457400I6350J0D01*
G01*
X1377950Y451050D02*
G03*
X1390650Y451050I6350J0D01*
G01*
X1366520Y318970D02*
G03*
X1379220Y318970I6350J0D01*
G01*
X1494950Y1291491D02*
X1718150D01*
X1494950Y1206490D02*
Y1291491D01*
Y1206490D02*
X1718150D01*
Y1291491D01*
X1722280Y1290221D02*
X1945480D01*
X1722280Y1205220D02*
Y1290221D01*
Y1205220D02*
X1945480D01*
Y1290221D01*
X1807370Y106779D02*
X2030570D01*
Y191780D01*
X1807370D02*
X2030570D01*
X1807370Y106779D02*
Y191780D01*
X1581310Y106779D02*
X1804510D01*
Y191780D01*
X1581310D02*
X1804510D01*
X1581310Y106779D02*
Y191780D01*
X981870Y108049D02*
X1205070D01*
Y193050D01*
X981870D02*
X1205070D01*
X981870Y108049D02*
Y193050D01*
X750730Y111169D02*
X973930D01*
Y196170D01*
X750730D02*
X973930D01*
X750730Y111169D02*
Y196170D01*
X513240Y110589D02*
X736440D01*
Y195590D01*
X513240D02*
X736440D01*
X513240Y110589D02*
Y195590D01*
X1352710Y106779D02*
X1575910D01*
Y191780D01*
X1352710D02*
X1575910D01*
X1352710Y106779D02*
Y191780D01*
X1511700Y589280D02*
X1529557D01*
Y584280D02*
Y589280D01*
Y584280D02*
X1543843D01*
Y589280D01*
X1561700D01*
Y538480D02*
Y589280D01*
X1511700Y538480D02*
X1561700D01*
X1511700D02*
Y589280D01*
X1937550Y596900D02*
X1943350D01*
X2006350D02*
X2012150D01*
X2006350Y583900D02*
Y609900D01*
X1943350D02*
X2006350D01*
X1943350Y583900D02*
Y609900D01*
Y583900D02*
X2006350D01*
X1979300Y507400D02*
Y559400D01*
Y507400D02*
X1985450D01*
X1979300Y559400D02*
X1985450D01*
X1604803Y834390D02*
X1622660D01*
X1604803D02*
Y839390D01*
X1590517D02*
X1604803D01*
X1590517Y834390D02*
Y839390D01*
X1572660Y834390D02*
X1590517D01*
X1572660D02*
Y885190D01*
X1622660D01*
Y834390D02*
Y885190D01*
X1533530Y840140D02*
Y892140D01*
X1527380D02*
X1533530D01*
X1527380Y840140D02*
X1533530D01*
X1566930Y810260D02*
X1572730D01*
X1498130D02*
X1503930D01*
Y797260D02*
Y823260D01*
Y797260D02*
X1566930D01*
Y823260D01*
X1503930D02*
X1566930D01*
X1893270Y484540D02*
Y511140D01*
X1932270Y497840D02*
X1938920D01*
X1873620D02*
X1880270D01*
Y483840D02*
Y511840D01*
Y483840D02*
X1932270D01*
Y511840D01*
X1880270D02*
X1932270D01*
X1599230Y908720D02*
Y935320D01*
X1553580Y922020D02*
X1560230D01*
X1612230D02*
X1618880D01*
X1612230Y908020D02*
Y936020D01*
X1560230D02*
X1612230D01*
X1560230Y908020D02*
Y936020D01*
Y908020D02*
X1612230D01*
X1893970Y574040D02*
X1911827D01*
Y569040D02*
Y574040D01*
Y569040D02*
X1926113D01*
Y574040D01*
X1943970D01*
Y523240D02*
Y574040D01*
X1893970Y523240D02*
X1943970D01*
X1893970D02*
Y574040D01*
X1541310Y769620D02*
X1547110D01*
X1610110D02*
X1615910D01*
X1610110Y756620D02*
Y782620D01*
X1547110D02*
X1610110D01*
X1547110Y756620D02*
Y782620D01*
Y756620D02*
X1610110D01*
X1956820Y631190D02*
X1962620D01*
X1888020D02*
X1893820D01*
Y618190D02*
Y644190D01*
Y618190D02*
X1956820D01*
Y644190D01*
X1893820D02*
X1956820D01*
X1828580Y473450D02*
X1991580D01*
X1828580Y250450D02*
Y473450D01*
Y250450D02*
X1991580D01*
Y473450D01*
X1503150Y952450D02*
X1666150D01*
Y1175450D01*
X1503150D02*
X1666150D01*
X1503150Y952450D02*
Y1175450D01*
X1658400Y473450D02*
X1821400D01*
X1658400Y250450D02*
Y473450D01*
Y250450D02*
X1821400D01*
Y473450D01*
X1672370Y951490D02*
X1835370D01*
Y1174490D01*
X1672370D02*
X1835370D01*
X1672370Y951490D02*
Y1174490D01*
X1725630Y487080D02*
Y513680D01*
X1764630Y500380D02*
X1771280D01*
X1705980D02*
X1712630D01*
Y486380D02*
Y514380D01*
Y486380D02*
X1764630D01*
Y514380D01*
X1712630D02*
X1764630D01*
X1765050Y628650D02*
X1770850D01*
X1696250D02*
X1702050D01*
Y615650D02*
Y641650D01*
Y615650D02*
X1765050D01*
Y641650D01*
X1702050D02*
X1765050D01*
X1937050Y912530D02*
Y939130D01*
X1891400Y925830D02*
X1898050D01*
X1950050D02*
X1956700D01*
X1950050Y911830D02*
Y939830D01*
X1898050D02*
X1950050D01*
X1898050Y911830D02*
Y939830D01*
Y911830D02*
X1950050D01*
X1722920Y773430D02*
X1728720D01*
X1791720D02*
X1797520D01*
X1791720Y760430D02*
Y786430D01*
X1728720D02*
X1791720D01*
X1728720Y760430D02*
Y786430D01*
Y760430D02*
X1791720D01*
X1709820Y574040D02*
X1727677D01*
Y569040D02*
Y574040D01*
Y569040D02*
X1741963D01*
Y574040D01*
X1759820D01*
Y523240D02*
Y574040D01*
X1709820Y523240D02*
X1759820D01*
X1709820D02*
Y574040D01*
X1772443Y842010D02*
X1790300D01*
X1772443D02*
Y847010D01*
X1758157D02*
X1772443D01*
X1758157Y842010D02*
Y847010D01*
X1740300Y842010D02*
X1758157D01*
X1740300D02*
Y892810D01*
X1790300D01*
Y842010D02*
Y892810D01*
X1757210Y596900D02*
X1763010D01*
X1826010D02*
X1831810D01*
X1826010Y583900D02*
Y609900D01*
X1763010D02*
X1826010D01*
X1763010Y583900D02*
Y609900D01*
Y583900D02*
X1826010D01*
X1742190Y810260D02*
X1747990D01*
X1673390D02*
X1679190D01*
Y797260D02*
Y823260D01*
Y797260D02*
X1742190D01*
Y823260D01*
X1679190D02*
X1742190D01*
X1798960Y503590D02*
Y555590D01*
Y503590D02*
X1805110D01*
X1798960Y555590D02*
X1805110D01*
X1706250Y842680D02*
Y894680D01*
X1700100D02*
X1706250D01*
X1700100Y842680D02*
X1706250D01*
X1487910Y472570D02*
X1650910D01*
X1487910Y249570D02*
Y472570D01*
Y249570D02*
X1650910D01*
Y472570D01*
X1841280Y951490D02*
X2004280D01*
Y1174490D01*
X1841280D02*
X2004280D01*
X1841280Y951490D02*
Y1174490D01*
X1556720Y485810D02*
Y512410D01*
X1595720Y499110D02*
X1602370D01*
X1537070D02*
X1543720D01*
Y485110D02*
Y513110D01*
Y485110D02*
X1595720D01*
Y513110D01*
X1543720D02*
X1595720D01*
X1565660Y656590D02*
X1571460D01*
X1496860D02*
X1502660D01*
Y643590D02*
Y669590D01*
Y643590D02*
X1565660D01*
Y669590D01*
X1502660D02*
X1565660D01*
X1768140Y911260D02*
Y937860D01*
X1722490Y924560D02*
X1729140D01*
X1781140D02*
X1787790D01*
X1781140Y910560D02*
Y938560D01*
X1729140D02*
X1781140D01*
X1729140Y910560D02*
Y938560D01*
Y910560D02*
X1781140D01*
X1888020Y782320D02*
X1893820D01*
X1956820D02*
X1962620D01*
X1956820Y769320D02*
Y795320D01*
X1893820D02*
X1956820D01*
X1893820Y769320D02*
Y795320D01*
Y769320D02*
X1956820D01*
X1938813Y848360D02*
X1956670D01*
X1938813D02*
Y853360D01*
X1924527D02*
X1938813D01*
X1924527Y848360D02*
Y853360D01*
X1906670Y848360D02*
X1924527D01*
X1906670D02*
Y899160D01*
X1956670D01*
Y848360D02*
Y899160D01*
X1557820Y618490D02*
X1563620D01*
X1626620D02*
X1632420D01*
X1626620Y605490D02*
Y631490D01*
X1563620D02*
X1626620D01*
X1563620Y605490D02*
Y631490D01*
Y605490D02*
X1626620D01*
X1909830Y819150D02*
X1915630D01*
X1841030D02*
X1846830D01*
Y806150D02*
Y832150D01*
Y806150D02*
X1909830D01*
Y832150D01*
X1846830D02*
X1909830D01*
X1603380Y536610D02*
Y588610D01*
Y536610D02*
X1609530D01*
X1603380Y588610D02*
X1609530D01*
X1872610Y850300D02*
Y902300D01*
X1866460D02*
X1872610D01*
X1866460Y850300D02*
X1872610D01*
X1461770Y445520D02*
Y451320D01*
Y376720D02*
Y382520D01*
X1448770D02*
X1474770D01*
Y445520D01*
X1448770D02*
X1474770D01*
X1448770Y382520D02*
Y445520D01*
X1481460Y280070D02*
Y332070D01*
X1475310D02*
X1481460D01*
X1475310Y280070D02*
X1481460D01*
X597070Y232210D02*
X650070D01*
X629920Y334210D02*
X650070D01*
X597070D02*
X617220D01*
X650070Y232210D02*
Y334210D01*
X597070Y232210D02*
Y334210D01*
X553720Y355350D02*
Y361150D01*
Y286550D02*
Y292350D01*
X540720D02*
X566720D01*
Y355350D01*
X540720D02*
X566720D01*
X540720Y292350D02*
Y355350D01*
X840740Y383940D02*
Y401797D01*
X845740D01*
Y416083D01*
X840740D02*
X845740D01*
X840740D02*
Y433940D01*
X891540D01*
Y383940D02*
Y433940D01*
X840740Y383940D02*
X891540D01*
X823640Y308610D02*
X845140D01*
X834390Y264960D02*
Y270510D01*
Y321310D02*
Y326860D01*
X822940Y321310D02*
X845840D01*
X822940Y270510D02*
Y321310D01*
Y270510D02*
X845840D01*
Y321310D01*
X781050Y383940D02*
Y401797D01*
X786050D01*
Y416083D01*
X781050D02*
X786050D01*
X781050D02*
Y433940D01*
X831850D01*
Y383940D02*
Y433940D01*
X781050Y383940D02*
X831850D01*
X766490Y307340D02*
X787990D01*
X777240Y263690D02*
Y269240D01*
Y320040D02*
Y325590D01*
X765790Y320040D02*
X788690D01*
X765790Y269240D02*
Y320040D01*
Y269240D02*
X788690D01*
Y320040D01*
X718820Y383940D02*
Y401797D01*
X723820D01*
Y416083D01*
X718820D02*
X723820D01*
X718820D02*
Y433940D01*
X769620D01*
Y383940D02*
Y433940D01*
X718820Y383940D02*
X769620D01*
X710610Y306070D02*
X732110D01*
X721360Y262420D02*
Y267970D01*
Y318770D02*
Y324320D01*
X709910Y318770D02*
X732810D01*
X709910Y267970D02*
Y318770D01*
Y267970D02*
X732810D01*
Y318770D01*
X1042670Y383940D02*
Y401797D01*
X1047670D01*
Y416083D01*
X1042670D02*
X1047670D01*
X1042670D02*
Y433940D01*
X1093470D01*
Y383940D02*
Y433940D01*
X1042670Y383940D02*
X1093470D01*
X1011600Y299720D02*
X1033100D01*
X1022350Y256070D02*
Y261620D01*
Y312420D02*
Y317970D01*
X1010900Y312420D02*
X1033800D01*
X1010900Y261620D02*
Y312420D01*
Y261620D02*
X1033800D01*
Y312420D01*
X982980Y383940D02*
Y401797D01*
X987980D01*
Y416083D01*
X982980D02*
X987980D01*
X982980D02*
Y433940D01*
X1033780D01*
Y383940D02*
Y433940D01*
X982980Y383940D02*
X1033780D01*
X949370Y300990D02*
X970870D01*
X960120Y257340D02*
Y262890D01*
Y313690D02*
Y319240D01*
X948670Y313690D02*
X971570D01*
X948670Y262890D02*
Y313690D01*
Y262890D02*
X971570D01*
Y313690D01*
X900430Y383940D02*
Y401797D01*
X905430D01*
Y416083D01*
X900430D02*
X905430D01*
X900430D02*
Y433940D01*
X951230D01*
Y383940D02*
Y433940D01*
X900430Y383940D02*
X951230D01*
X879520Y311150D02*
X901020D01*
X890270Y267500D02*
Y273050D01*
Y323850D02*
Y329400D01*
X878820Y323850D02*
X901720D01*
X878820Y273050D02*
Y323850D01*
Y273050D02*
X901720D01*
Y323850D01*
X1144270Y239560D02*
Y245360D01*
Y308360D02*
Y314160D01*
X1131270Y308360D02*
X1157270D01*
X1131270Y245360D02*
Y308360D01*
Y245360D02*
X1157270D01*
Y308360D01*
X1085850Y248450D02*
Y254250D01*
Y317250D02*
Y323050D01*
X1072850Y317250D02*
X1098850D01*
X1072850Y254250D02*
Y317250D01*
Y254250D02*
X1098850D01*
Y317250D01*
X521970Y337350D02*
Y343150D01*
Y406150D02*
Y411950D01*
X508970Y406150D02*
X534970D01*
X508970Y343150D02*
Y406150D01*
Y343150D02*
X534970D01*
Y406150D01*
X1294130Y304550D02*
Y310350D01*
Y235750D02*
Y241550D01*
X1281130D02*
X1307130D01*
Y304550D01*
X1281130D02*
X1307130D01*
X1281130Y241550D02*
Y304550D01*
X1223010Y450600D02*
Y456400D01*
Y381800D02*
Y387600D01*
X1210010D02*
X1236010D01*
Y450600D01*
X1210010D02*
X1236010D01*
X1210010Y387600D02*
Y450600D01*
X1193970Y223320D02*
X1246970D01*
X1226820Y325320D02*
X1246970D01*
X1193970D02*
X1214120D01*
X1246970Y223320D02*
Y325320D01*
X1193970Y223320D02*
Y325320D01*
X1127930Y364290D02*
X1180930D01*
X1160780Y466290D02*
X1180930D01*
X1127930D02*
X1148080D01*
X1180930Y364290D02*
Y466290D01*
X1127930Y364290D02*
Y466290D01*
X598340Y355400D02*
X651340D01*
X631190Y457400D02*
X651340D01*
X598340D02*
X618490D01*
X651340Y355400D02*
Y457400D01*
X598340Y355400D02*
Y457400D01*
X862330Y258610D02*
Y264410D01*
Y327410D02*
Y333210D01*
X849330Y327410D02*
X875330D01*
X849330Y264410D02*
Y327410D01*
Y264410D02*
X875330D01*
Y327410D01*
X806450Y258610D02*
Y264410D01*
Y327410D02*
Y333210D01*
X793450Y327410D02*
X819450D01*
X793450Y264410D02*
Y327410D01*
Y264410D02*
X819450D01*
Y327410D01*
X749300Y254800D02*
Y260600D01*
Y323600D02*
Y329400D01*
X736300Y323600D02*
X762300D01*
X736300Y260600D02*
Y323600D01*
Y260600D02*
X762300D01*
Y323600D01*
X1052830Y248450D02*
Y254250D01*
Y317250D02*
Y323050D01*
X1039830Y317250D02*
X1065830D01*
X1039830Y254250D02*
Y317250D01*
Y254250D02*
X1065830D01*
Y317250D01*
X990600Y245910D02*
Y251710D01*
Y314710D02*
Y320510D01*
X977600Y314710D02*
X1003600D01*
X977600Y251710D02*
Y314710D01*
Y251710D02*
X1003600D01*
Y314710D01*
X918210Y259880D02*
Y265680D01*
Y328680D02*
Y334480D01*
X905210Y328680D02*
X931210D01*
X905210Y265680D02*
Y328680D01*
Y265680D02*
X931210D01*
Y328680D01*
X1357800Y349050D02*
X1410800D01*
X1390650Y451050D02*
X1410800D01*
X1357800D02*
X1377950D01*
X1410800Y349050D02*
Y451050D01*
X1357800Y349050D02*
Y451050D01*
X1316990Y472190D02*
Y477990D01*
Y403390D02*
Y409190D01*
X1303990D02*
X1329990D01*
Y472190D01*
X1303990D02*
X1329990D01*
X1303990Y409190D02*
Y472190D01*
X1346370Y216970D02*
X1399370D01*
X1379220Y318970D02*
X1399370D01*
X1346370D02*
X1366520D01*
X1399370Y216970D02*
Y318970D01*
X1346370Y216970D02*
Y318970D01*
X1275080Y445520D02*
Y451320D01*
Y376720D02*
Y382520D01*
X1262080D02*
X1288080D01*
Y445520D01*
X1262080D02*
X1288080D01*
X1262080Y382520D02*
Y445520D01*
X767880Y513080D02*
X773680D01*
X836680D02*
X842480D01*
X836680Y500080D02*
Y526080D01*
X773680D02*
X836680D01*
X773680Y500080D02*
Y526080D01*
Y500080D02*
X836680D01*
X709460Y480060D02*
X715260D01*
X778260D02*
X784060D01*
X778260Y467060D02*
Y493060D01*
X715260D02*
X778260D01*
X715260Y467060D02*
Y493060D01*
Y467060D02*
X778260D01*
X693420Y360210D02*
Y366010D01*
Y429010D02*
Y434810D01*
X680420Y429010D02*
X706420D01*
X680420Y366010D02*
Y429010D01*
Y366010D02*
X706420D01*
Y429010D01*
X1117350Y485140D02*
X1123150D01*
X1048550D02*
X1054350D01*
Y472140D02*
Y498140D01*
Y472140D02*
X1117350D01*
Y498140D01*
X1054350D02*
X1117350D01*
X906310Y510540D02*
X912110D01*
X975110D02*
X980910D01*
X975110Y497540D02*
Y523540D01*
X912110D02*
X975110D01*
X912110Y497540D02*
Y523540D01*
Y497540D02*
X975110D01*
X956060Y478790D02*
X961860D01*
X887260D02*
X893060D01*
Y465790D02*
Y491790D01*
Y465790D02*
X956060D01*
Y491790D01*
X893060D02*
X956060D01*
X505920Y528150D02*
X563420D01*
Y602150D01*
X505920D02*
X563420D01*
X505920Y528150D02*
Y602150D01*
D11*
X1487450Y576580D02*
G03*
X1487450Y576580I-1250J0D01*
G01*
X1649410Y847090D02*
G03*
X1649410Y847090I-1250J0D01*
G01*
X1869720Y561340D02*
G03*
X1869720Y561340I-1250J0D01*
G01*
X1911330Y479450D02*
G03*
X1911330Y479450I-1250J0D01*
G01*
X1585900Y946450D02*
G03*
X1585900Y946450I-1250J0D01*
G01*
X1741150Y479450D02*
G03*
X1741150Y479450I-1250J0D01*
G01*
X1755120Y945490D02*
G03*
X1755120Y945490I-1250J0D01*
G01*
X1685570Y561340D02*
G03*
X1685570Y561340I-1250J0D01*
G01*
X1817050Y854710D02*
G03*
X1817050Y854710I-1250J0D01*
G01*
X1570660Y478570D02*
G03*
X1570660Y478570I-1250J0D01*
G01*
X1924030Y945490D02*
G03*
X1924030Y945490I-1250J0D01*
G01*
X1983420Y861060D02*
G03*
X1983420Y861060I-1250J0D01*
G01*
X586720Y334310D02*
G03*
X586720Y334310I-1250J0D01*
G01*
X854690Y358440D02*
G03*
X854690Y358440I-1250J0D01*
G01*
X795000D02*
G03*
X795000Y358440I-1250J0D01*
G01*
X732770D02*
G03*
X732770Y358440I-1250J0D01*
G01*
X1056620D02*
G03*
X1056620Y358440I-1250J0D01*
G01*
X996930D02*
G03*
X996930Y358440I-1250J0D01*
G01*
X914380D02*
G03*
X914380Y358440I-1250J0D01*
G01*
X1183620Y325420D02*
G03*
X1183620Y325420I-1250J0D01*
G01*
X1117580Y466390D02*
G03*
X1117580Y466390I-1250J0D01*
G01*
X587990Y457500D02*
G03*
X587990Y457500I-1250J0D01*
G01*
X1347450Y451150D02*
G03*
X1347450Y451150I-1250J0D01*
G01*
X1336020Y319070D02*
G03*
X1336020Y319070I-1250J0D01*
G01*
X530670Y521400D02*
G03*
X530670Y521400I-1250J0D01*
G01*
D12*
X610070Y324210D02*
G03*
X610070Y324210I-3000J0D01*
G01*
X1206970Y315320D02*
G03*
X1206970Y315320I-3000J0D01*
G01*
X1140930Y456290D02*
G03*
X1140930Y456290I-3000J0D01*
G01*
X611340Y447400D02*
G03*
X611340Y447400I-3000J0D01*
G01*
X1370800Y441050D02*
G03*
X1370800Y441050I-3000J0D01*
G01*
X1359370Y308970D02*
G03*
X1359370Y308970I-3000J0D01*
G01*
D13*
X784860Y1215390D02*
G03*
X759460Y1240790I-25400J0D01*
G01*
Y986790D02*
G03*
X784860Y1012190I0J25400D01*
G01*
X568960D02*
G03*
X594360Y986790I25400J0D01*
G01*
Y1240790D02*
G03*
X568960Y1215390I0J-25400D01*
G01*
X644071Y1224100D02*
G03*
X662032Y1216660I17961J17961D01*
G01*
X701948D02*
G03*
X719909Y1224100I0J25400D01*
G01*
X556560Y661870D02*
X1038560D01*
X556560Y940870D02*
X1038560D01*
X556560Y891370D02*
Y940870D01*
Y661870D02*
Y711370D01*
X494560D02*
X556560D01*
X494560D02*
Y891370D01*
X556560D01*
X1038560Y661870D02*
Y760670D01*
X1047560D01*
Y841970D01*
X1038560D02*
X1047560D01*
X1038560D02*
Y940870D01*
X736600Y1240790D02*
X759460D01*
X784860Y1012190D02*
Y1215390D01*
X594360Y986790D02*
X759460D01*
X568960Y1012190D02*
Y1215390D01*
X594360Y1240790D02*
X627380D01*
X644070Y1224100D01*
X662031Y1216660D02*
X701949D01*
X719910Y1224100D02*
X736600Y1240790D01*
D14*
X740791Y111379D02*
X725556D01*
Y118996D01*
X728095Y121536D01*
X733174D01*
X735713Y118996D01*
Y111379D01*
X728095Y126614D02*
X725556Y129153D01*
Y134232D01*
X728095Y136771D01*
X730634D01*
X733174Y134232D01*
X735713Y136771D01*
X738252D01*
X740791Y134232D01*
Y129153D01*
X738252Y126614D01*
X735713D01*
X733174Y129153D01*
X730634Y126614D01*
X728095D01*
X733174Y129153D02*
Y134232D01*
X971931Y108259D02*
X956696D01*
Y115877D01*
X959235Y118416D01*
X964313D01*
X966853Y115877D01*
Y108259D01*
X956696Y123494D02*
Y133651D01*
X959235D01*
X969392Y123494D01*
X971931D01*
X1571371Y106989D02*
X1556136D01*
Y114607D01*
X1558675Y117146D01*
X1563753D01*
X1566293Y114607D01*
Y106989D01*
X1556136Y132381D02*
Y122224D01*
X1563753D01*
X1561214Y127303D01*
Y129842D01*
X1563753Y132381D01*
X1568832D01*
X1571371Y129842D01*
Y124763D01*
X1568832Y122224D01*
X1797431Y106989D02*
X1782196D01*
Y114607D01*
X1784735Y117146D01*
X1789813D01*
X1792353Y114607D01*
Y106989D01*
X1797431Y129842D02*
X1782196D01*
X1789813Y122224D01*
Y132381D01*
X1955419Y1290011D02*
X1970654D01*
Y1282393D01*
X1968115Y1279854D01*
X1963037D01*
X1960497Y1282393D01*
Y1290011D01*
X1968115Y1274776D02*
X1970654Y1272237D01*
Y1267158D01*
X1968115Y1264619D01*
X1965576D01*
X1963037Y1267158D01*
Y1269697D01*
Y1267158D01*
X1960497Y1264619D01*
X1957958D01*
X1955419Y1267158D01*
Y1272237D01*
X1957958Y1274776D01*
X1728089Y1291281D02*
X1743324D01*
Y1283663D01*
X1740785Y1281124D01*
X1735707D01*
X1733167Y1283663D01*
Y1291281D01*
X1728089Y1265889D02*
Y1276046D01*
X1738246Y1265889D01*
X1740785D01*
X1743324Y1268428D01*
Y1273507D01*
X1740785Y1276046D01*
X503301Y110799D02*
X488066D01*
Y118417D01*
X490605Y120956D01*
X495683D01*
X498223Y118417D01*
Y110799D01*
X503301Y126034D02*
Y131113D01*
Y128573D01*
X488066D01*
X490605Y126034D01*
X1342771Y106989D02*
X1327536D01*
Y114607D01*
X1330075Y117146D01*
X1335153D01*
X1337693Y114607D01*
Y106989D01*
X1327536Y132381D02*
X1330075Y127303D01*
X1335153Y122224D01*
X1340232D01*
X1342771Y124763D01*
Y129842D01*
X1340232Y132381D01*
X1337693D01*
X1335153Y129842D01*
Y122224D01*
X1108329Y491866D02*
Y479170D01*
X1110868Y476631D01*
X1115947D01*
X1118486Y479170D01*
Y491866D01*
X1131182Y476631D02*
Y491866D01*
X1123564Y484249D01*
X1133721D01*
X578739Y482976D02*
Y470280D01*
X581278Y467741D01*
X586357D01*
X588896Y470280D01*
Y482976D01*
X593974Y480437D02*
X596513Y482976D01*
X601592D01*
X604131Y480437D01*
Y477898D01*
X601592Y475359D01*
X599052D01*
X601592D01*
X604131Y472819D01*
Y470280D01*
X601592Y467741D01*
X596513D01*
X593974Y470280D01*
X580008Y359786D02*
Y347090D01*
X582547Y344551D01*
X587626D01*
X590165Y347090D01*
Y359786D01*
X595243Y344551D02*
X600322D01*
X597782D01*
Y359786D01*
X595243Y357247D01*
X1174369Y350896D02*
Y338200D01*
X1176908Y335661D01*
X1181986D01*
X1184526Y338200D01*
Y350896D01*
X1199761D02*
X1189604D01*
Y343279D01*
X1194682Y345818D01*
X1197222D01*
X1199761Y343279D01*
Y338200D01*
X1197222Y335661D01*
X1192143D01*
X1189604Y338200D01*
X1696339Y754509D02*
X1681104D01*
Y762127D01*
X1683643Y764666D01*
X1688721D01*
X1691261Y762127D01*
Y754509D01*
Y759587D02*
X1696339Y764666D01*
Y769744D02*
Y774822D01*
Y772283D01*
X1681104D01*
X1683643Y769744D01*
X1693800Y782440D02*
X1696339Y784979D01*
Y790058D01*
X1693800Y792597D01*
X1683643D01*
X1681104Y790058D01*
Y784979D01*
X1683643Y782440D01*
X1686182D01*
X1688721Y784979D01*
Y792597D01*
X1942211Y839341D02*
X1957446D01*
Y831723D01*
X1954907Y829184D01*
X1949829D01*
X1947289Y831723D01*
Y839341D01*
Y834262D02*
X1942211Y829184D01*
Y813949D02*
Y824105D01*
X1952368Y813949D01*
X1954907D01*
X1957446Y816488D01*
Y821566D01*
X1954907Y824105D01*
X1957446Y798714D02*
Y808870D01*
X1949829D01*
X1952368Y803792D01*
Y801253D01*
X1949829Y798714D01*
X1944750D01*
X1942211Y801253D01*
Y806331D01*
X1944750Y808870D01*
X1531239Y598299D02*
X1516004D01*
Y605917D01*
X1518543Y608456D01*
X1523621D01*
X1526161Y605917D01*
Y598299D01*
Y603378D02*
X1531239Y608456D01*
Y623691D02*
Y613535D01*
X1521082Y623691D01*
X1518543D01*
X1516004Y621152D01*
Y616074D01*
X1518543Y613535D01*
X1516004Y638926D02*
X1518543Y633848D01*
X1523621Y628770D01*
X1528700D01*
X1531239Y631309D01*
Y636387D01*
X1528700Y638926D01*
X1526161D01*
X1523621Y636387D01*
Y628770D01*
X1989201Y643763D02*
X2004436D01*
Y636146D01*
X2001897Y633606D01*
X1996819D01*
X1994279Y636146D01*
Y643763D01*
Y638685D02*
X1989201Y633606D01*
Y618371D02*
Y628528D01*
X1999358Y618371D01*
X2001897D01*
X2004436Y620910D01*
Y625989D01*
X2001897Y628528D01*
X1273940Y336931D02*
Y352166D01*
X1281557D01*
X1284096Y349627D01*
Y344548D01*
X1281557Y342009D01*
X1273940D01*
X1279018D02*
X1284096Y336931D01*
X1289174Y349627D02*
X1291714Y352166D01*
X1296792D01*
X1299331Y349627D01*
Y347088D01*
X1296792Y344548D01*
X1294253D01*
X1296792D01*
X1299331Y342009D01*
Y339470D01*
X1296792Y336931D01*
X1291714D01*
X1289174Y339470D01*
X1304410Y349627D02*
X1306949Y352166D01*
X1312027D01*
X1314566Y349627D01*
Y347088D01*
X1312027Y344548D01*
X1309488D01*
X1312027D01*
X1314566Y342009D01*
Y339470D01*
X1312027Y336931D01*
X1306949D01*
X1304410Y339470D01*
X1106040Y221869D02*
Y206634D01*
X1098423D01*
X1095884Y209173D01*
Y214251D01*
X1098423Y216791D01*
X1106040D01*
X1100962D02*
X1095884Y221869D01*
X1090806Y209173D02*
X1088266Y206634D01*
X1083188D01*
X1080649Y209173D01*
Y211712D01*
X1083188Y214251D01*
X1085727D01*
X1083188D01*
X1080649Y216791D01*
Y219330D01*
X1083188Y221869D01*
X1088266D01*
X1090806Y219330D01*
X1075570Y209173D02*
X1073031Y206634D01*
X1067953D01*
X1065414Y209173D01*
Y219330D01*
X1067953Y221869D01*
X1073031D01*
X1075570Y219330D01*
Y209173D01*
X1161921Y212979D02*
Y197744D01*
X1154304D01*
X1151765Y200283D01*
Y205361D01*
X1154304Y207901D01*
X1161921D01*
X1156843D02*
X1151765Y212979D01*
X1146686Y200283D02*
X1144147Y197744D01*
X1139069D01*
X1136530Y200283D01*
Y202822D01*
X1139069Y205361D01*
X1141608D01*
X1139069D01*
X1136530Y207901D01*
Y210440D01*
X1139069Y212979D01*
X1144147D01*
X1146686Y210440D01*
X1131451Y212979D02*
X1126373D01*
X1128912D01*
Y197744D01*
X1131451Y200283D01*
X1202820Y482981D02*
Y498216D01*
X1210437D01*
X1212976Y495677D01*
Y490598D01*
X1210437Y488059D01*
X1202820D01*
X1207898D02*
X1212976Y482981D01*
X1218055Y495677D02*
X1220594Y498216D01*
X1225672D01*
X1228211Y495677D01*
Y493138D01*
X1225672Y490598D01*
X1223133D01*
X1225672D01*
X1228211Y488059D01*
Y485520D01*
X1225672Y482981D01*
X1220594D01*
X1218055Y485520D01*
X1243446Y482981D02*
X1233290D01*
X1243446Y493138D01*
Y495677D01*
X1240907Y498216D01*
X1235829D01*
X1233290Y495677D01*
X542160Y310769D02*
Y295534D01*
X534543D01*
X532004Y298073D01*
Y303151D01*
X534543Y305691D01*
X542160D01*
X537082D02*
X532004Y310769D01*
X516769D02*
X526926D01*
X516769Y300612D01*
Y298073D01*
X519308Y295534D01*
X524386D01*
X526926Y298073D01*
X511690Y308230D02*
X509151Y310769D01*
X504073D01*
X501534Y308230D01*
Y298073D01*
X504073Y295534D01*
X509151D01*
X511690Y298073D01*
Y300612D01*
X509151Y303151D01*
X501534D01*
X1730629Y576710D02*
X1715394D01*
Y584327D01*
X1717933Y586866D01*
X1723011D01*
X1725551Y584327D01*
Y576710D01*
Y581788D02*
X1730629Y586866D01*
Y602101D02*
Y591945D01*
X1720472Y602101D01*
X1717933D01*
X1715394Y599562D01*
Y594484D01*
X1717933Y591945D01*
X1730629Y617336D02*
Y607180D01*
X1720472Y617336D01*
X1717933D01*
X1715394Y614797D01*
Y609719D01*
X1717933Y607180D01*
X1910969Y584327D02*
X1895734D01*
Y591945D01*
X1898273Y594484D01*
X1903351D01*
X1905891Y591945D01*
Y584327D01*
Y589405D02*
X1910969Y594484D01*
Y607180D02*
X1895734D01*
X1903351Y599562D01*
Y609719D01*
X533530Y387731D02*
Y402966D01*
X541147D01*
X543686Y400427D01*
Y395349D01*
X541147Y392809D01*
X533530D01*
X538608D02*
X543686Y387731D01*
X558921D02*
X548764D01*
X558921Y397888D01*
Y400427D01*
X556382Y402966D01*
X551304D01*
X548764Y400427D01*
X564000D02*
X566539Y402966D01*
X571617D01*
X574156Y400427D01*
Y397888D01*
X571617Y395349D01*
X574156Y392809D01*
Y390270D01*
X571617Y387731D01*
X566539D01*
X564000Y390270D01*
Y392809D01*
X566539Y395349D01*
X564000Y397888D01*
Y400427D01*
X566539Y395349D02*
X571617D01*
X1598041Y676780D02*
X1613276D01*
Y669163D01*
X1610737Y666624D01*
X1605659D01*
X1603119Y669163D01*
Y676780D01*
Y671702D02*
X1598041Y666624D01*
Y651389D02*
Y661545D01*
X1608198Y651389D01*
X1610737D01*
X1613276Y653928D01*
Y659006D01*
X1610737Y661545D01*
X1598041Y638693D02*
X1613276D01*
X1605659Y646310D01*
Y636154D01*
X1774571Y827911D02*
X1789806D01*
Y820294D01*
X1787267Y817755D01*
X1782189D01*
X1779649Y820294D01*
Y827911D01*
Y822833D02*
X1774571Y817755D01*
Y802520D02*
Y812676D01*
X1784728Y802520D01*
X1787267D01*
X1789806Y805059D01*
Y810137D01*
X1787267Y812676D01*
X1774571Y797441D02*
Y792363D01*
Y794902D01*
X1789806D01*
X1787267Y797441D01*
X1797431Y648840D02*
X1812666D01*
Y641223D01*
X1810127Y638684D01*
X1805049D01*
X1802509Y641223D01*
Y648840D01*
Y643762D02*
X1797431Y638684D01*
Y623449D02*
Y633605D01*
X1807588Y623449D01*
X1810127D01*
X1812666Y625988D01*
Y631066D01*
X1810127Y633605D01*
Y618370D02*
X1812666Y615831D01*
Y610753D01*
X1810127Y608214D01*
X1799970D01*
X1797431Y610753D01*
Y615831D01*
X1799970Y618370D01*
X1810127D01*
X1441579Y477901D02*
Y493136D01*
X1449197D01*
X1451736Y490597D01*
Y485518D01*
X1449197Y482979D01*
X1441579D01*
X1446658D02*
X1451736Y477901D01*
X1466971D02*
X1456815D01*
X1466971Y488058D01*
Y490597D01*
X1464432Y493136D01*
X1459354D01*
X1456815Y490597D01*
X1472050Y493136D02*
X1482206D01*
Y490597D01*
X1472050Y480440D01*
Y477901D01*
X1861439Y762130D02*
X1846204D01*
Y769747D01*
X1848743Y772286D01*
X1853822D01*
X1856361Y769747D01*
Y762130D01*
Y767208D02*
X1861439Y772286D01*
Y787521D02*
Y777365D01*
X1851282Y787521D01*
X1848743D01*
X1846204Y784982D01*
Y779904D01*
X1848743Y777365D01*
Y792600D02*
X1846204Y795139D01*
Y800217D01*
X1848743Y802756D01*
X1851282D01*
X1853822Y800217D01*
Y797678D01*
Y800217D01*
X1856361Y802756D01*
X1858900D01*
X1861439Y800217D01*
Y795139D01*
X1858900Y792600D01*
X1599311Y822833D02*
X1614546D01*
Y815216D01*
X1612007Y812676D01*
X1606929D01*
X1604389Y815216D01*
Y822833D01*
Y817755D02*
X1599311Y812676D01*
X1612007Y807598D02*
X1614546Y805059D01*
Y799980D01*
X1612007Y797441D01*
X1609468D01*
X1606929Y799980D01*
Y802520D01*
Y799980D01*
X1604389Y797441D01*
X1601850D01*
X1599311Y799980D01*
Y805059D01*
X1601850Y807598D01*
X1514729Y759586D02*
X1499494D01*
Y767204D01*
X1502033Y769743D01*
X1507112D01*
X1509651Y767204D01*
Y759586D01*
Y764665D02*
X1514729Y769743D01*
Y774821D02*
Y779900D01*
Y777360D01*
X1499494D01*
X1502033Y774821D01*
X1695590Y823342D02*
Y813185D01*
X1698129Y810646D01*
X1703208D01*
X1705747Y813185D01*
Y823342D01*
X1703208Y825881D01*
X1698129D01*
X1700669Y820803D02*
X1695590Y825881D01*
X1698129D02*
X1695590Y823342D01*
X1690512Y810646D02*
X1680355D01*
Y813185D01*
X1690512Y823342D01*
Y825881D01*
X904874Y465962D02*
Y476119D01*
X902335Y478658D01*
X897256D01*
X894717Y476119D01*
Y465962D01*
X897256Y463423D01*
X902335D01*
X899795Y468501D02*
X904874Y463423D01*
X902335D02*
X904874Y465962D01*
X909952Y463423D02*
X915031D01*
X912491D01*
Y478658D01*
X909952Y476119D01*
X922648Y478658D02*
X932805D01*
Y476119D01*
X922648Y465962D01*
Y463423D01*
X1975992Y563248D02*
X1986149D01*
X1988688Y565788D01*
Y570866D01*
X1986149Y573405D01*
X1975992D01*
X1973453Y570866D01*
Y565788D01*
X1978531Y568327D02*
X1973453Y563248D01*
Y565788D02*
X1975992Y563248D01*
X1973453Y548013D02*
Y558170D01*
X1983610Y548013D01*
X1986149D01*
X1988688Y550552D01*
Y555631D01*
X1986149Y558170D01*
X1607692Y607948D02*
Y618105D01*
X1605153Y620644D01*
X1600074D01*
X1597535Y618105D01*
Y607948D01*
X1600074Y605409D01*
X1605153D01*
X1602613Y610487D02*
X1607692Y605409D01*
X1605153D02*
X1607692Y607948D01*
X1612770Y605409D02*
X1617849D01*
X1615309D01*
Y620644D01*
X1612770Y618105D01*
X1635623Y605409D02*
X1625466D01*
X1635623Y615566D01*
Y618105D01*
X1633084Y620644D01*
X1628005D01*
X1625466Y618105D01*
X987424Y465962D02*
Y476119D01*
X984885Y478658D01*
X979806D01*
X977267Y476119D01*
Y465962D01*
X979806Y463423D01*
X984885D01*
X982345Y468501D02*
X987424Y463423D01*
X984885D02*
X987424Y465962D01*
X992502Y463423D02*
X997580D01*
X995041D01*
Y478658D01*
X992502Y476119D01*
X1005198D02*
X1007737Y478658D01*
X1012816D01*
X1015355Y476119D01*
Y473580D01*
X1012816Y471040D01*
X1015355Y468501D01*
Y465962D01*
X1012816Y463423D01*
X1007737D01*
X1005198Y465962D01*
Y468501D01*
X1007737Y471040D01*
X1005198Y473580D01*
Y476119D01*
X1007737Y471040D02*
X1012816D01*
X785494Y465962D02*
Y476119D01*
X782955Y478658D01*
X777876D01*
X775337Y476119D01*
Y465962D01*
X777876Y463423D01*
X782955D01*
X780415Y468501D02*
X785494Y463423D01*
X782955D02*
X785494Y465962D01*
X790572Y463423D02*
X795650D01*
X793111D01*
Y478658D01*
X790572Y476119D01*
X813425Y478658D02*
X803268D01*
Y471040D01*
X808346Y473580D01*
X810886D01*
X813425Y471040D01*
Y465962D01*
X810886Y463423D01*
X805807D01*
X803268Y465962D01*
X723264D02*
Y476119D01*
X720725Y478658D01*
X715646D01*
X713107Y476119D01*
Y465962D01*
X715646Y463423D01*
X720725D01*
X718185Y468501D02*
X723264Y463423D01*
X720725D02*
X723264Y465962D01*
X728342Y463423D02*
X733420D01*
X730881D01*
Y478658D01*
X728342Y476119D01*
X748656Y463423D02*
Y478658D01*
X741038Y471040D01*
X751195D01*
X845184Y465962D02*
Y476119D01*
X842645Y478658D01*
X837566D01*
X835027Y476119D01*
Y465962D01*
X837566Y463423D01*
X842645D01*
X840105Y468501D02*
X845184Y463423D01*
X842645D02*
X845184Y465962D01*
X850262Y463423D02*
X855340D01*
X852801D01*
Y478658D01*
X850262Y476119D01*
X873115Y478658D02*
X868036Y476119D01*
X862958Y471040D01*
Y465962D01*
X865497Y463423D01*
X870576D01*
X873115Y465962D01*
Y468501D01*
X870576Y471040D01*
X862958D01*
X1047114Y465962D02*
Y476119D01*
X1044575Y478658D01*
X1039496D01*
X1036957Y476119D01*
Y465962D01*
X1039496Y463423D01*
X1044575D01*
X1042035Y468501D02*
X1047114Y463423D01*
X1044575D02*
X1047114Y465962D01*
X1052192Y463423D02*
X1057271D01*
X1054731D01*
Y478658D01*
X1052192Y476119D01*
X1064888Y465962D02*
X1067427Y463423D01*
X1072506D01*
X1075045Y465962D01*
Y476119D01*
X1072506Y478658D01*
X1067427D01*
X1064888Y476119D01*
Y473580D01*
X1067427Y471040D01*
X1075045D01*
X1865759Y830962D02*
Y820805D01*
X1868298Y818266D01*
X1873377D01*
X1875916Y820805D01*
Y830962D01*
X1873377Y833501D01*
X1868298D01*
X1870837Y828423D02*
X1865759Y833501D01*
X1868298D02*
X1865759Y830962D01*
X1860681Y833501D02*
X1855602D01*
X1858141D01*
Y818266D01*
X1860681Y820805D01*
X1847985Y833501D02*
X1842906D01*
X1845446D01*
Y818266D01*
X1847985Y820805D01*
X1593722Y584836D02*
X1603879D01*
X1606418Y587375D01*
Y592454D01*
X1603879Y594993D01*
X1593722D01*
X1591183Y592454D01*
Y587375D01*
X1596261Y589915D02*
X1591183Y584836D01*
Y587375D02*
X1593722Y584836D01*
X1591183Y579758D02*
Y574679D01*
Y577219D01*
X1606418D01*
X1603879Y579758D01*
Y567062D02*
X1606418Y564523D01*
Y559444D01*
X1603879Y556905D01*
X1593722D01*
X1591183Y559444D01*
Y564523D01*
X1593722Y567062D01*
X1603879D01*
X1540638Y847721D02*
X1530481D01*
X1527942Y845182D01*
Y840103D01*
X1530481Y837564D01*
X1540638D01*
X1543177Y840103D01*
Y845182D01*
X1538099Y842643D02*
X1543177Y847721D01*
Y845182D02*
X1540638Y847721D01*
X1543177Y852799D02*
Y857878D01*
Y855338D01*
X1527942D01*
X1530481Y852799D01*
X1989960Y578738D02*
Y588895D01*
X1987421Y591434D01*
X1982342D01*
X1979803Y588895D01*
Y578738D01*
X1982342Y576199D01*
X1987421D01*
X1984881Y581277D02*
X1989960Y576199D01*
X1987421D02*
X1989960Y578738D01*
X2002656Y576199D02*
Y591434D01*
X1995038Y583816D01*
X2005195D01*
X1522870Y820802D02*
Y810645D01*
X1525410Y808106D01*
X1530488D01*
X1533027Y810645D01*
Y820802D01*
X1530488Y823341D01*
X1525410D01*
X1527949Y818263D02*
X1522870Y823341D01*
X1525410D02*
X1522870Y820802D01*
X1517792Y810645D02*
X1515253Y808106D01*
X1510174D01*
X1507635Y810645D01*
Y813184D01*
X1510174Y815723D01*
X1512714D01*
X1510174D01*
X1507635Y818263D01*
Y820802D01*
X1510174Y823341D01*
X1515253D01*
X1517792Y820802D01*
X1477148Y260732D02*
Y250575D01*
X1479687Y248036D01*
X1484766D01*
X1487305Y250575D01*
Y260732D01*
X1484766Y263271D01*
X1479687D01*
X1482227Y258193D02*
X1477148Y263271D01*
X1479687D02*
X1477148Y260732D01*
X1472070Y263271D02*
X1466991D01*
X1469531D01*
Y248036D01*
X1472070Y250575D01*
X1459374D02*
X1456835Y248036D01*
X1451756D01*
X1449217Y250575D01*
Y253114D01*
X1451756Y255653D01*
X1454296D01*
X1451756D01*
X1449217Y258193D01*
Y260732D01*
X1451756Y263271D01*
X1456835D01*
X1459374Y260732D01*
X1708278Y852802D02*
X1698121D01*
X1695582Y850263D01*
Y845184D01*
X1698121Y842645D01*
X1708278D01*
X1710817Y845184D01*
Y850263D01*
X1705739Y847723D02*
X1710817Y852802D01*
Y850263D02*
X1708278Y852802D01*
X1695582Y868037D02*
Y857880D01*
X1703199D01*
X1700660Y862958D01*
Y865498D01*
X1703199Y868037D01*
X1708278D01*
X1710817Y865498D01*
Y860419D01*
X1708278Y857880D01*
X1791842Y563248D02*
X1801999D01*
X1804538Y565788D01*
Y570866D01*
X1801999Y573405D01*
X1791842D01*
X1789303Y570866D01*
Y565788D01*
X1794381Y568327D02*
X1789303Y563248D01*
Y565788D02*
X1791842Y563248D01*
X1804538Y548013D02*
X1801999Y553092D01*
X1796920Y558170D01*
X1791842D01*
X1789303Y555631D01*
Y550552D01*
X1791842Y548013D01*
X1794381D01*
X1796920Y550552D01*
Y558170D01*
X1874648Y859152D02*
X1864491D01*
X1861952Y856612D01*
Y851534D01*
X1864491Y848995D01*
X1874648D01*
X1877187Y851534D01*
Y856612D01*
X1872109Y854073D02*
X1877187Y859152D01*
Y856612D02*
X1874648Y859152D01*
Y864230D02*
X1877187Y866769D01*
Y871848D01*
X1874648Y874387D01*
X1864491D01*
X1861952Y871848D01*
Y866769D01*
X1864491Y864230D01*
X1867030D01*
X1869570Y866769D01*
Y874387D01*
X1809620Y574928D02*
Y585085D01*
X1807081Y587624D01*
X1802002D01*
X1799463Y585085D01*
Y574928D01*
X1802002Y572389D01*
X1807081D01*
X1804541Y577467D02*
X1809620Y572389D01*
X1807081D02*
X1809620Y574928D01*
X1814698Y585085D02*
X1817237Y587624D01*
X1822316D01*
X1824855Y585085D01*
Y582546D01*
X1822316Y580006D01*
X1824855Y577467D01*
Y574928D01*
X1822316Y572389D01*
X1817237D01*
X1814698Y574928D01*
Y577467D01*
X1817237Y580006D01*
X1814698Y582546D01*
Y585085D01*
X1817237Y580006D02*
X1822316D01*
X1820799Y225684D02*
Y240919D01*
Y235841D01*
X1810642Y225684D01*
X1818260Y233302D01*
X1810642Y240919D01*
X1797946D02*
Y225684D01*
X1805564Y233302D01*
X1795407D01*
X1672971Y1199256D02*
Y1184021D01*
Y1189099D01*
X1683128Y1199256D01*
X1675510Y1191638D01*
X1683128Y1184021D01*
X1688206Y1196717D02*
X1690745Y1199256D01*
X1695824D01*
X1698363Y1196717D01*
Y1194178D01*
X1695824Y1191638D01*
X1693284D01*
X1695824D01*
X1698363Y1189099D01*
Y1186560D01*
X1695824Y1184021D01*
X1690745D01*
X1688206Y1186560D01*
X1841881Y1199256D02*
Y1184021D01*
Y1189099D01*
X1852038Y1199256D01*
X1844420Y1191638D01*
X1852038Y1184021D01*
X1867273Y1199256D02*
X1857116D01*
Y1191638D01*
X1862194Y1194178D01*
X1864734D01*
X1867273Y1191638D01*
Y1186560D01*
X1864734Y1184021D01*
X1859655D01*
X1857116Y1186560D01*
X1650309Y224804D02*
Y240039D01*
Y234961D01*
X1640152Y224804D01*
X1647770Y232421D01*
X1640152Y240039D01*
X1624917Y224804D02*
X1629996Y227343D01*
X1635074Y232421D01*
Y237500D01*
X1632535Y240039D01*
X1627456D01*
X1624917Y237500D01*
Y234961D01*
X1627456Y232421D01*
X1635074D01*
X1506290Y1200216D02*
Y1184981D01*
Y1190059D01*
X1516447Y1200216D01*
X1508829Y1192598D01*
X1516447Y1184981D01*
X1521525D02*
X1526604D01*
X1524064D01*
Y1200216D01*
X1521525Y1197677D01*
X1990979Y225684D02*
Y240919D01*
Y235841D01*
X1980822Y225684D01*
X1988440Y233302D01*
X1980822Y240919D01*
X1965587D02*
X1975744D01*
X1965587Y230762D01*
Y228223D01*
X1968126Y225684D01*
X1973205D01*
X1975744Y228223D01*
X1039493Y214762D02*
Y229997D01*
X1031875D01*
X1029336Y227458D01*
Y217301D01*
X1031875Y214762D01*
X1039493D01*
X1024258Y229997D02*
X1019180D01*
X1021719D01*
Y214762D01*
X1024258Y217301D01*
X1001405Y229997D02*
X1011562D01*
X1001405Y219840D01*
Y217301D01*
X1003944Y214762D01*
X1009023D01*
X1011562Y217301D01*
X907413Y226192D02*
Y241427D01*
X899795D01*
X897256Y238888D01*
Y228731D01*
X899795Y226192D01*
X907413D01*
X892178Y241427D02*
X887100D01*
X889639D01*
Y226192D01*
X892178Y228731D01*
X879482D02*
X876943Y226192D01*
X871864D01*
X869325Y228731D01*
Y238888D01*
X871864Y241427D01*
X876943D01*
X879482Y238888D01*
Y228731D01*
X788035Y222382D02*
Y237617D01*
X780417D01*
X777878Y235078D01*
Y224921D01*
X780417Y222382D01*
X788035D01*
X772800Y224921D02*
X770261Y222382D01*
X765182D01*
X762643Y224921D01*
Y227460D01*
X765182Y230000D01*
X762643Y232539D01*
Y235078D01*
X765182Y237617D01*
X770261D01*
X772800Y235078D01*
Y232539D01*
X770261Y230000D01*
X772800Y227460D01*
Y224921D01*
X770261Y230000D02*
X765182D01*
X732155Y221112D02*
Y236347D01*
X724538D01*
X721998Y233808D01*
Y223651D01*
X724538Y221112D01*
X732155D01*
X716920D02*
X706763D01*
Y223651D01*
X716920Y233808D01*
Y236347D01*
X974724Y216032D02*
Y231267D01*
X967106D01*
X964567Y228728D01*
Y218571D01*
X967106Y216032D01*
X974724D01*
X959489Y231267D02*
X954410D01*
X956949D01*
Y216032D01*
X959489Y218571D01*
X946793Y231267D02*
X941714D01*
X944254D01*
Y216032D01*
X946793Y218571D01*
X845185Y223652D02*
Y238887D01*
X837568D01*
X835028Y236348D01*
Y226191D01*
X837568Y223652D01*
X845185D01*
X829950Y236348D02*
X827411Y238887D01*
X822332D01*
X819793Y236348D01*
Y226191D01*
X822332Y223652D01*
X827411D01*
X829950Y226191D01*
Y228730D01*
X827411Y231269D01*
X819793D01*
X1678056Y911225D02*
X1693291D01*
Y918842D01*
X1690752Y921382D01*
X1680595D01*
X1678056Y918842D01*
Y911225D01*
Y936617D02*
Y926460D01*
X1685674D01*
X1683134Y931538D01*
Y934078D01*
X1685674Y936617D01*
X1690752D01*
X1693291Y934078D01*
Y928999D01*
X1690752Y926460D01*
X1646804Y512445D02*
X1631569D01*
Y504827D01*
X1634108Y502288D01*
X1644265D01*
X1646804Y504827D01*
Y512445D01*
Y487053D02*
X1644265Y492132D01*
X1639187Y497210D01*
X1634108D01*
X1631569Y494671D01*
Y489592D01*
X1634108Y487053D01*
X1636647D01*
X1639187Y489592D01*
Y497210D01*
X1815714Y513715D02*
X1800479D01*
Y506097D01*
X1803018Y503558D01*
X1813175D01*
X1815714Y506097D01*
Y513715D01*
X1800479Y490862D02*
X1815714D01*
X1808096Y498480D01*
Y488323D01*
X1509146Y911224D02*
X1524381D01*
Y918842D01*
X1521842Y921381D01*
X1511685D01*
X1509146Y918842D01*
Y911224D01*
X1524381Y926459D02*
Y931538D01*
Y928998D01*
X1509146D01*
X1511685Y926459D01*
X1846966Y912495D02*
X1862201D01*
Y920113D01*
X1859662Y922652D01*
X1849505D01*
X1846966Y920113D01*
Y912495D01*
X1849505Y927730D02*
X1846966Y930269D01*
Y935348D01*
X1849505Y937887D01*
X1852044D01*
X1854583Y935348D01*
Y932808D01*
Y935348D01*
X1857123Y937887D01*
X1859662D01*
X1862201Y935348D01*
Y930269D01*
X1859662Y927730D01*
X1983354Y511175D02*
X1968119D01*
Y503558D01*
X1970658Y501018D01*
X1980815D01*
X1983354Y503558D01*
Y511175D01*
X1968119Y485783D02*
Y495940D01*
X1978276Y485783D01*
X1980815D01*
X1983354Y488322D01*
Y493401D01*
X1980815Y495940D01*
X1065403Y221869D02*
Y206634D01*
X1057785D01*
X1055246Y209173D01*
Y214251D01*
X1057785Y216791D01*
X1065403D01*
X1060325D02*
X1055246Y221869D01*
X1050168D02*
X1045090D01*
X1047629D01*
Y206634D01*
X1050168Y209173D01*
X1037472D02*
X1034933Y206634D01*
X1029855D01*
X1027315Y209173D01*
Y211712D01*
X1029855Y214251D01*
X1027315Y216791D01*
Y219330D01*
X1029855Y221869D01*
X1034933D01*
X1037472Y219330D01*
Y216791D01*
X1034933Y214251D01*
X1037472Y211712D01*
Y209173D01*
X1034933Y214251D02*
X1029855D01*
X1003173Y219329D02*
Y204094D01*
X995555D01*
X993016Y206633D01*
Y211712D01*
X995555Y214251D01*
X1003173D01*
X998095D02*
X993016Y219329D01*
X987938D02*
X982860D01*
X985399D01*
Y204094D01*
X987938Y206633D01*
X975242Y204094D02*
X965085D01*
Y206633D01*
X975242Y216790D01*
Y219329D01*
X930783Y233299D02*
Y218064D01*
X923166D01*
X920626Y220603D01*
Y225681D01*
X923166Y228221D01*
X930783D01*
X925705D02*
X920626Y233299D01*
X915548D02*
X910470D01*
X913009D01*
Y218064D01*
X915548Y220603D01*
X892695Y218064D02*
X897774Y220603D01*
X902852Y225681D01*
Y230760D01*
X900313Y233299D01*
X895235D01*
X892695Y230760D01*
Y228221D01*
X895235Y225681D01*
X902852D01*
X874903Y232029D02*
Y216794D01*
X867286D01*
X864746Y219333D01*
Y224412D01*
X867286Y226951D01*
X874903D01*
X869825D02*
X864746Y232029D01*
X859668D02*
X854590D01*
X857129D01*
Y216794D01*
X859668Y219333D01*
X836815Y216794D02*
X846972D01*
Y224412D01*
X841894Y221872D01*
X839354D01*
X836815Y224412D01*
Y229490D01*
X839354Y232029D01*
X844433D01*
X846972Y229490D01*
X819023Y232029D02*
Y216794D01*
X811405D01*
X808866Y219333D01*
Y224412D01*
X811405Y226951D01*
X819023D01*
X813945D02*
X808866Y232029D01*
X803788D02*
X798710D01*
X801249D01*
Y216794D01*
X803788Y219333D01*
X783475Y232029D02*
Y216794D01*
X791092Y224412D01*
X780935D01*
X761873Y228219D02*
Y212984D01*
X754256D01*
X751716Y215523D01*
Y220602D01*
X754256Y223141D01*
X761873D01*
X756795D02*
X751716Y228219D01*
X746638D02*
X741560D01*
X744099D01*
Y212984D01*
X746638Y215523D01*
X733942D02*
X731403Y212984D01*
X726324D01*
X723785Y215523D01*
Y218062D01*
X726324Y220602D01*
X728864D01*
X726324D01*
X723785Y223141D01*
Y225680D01*
X726324Y228219D01*
X731403D01*
X733942Y225680D01*
X1326769Y344546D02*
Y331850D01*
X1329308Y329311D01*
X1334386D01*
X1336926Y331850D01*
Y344546D01*
X1342004D02*
X1352161D01*
Y342007D01*
X1342004Y331850D01*
Y329311D01*
X1338199Y476626D02*
Y463930D01*
X1340738Y461391D01*
X1345816D01*
X1348356Y463930D01*
Y476626D01*
X1363591D02*
X1358512Y474087D01*
X1353434Y469008D01*
Y463930D01*
X1355973Y461391D01*
X1361052D01*
X1363591Y463930D01*
Y466469D01*
X1361052Y469008D01*
X1353434D01*
X1149731Y497713D02*
X1164966D01*
Y490095D01*
X1162427Y487556D01*
X1157348D01*
X1154809Y490095D01*
Y497713D01*
Y492635D02*
X1149731Y487556D01*
Y482478D02*
Y477400D01*
Y479939D01*
X1164966D01*
X1162427Y482478D01*
X1149731Y459625D02*
Y469782D01*
X1159888Y459625D01*
X1162427D01*
X1164966Y462164D01*
Y467243D01*
X1162427Y469782D01*
X879729Y497967D02*
X864494D01*
Y505584D01*
X867033Y508124D01*
X872112D01*
X874651Y505584D01*
Y497967D01*
Y503045D02*
X879729Y508124D01*
Y513202D02*
Y518280D01*
Y515741D01*
X864494D01*
X867033Y513202D01*
X879729Y525898D02*
Y530976D01*
Y528437D01*
X864494D01*
X867033Y525898D01*
X988441Y491363D02*
X1003676D01*
Y483745D01*
X1001137Y481206D01*
X996059D01*
X993519Y483745D01*
Y491363D01*
Y486285D02*
X988441Y481206D01*
Y476128D02*
Y471050D01*
Y473589D01*
X1003676D01*
X1001137Y476128D01*
Y463432D02*
X1003676Y460893D01*
Y455815D01*
X1001137Y453275D01*
X990980D01*
X988441Y455815D01*
Y460893D01*
X990980Y463432D01*
X1001137D01*
X741299Y500507D02*
X726064D01*
Y508125D01*
X728603Y510664D01*
X733681D01*
X736221Y508125D01*
Y500507D01*
Y505585D02*
X741299Y510664D01*
X738760Y515742D02*
X741299Y518281D01*
Y523360D01*
X738760Y525899D01*
X728603D01*
X726064Y523360D01*
Y518281D01*
X728603Y515742D01*
X731142D01*
X733681Y518281D01*
Y525899D01*
X682879Y467487D02*
X667644D01*
Y475104D01*
X670183Y477644D01*
X675262D01*
X677801Y475104D01*
Y467487D01*
Y472565D02*
X682879Y477644D01*
X670183Y482722D02*
X667644Y485261D01*
Y490340D01*
X670183Y492879D01*
X672722D01*
X675262Y490340D01*
X677801Y492879D01*
X680340D01*
X682879Y490340D01*
Y485261D01*
X680340Y482722D01*
X677801D01*
X675262Y485261D01*
X672722Y482722D01*
X670183D01*
X675262Y485261D02*
Y490340D01*
X705993Y333629D02*
Y318394D01*
X698375D01*
X695836Y320933D01*
Y326012D01*
X698375Y328551D01*
X705993D01*
X700915D02*
X695836Y333629D01*
X690758Y318394D02*
X680601D01*
Y320933D01*
X690758Y331090D01*
Y333629D01*
X1262507Y477901D02*
Y493136D01*
X1270125D01*
X1272664Y490597D01*
Y485518D01*
X1270125Y482979D01*
X1262507D01*
X1267585D02*
X1272664Y477901D01*
X1287899Y493136D02*
X1282820Y490597D01*
X1277742Y485518D01*
Y480440D01*
X1280281Y477901D01*
X1285360D01*
X1287899Y480440D01*
Y482979D01*
X1285360Y485518D01*
X1277742D01*
X1304417Y504571D02*
Y519806D01*
X1312034D01*
X1314574Y517267D01*
Y512188D01*
X1312034Y509649D01*
X1304417D01*
X1309495D02*
X1314574Y504571D01*
X1329809Y519806D02*
X1319652D01*
Y512188D01*
X1324730Y514728D01*
X1327270D01*
X1329809Y512188D01*
Y507110D01*
X1327270Y504571D01*
X1322191D01*
X1319652Y507110D01*
X568706Y1266439D02*
Y1253743D01*
X571245Y1251204D01*
X576324D01*
X578863Y1253743D01*
Y1266439D01*
X594098Y1251204D02*
X583941D01*
X594098Y1261361D01*
Y1263900D01*
X591559Y1266439D01*
X586480D01*
X583941Y1263900D01*
X516633Y627121D02*
X511554D01*
X514094D01*
Y614425D01*
X511554Y611886D01*
X509015D01*
X506476Y614425D01*
X521711Y611886D02*
X526789D01*
X524250D01*
Y627121D01*
X521711Y624582D01*
X473964Y941065D02*
Y928369D01*
X476503Y925830D01*
X481581D01*
X484121Y928369D01*
Y941065D01*
M02*
