G04*
G04 #@! TF.GenerationSoftware,Altium Limited,Altium Designer,24.5.2 (23)*
G04*
G04 Layer_Color=16711935*
%FSLAX44Y44*%
%MOMM*%
G71*
G04*
G04 #@! TF.SameCoordinates,3DF9ACDB-7C99-40C3-A0CA-608631173261*
G04*
G04*
G04 #@! TF.FilePolarity,Negative*
G04*
G01*
G75*
%ADD15C,2.6032*%
G04:AMPARAMS|DCode=16|XSize=2.6032mm|YSize=2.6032mm|CornerRadius=0.7016mm|HoleSize=0mm|Usage=FLASHONLY|Rotation=180.000|XOffset=0mm|YOffset=0mm|HoleType=Round|Shape=RoundedRectangle|*
%AMROUNDEDRECTD16*
21,1,2.6032,1.2000,0,0,180.0*
21,1,1.2000,2.6032,0,0,180.0*
1,1,1.4032,-0.6000,0.6000*
1,1,1.4032,0.6000,0.6000*
1,1,1.4032,0.6000,-0.6000*
1,1,1.4032,-0.6000,-0.6000*
%
%ADD16ROUNDEDRECTD16*%
%ADD17R,1.7332X1.7332*%
%ADD18C,1.7332*%
%ADD19C,1.3500*%
%ADD20R,1.3500X1.3500*%
%ADD21C,1.3000*%
%ADD22R,1.3000X1.3000*%
%ADD23C,1.4500*%
%ADD24R,1.4500X1.4500*%
%ADD25C,1.5500*%
%ADD26R,1.5500X1.5500*%
%ADD27C,2.0000*%
%ADD28R,2.0000X2.0000*%
%ADD29R,1.3000X1.3000*%
%ADD30C,1.7032*%
%ADD31R,1.7032X1.7032*%
%ADD32R,1.3500X1.3500*%
%ADD33C,1.2500*%
%ADD34R,1.2500X1.2500*%
%ADD35C,3.2032*%
%ADD36C,2.1336*%
%ADD37R,1.5500X1.5500*%
D15*
X1682750Y1253490D02*
D03*
X1631950D02*
D03*
X1581150D02*
D03*
X1910080Y1252220D02*
D03*
X1859280D02*
D03*
X1808480D02*
D03*
X1842770Y144780D02*
D03*
X1893570D02*
D03*
X1944370D02*
D03*
X1616710D02*
D03*
X1667510D02*
D03*
X1718310D02*
D03*
X1017270Y146050D02*
D03*
X1068070D02*
D03*
X1118870D02*
D03*
X786130Y149170D02*
D03*
X836930D02*
D03*
X887730D02*
D03*
X548640Y148590D02*
D03*
X599440D02*
D03*
X650240D02*
D03*
X1388110Y144780D02*
D03*
X1438910D02*
D03*
X1489710D02*
D03*
D16*
X1530350Y1253490D02*
D03*
X1757680Y1252220D02*
D03*
X1995170Y144780D02*
D03*
X1769110D02*
D03*
X1169670Y146050D02*
D03*
X938530Y149170D02*
D03*
X701040Y148590D02*
D03*
X1540510Y144780D02*
D03*
D17*
X569060Y674370D02*
D03*
D18*
X594460D02*
D03*
X619860D02*
D03*
X645260D02*
D03*
X670660D02*
D03*
X696060D02*
D03*
X721460D02*
D03*
X746860D02*
D03*
X772260D02*
D03*
X797660D02*
D03*
X823060D02*
D03*
X848460D02*
D03*
X873860D02*
D03*
X899260D02*
D03*
X924660D02*
D03*
X950060D02*
D03*
X975460D02*
D03*
X1000860D02*
D03*
X1026260D02*
D03*
Y928370D02*
D03*
X1000860D02*
D03*
X975460D02*
D03*
X950060D02*
D03*
X924660D02*
D03*
X899260D02*
D03*
X873860D02*
D03*
X848460D02*
D03*
X823060D02*
D03*
X797660D02*
D03*
X772260D02*
D03*
X746860D02*
D03*
X721460D02*
D03*
X696060D02*
D03*
X670660D02*
D03*
X645260D02*
D03*
X619860D02*
D03*
X594460D02*
D03*
X569060D02*
D03*
D19*
X1574800Y576580D02*
D03*
Y551180D02*
D03*
X1498600D02*
D03*
X1559560Y847090D02*
D03*
Y872490D02*
D03*
X1635760D02*
D03*
X1957070Y561340D02*
D03*
Y535940D02*
D03*
X1880870D02*
D03*
X1772920Y561340D02*
D03*
Y535940D02*
D03*
X1696720D02*
D03*
X1727200Y854710D02*
D03*
Y880110D02*
D03*
X1803400D02*
D03*
X1893570Y861060D02*
D03*
Y886460D02*
D03*
X1969770D02*
D03*
X853440Y447040D02*
D03*
X878840D02*
D03*
Y370840D02*
D03*
X793750Y447040D02*
D03*
X819150D02*
D03*
Y370840D02*
D03*
X731520Y447040D02*
D03*
X756920D02*
D03*
Y370840D02*
D03*
X1055370Y447040D02*
D03*
X1080770D02*
D03*
Y370840D02*
D03*
X995680Y447040D02*
D03*
X1021080D02*
D03*
Y370840D02*
D03*
X913130Y447040D02*
D03*
X938530D02*
D03*
Y370840D02*
D03*
D20*
X1498600Y576580D02*
D03*
X1635760Y847090D02*
D03*
X1880870Y561340D02*
D03*
X1696720D02*
D03*
X1803400Y854710D02*
D03*
X1969770Y861060D02*
D03*
D21*
X1927050Y596900D02*
D03*
X1583230Y810260D02*
D03*
X1530810Y769620D02*
D03*
X1973120Y631190D02*
D03*
X1781350Y628650D02*
D03*
X1712420Y773430D02*
D03*
X1746710Y596900D02*
D03*
X1758490Y810260D02*
D03*
X1581960Y656590D02*
D03*
X1877520Y782320D02*
D03*
X1547320Y618490D02*
D03*
X1926130Y819150D02*
D03*
X1461770Y461820D02*
D03*
X553720Y371650D02*
D03*
X1144270Y229060D02*
D03*
X1085850Y237950D02*
D03*
X521970Y326850D02*
D03*
X1294130Y320850D02*
D03*
X1223010Y466900D02*
D03*
X862330Y248110D02*
D03*
X806450D02*
D03*
X749300Y244300D02*
D03*
X1052830Y237950D02*
D03*
X990600Y235410D02*
D03*
X918210Y249380D02*
D03*
X1316990Y488490D02*
D03*
X1275080Y461820D02*
D03*
X757380Y513080D02*
D03*
X698960Y480060D02*
D03*
X693420Y349710D02*
D03*
X1133650Y485140D02*
D03*
X895810Y510540D02*
D03*
X972360Y478790D02*
D03*
D22*
X2022650Y596900D02*
D03*
X1487630Y810260D02*
D03*
X1626410Y769620D02*
D03*
X1877520Y631190D02*
D03*
X1685750Y628650D02*
D03*
X1808020Y773430D02*
D03*
X1842310Y596900D02*
D03*
X1662890Y810260D02*
D03*
X1486360Y656590D02*
D03*
X1973120Y782320D02*
D03*
X1642920Y618490D02*
D03*
X1830530Y819150D02*
D03*
X852980Y513080D02*
D03*
X794560Y480060D02*
D03*
X1038050Y485140D02*
D03*
X991410Y510540D02*
D03*
X876760Y478790D02*
D03*
D23*
X1996450Y507400D02*
D03*
Y533400D02*
D03*
X1516380Y892140D02*
D03*
Y866140D02*
D03*
X1816110Y503590D02*
D03*
Y529590D02*
D03*
X1689100Y894680D02*
D03*
Y868680D02*
D03*
X1620530Y536610D02*
D03*
Y562610D02*
D03*
X1855460Y902300D02*
D03*
Y876300D02*
D03*
X1464310Y332070D02*
D03*
Y306070D02*
D03*
D24*
X1996450Y559400D02*
D03*
X1516380Y840140D02*
D03*
X1816110Y555590D02*
D03*
X1689100Y842680D02*
D03*
X1620530Y588610D02*
D03*
X1855460Y850300D02*
D03*
X1464310Y280070D02*
D03*
D25*
X1950670Y497840D02*
D03*
X1541830Y922020D02*
D03*
X1783030Y500380D02*
D03*
X1879650Y925830D02*
D03*
X1614120Y499110D02*
D03*
X1710740Y924560D02*
D03*
X529420Y577650D02*
D03*
D26*
X1861870Y497840D02*
D03*
X1630630Y922020D02*
D03*
X1694230Y500380D02*
D03*
X1968450Y925830D02*
D03*
X1525320Y499110D02*
D03*
X1799540Y924560D02*
D03*
D27*
X1970080Y306950D02*
D03*
X1850080D02*
D03*
X1970080Y428950D02*
D03*
X1850080D02*
D03*
X1524650Y1118950D02*
D03*
X1644650D02*
D03*
X1524650Y996950D02*
D03*
X1644650D02*
D03*
X1799900Y306950D02*
D03*
X1679900D02*
D03*
X1799900Y428950D02*
D03*
X1679900D02*
D03*
X1693870Y1117990D02*
D03*
X1813870D02*
D03*
X1693870Y995990D02*
D03*
X1813870D02*
D03*
X1629410Y306070D02*
D03*
X1509410D02*
D03*
X1629410Y428070D02*
D03*
X1509410D02*
D03*
X1862780Y1117990D02*
D03*
X1982780D02*
D03*
X1862780Y995990D02*
D03*
X1982780D02*
D03*
D28*
X1910080Y448950D02*
D03*
X1584650Y976950D02*
D03*
X1739900Y448950D02*
D03*
X1753870Y975990D02*
D03*
X1569410Y448070D02*
D03*
X1922780Y975990D02*
D03*
D29*
X1461770Y366220D02*
D03*
X553720Y276050D02*
D03*
X1144270Y324660D02*
D03*
X1085850Y333550D02*
D03*
X521970Y422450D02*
D03*
X1294130Y225250D02*
D03*
X1223010Y371300D02*
D03*
X862330Y343710D02*
D03*
X806450D02*
D03*
X749300Y339900D02*
D03*
X1052830Y333550D02*
D03*
X990600Y331010D02*
D03*
X918210Y344980D02*
D03*
X1316990Y392890D02*
D03*
X1275080Y366220D02*
D03*
X693420Y445310D02*
D03*
D30*
X661670Y245110D02*
D03*
Y270510D02*
D03*
Y295910D02*
D03*
Y321310D02*
D03*
X585470Y245110D02*
D03*
Y270510D02*
D03*
Y295910D02*
D03*
X1258570Y236220D02*
D03*
Y261620D02*
D03*
Y287020D02*
D03*
Y312420D02*
D03*
X1182370Y236220D02*
D03*
Y261620D02*
D03*
Y287020D02*
D03*
X1192530Y377190D02*
D03*
Y402590D02*
D03*
Y427990D02*
D03*
Y453390D02*
D03*
X1116330Y377190D02*
D03*
Y402590D02*
D03*
Y427990D02*
D03*
X662940Y368300D02*
D03*
Y393700D02*
D03*
Y419100D02*
D03*
Y444500D02*
D03*
X586740Y368300D02*
D03*
Y393700D02*
D03*
Y419100D02*
D03*
X1422400Y361950D02*
D03*
Y387350D02*
D03*
Y412750D02*
D03*
Y438150D02*
D03*
X1346200Y361950D02*
D03*
Y387350D02*
D03*
Y412750D02*
D03*
X1410970Y229870D02*
D03*
Y255270D02*
D03*
Y280670D02*
D03*
Y306070D02*
D03*
X1334770Y229870D02*
D03*
Y255270D02*
D03*
Y280670D02*
D03*
D31*
X585470Y321310D02*
D03*
X1182370Y312420D02*
D03*
X1116330Y453390D02*
D03*
X586740Y444500D02*
D03*
X1346200Y438150D02*
D03*
X1334770Y306070D02*
D03*
D32*
X853440Y370840D02*
D03*
X793750D02*
D03*
X731520D02*
D03*
X1055370D02*
D03*
X995680D02*
D03*
X913130D02*
D03*
D33*
X834390Y254710D02*
D03*
X777240Y253440D02*
D03*
X721360Y252170D02*
D03*
X1022350Y245820D02*
D03*
X960120Y247090D02*
D03*
X890270Y257250D02*
D03*
D34*
X834390Y337110D02*
D03*
X777240Y335840D02*
D03*
X721360Y334570D02*
D03*
X1022350Y328220D02*
D03*
X960120Y329490D02*
D03*
X890270Y339650D02*
D03*
D35*
X759460Y1012190D02*
D03*
X594360Y1215390D02*
D03*
D36*
X607060Y1012190D02*
D03*
X657860D02*
D03*
X632460D02*
D03*
X683260D02*
D03*
X708660D02*
D03*
D37*
X529420Y552650D02*
D03*
M02*
